<svg width="161" height="129" viewBox="0 0 161 129" fill="none" xmlns="http://www.w3.org/2000/svg">
<path d="M126.919 73.3358C124.844 72.1507 122.71 70.618 122.14 69.9187C122.125 69.7717 122.112 69.6071 122.098 69.4282C121.847 66.3231 121.379 60.5723 109.698 55.3495C109.376 54.6475 108.935 53.9806 108.362 53.4204C106.952 52.0434 105.107 51.6517 103.167 52.3149C101.526 52.8767 100.483 53.7141 99.8173 54.5663C97.7903 54.7209 96.2785 55.3039 94.9243 55.8285C93.5165 56.3732 92.301 56.8438 90.5405 56.8438C89.697 56.8438 88.6583 56.1212 87.456 55.2842C85.4863 53.9135 83.0345 52.2075 79.4823 52.2075C75.4853 52.2075 72.7233 53.5713 70.0518 54.8907C66.372 56.7079 62.897 58.4239 55.5608 56.886C46.7658 55.0426 32.723 58.5353 27.5475 61.7897C22.7983 64.7766 17.4658 73.7585 11.6978 88.487C8.03979 97.8268 5.33154 106.656 4.67054 108.857L0.607286 113.115C0.0210364 113.73 -0.159714 114.651 0.148286 115.458L4.57154 127.049C4.88679 127.874 5.64904 128.415 6.49679 128.415H13.1318C14.277 128.415 15.2053 127.442 15.2053 126.242C15.2053 125.041 14.2773 124.068 13.1318 124.068H12.9933V121.32C19.5938 120.469 27.7995 115.888 32.2293 111.614C32.8118 111.052 33.387 110.53 33.9575 110.038C34.5768 111.289 35.3578 112.375 36.1238 113.431C38.0193 116.046 39.8098 118.516 39.8098 123.924C39.8098 125.298 40.8158 125.842 41.6243 126.278C42.0065 126.485 42.5338 126.759 43.1913 127.093C44.309 127.66 45.4268 128.209 45.4268 128.209C45.702 128.345 46.0025 128.415 46.307 128.415H57.3653C58.5105 128.415 59.4388 127.442 59.4388 126.242C59.4388 125.041 58.5108 124.068 57.3653 124.068H53.1328C53.7315 121.838 55.0693 119.209 56.4665 116.465C57.3215 114.786 58.2165 113.027 59.0178 111.211C59.6915 113.242 60.6368 115.376 61.927 117.59V122.285C61.927 123.922 62.5355 125.462 63.64 126.619C64.7448 127.777 66.2138 128.415 67.776 128.415H79.4818C80.627 128.415 81.5553 127.442 81.5553 126.242C81.5553 125.041 80.6273 124.068 79.4818 124.068H77.3753L79.2045 106.814C79.9515 106.413 81.022 105.795 82.2688 104.95C83.3925 108.627 87.1843 118.454 96.2393 121.268L104.778 127.98C105.137 128.262 105.573 128.414 106.022 128.414H119.292C120.437 128.414 121.365 127.442 121.365 126.241C121.365 125.041 120.437 124.068 119.292 124.068H117.08C115.376 124.068 113.281 119.724 111.256 115.523C109.341 111.554 106.98 106.658 103.676 102.296C103.675 99.1839 103.496 90.7486 101.693 86.6887H110.445C111.079 86.6887 111.678 86.385 112.071 85.8643C113.199 84.3705 115.629 84.3705 117.08 84.3705C122.35 84.3705 124.581 83.3902 124.975 83.1935C125.49 82.9361 125.882 82.4679 126.057 81.8985L127.9 75.91C128.206 74.9169 127.793 73.8358 126.919 73.3358ZM52.8078 114.419C51.088 117.797 49.4468 121.023 48.873 124.069H46.77C45.7495 123.564 44.663 123.015 43.926 122.629C43.633 116.605 41.3138 113.406 39.4258 110.802C38.572 109.624 37.8238 108.588 37.3723 107.444C43.6708 103.305 49.6508 102.918 57.3215 102.916C56.7293 106.707 54.7435 110.617 52.8078 114.419ZM107.554 117.485C108.754 119.972 109.85 122.246 111.017 124.069H106.713L98.4188 117.549C98.208 117.384 97.9698 117.262 97.7158 117.19C88.8238 114.671 85.9488 102.673 85.9213 102.556C85.8953 102.442 85.8588 102.334 85.8173 102.228C88.8735 99.583 92.1513 95.8724 94.2573 90.9886C95.3073 90.6703 96.843 90.1053 98.2285 89.216C99.101 91.889 99.5768 97.9925 99.5245 103.037C99.5193 103.55 99.6875 104.05 99.9995 104.445C103.262 108.585 105.543 113.313 107.554 117.485ZM122.438 79.4975C121.536 79.7239 119.821 80.025 117.08 80.025C115.353 80.025 111.94 80.025 109.547 82.3432H101.516C99.9855 82.3432 98.6565 81.2015 98.3563 79.6283L97.4385 74.8176C97.2138 73.6408 96.1215 72.8791 94.9988 73.1126C93.876 73.3481 93.1475 74.493 93.372 75.6697L94.2898 80.4804C94.633 82.2782 95.5638 83.8294 96.8455 84.932C95.9865 85.7074 94.1258 86.6001 92.3013 87.0312C91.6343 87.1865 91.083 87.6768 90.8278 88.3411C86.9253 98.5003 76.5485 103.338 76.447 103.384C75.7633 103.694 75.2908 104.364 75.2088 105.139L73.202 124.069H67.7753C67.3205 124.069 66.893 123.883 66.5715 123.546C66.25 123.21 66.073 122.762 66.073 122.285V116.97C66.073 116.557 65.9613 116.154 65.7508 115.806C56.949 101.253 65.1803 91.0408 65.555 90.5895C66.31 89.6916 66.2308 88.3222 65.3758 87.5272C64.5188 86.7306 63.2083 86.8124 62.4488 87.7101C62.335 87.8442 59.65 91.0591 58.313 96.4273C58.143 97.1099 57.9918 97.8494 57.87 98.6376C57.708 98.5949 57.539 98.5697 57.3648 98.5697C46.9778 98.5697 38.8933 99.2761 29.4205 108.416C24.0288 113.619 15.5015 117.114 10.92 117.114C9.77479 117.114 8.84654 118.087 8.84654 119.288V124.069H7.90054L4.50629 115.175L7.96304 111.552C8.20279 111.301 8.38029 110.992 8.47954 110.652C11.645 99.8157 21.6248 70.5832 29.6803 65.5173C33.7115 62.9822 46.7605 59.4736 54.747 61.1485C63.4255 62.9673 67.8845 60.7657 71.8188 58.8232C74.284 57.6058 76.4128 56.5546 79.4818 56.5546C81.7828 56.5546 83.4243 57.6965 85.162 58.906C86.7763 60.0291 88.4453 61.1907 90.54 61.1907C93.0418 61.1907 94.805 60.5084 96.3603 59.9062C97.1468 59.602 97.8773 59.3237 98.6763 59.1314C98.9115 60.909 99.7193 62.2902 99.853 62.5084C100.25 63.1572 100.923 63.5133 101.609 63.5133C101.991 63.5133 102.377 63.403 102.722 63.1711C103.686 62.5234 103.97 61.1854 103.352 60.1753C103.066 59.6919 102.564 58.4396 102.838 57.6533C103.051 57.0401 103.834 56.6589 104.454 56.4469C105.074 56.2344 105.327 56.4049 105.515 56.581C106.084 57.113 106.284 58.1713 106.222 58.4899C105.945 59.6544 106.62 60.8343 107.731 61.1257C108.598 61.3524 109.471 60.9701 109.946 60.2392C117.497 64.0678 117.779 67.4755 117.966 69.7953C117.995 70.1535 118.023 70.4915 118.07 70.8298C118.163 71.4846 118.396 73.133 123.435 76.2609L122.438 79.4975Z" fill="black"/>
<path d="M122.481 44.0952L122.315 43.7653C121.553 42.23 121.084 40.9395 120.908 39.8939C120.74 38.8441 120.78 37.9123 121.028 37.0985C121.271 36.2763 121.652 35.4432 122.171 34.5991C122.525 34.0179 122.809 33.4349 123.024 32.8499C123.243 32.2522 123.351 31.6569 123.35 31.064C123.344 30.4627 123.192 29.8659 122.894 29.2738C122.558 28.6055 122.11 28.1049 121.55 27.7717C120.99 27.4386 120.375 27.2708 119.706 27.2683C119.045 27.2616 118.389 27.4221 117.738 27.7499C117.138 28.0521 116.633 28.4706 116.223 29.0052C115.818 29.5272 115.57 30.1398 115.478 30.843C115.391 31.5336 115.527 32.287 115.884 33.1035L111.367 35.3767C110.601 33.7482 110.313 32.2074 110.504 30.7543C110.704 29.2969 111.276 27.9911 112.222 26.8367C113.176 25.6781 114.393 24.7263 115.873 23.9813C117.489 23.1682 119.053 22.7365 120.565 22.686C122.085 22.6312 123.451 22.9559 124.664 23.66C125.882 24.3513 126.85 25.4118 127.569 26.8414C128.055 27.8057 128.332 28.7473 128.403 29.6661C128.481 30.5806 128.386 31.4766 128.117 32.3539C127.849 33.2313 127.442 34.0984 126.898 34.9552C126.426 35.723 126.085 36.446 125.875 37.1241C125.673 37.798 125.622 38.4969 125.721 39.2208C125.825 39.932 126.098 40.7381 126.541 41.639L126.707 41.9689L122.481 44.0952ZM128.674 50.9017C127.912 51.2849 127.12 51.3441 126.298 51.0794C125.476 50.8147 124.869 50.2933 124.477 49.5151C124.094 48.7538 124.041 47.9641 124.319 47.146C124.596 46.3279 125.115 45.7273 125.877 45.3442C126.63 44.9653 127.417 44.9082 128.239 45.1729C129.07 45.4333 129.677 45.9442 130.06 46.7055C130.32 47.2215 130.425 47.757 130.376 48.3119C130.335 48.8625 130.167 49.3712 129.871 49.8378C129.58 50.2917 129.181 50.6463 128.674 50.9017Z" fill="black"/>
<path d="M136.024 17.3486L136.114 17.1665C136.536 16.3236 136.948 15.6904 137.349 15.2669C137.754 14.8457 138.177 14.5548 138.616 14.3943C139.058 14.2291 139.55 14.1208 140.093 14.0693C140.465 14.0326 140.815 13.9645 141.143 13.8651C141.478 13.7633 141.776 13.614 142.036 13.4171C142.298 13.2155 142.51 12.9513 142.671 12.6244C142.853 12.2555 142.925 11.893 142.886 11.5368C142.847 11.1806 142.717 10.8551 142.497 10.5604C142.281 10.2679 141.994 10.0329 141.634 9.85523C141.303 9.69145 140.952 9.60811 140.581 9.60523C140.218 9.59998 139.867 9.69367 139.528 9.8863C139.195 10.0766 138.909 10.3854 138.669 10.8128L136.175 9.58094C136.637 8.70525 137.219 8.0689 137.92 7.67189C138.626 7.27719 139.39 7.0965 140.21 7.12984C141.034 7.16548 141.855 7.38515 142.672 7.78885C143.564 8.22947 144.272 8.77345 144.794 9.42081C145.321 10.0705 145.631 10.7783 145.723 11.5441C145.822 12.3077 145.677 13.084 145.287 13.8732C145.024 14.4055 144.702 14.8391 144.322 15.174C143.946 15.5112 143.521 15.766 143.047 15.9383C142.573 16.1106 142.057 16.2191 141.501 16.2637C141.007 16.3103 140.577 16.3997 140.209 16.5319C139.847 16.6664 139.523 16.8753 139.238 17.1585C138.959 17.4393 138.696 17.8261 138.446 18.3188L138.356 18.5009L136.024 17.3486ZM135.084 22.3214C134.663 22.1138 134.375 21.7856 134.219 21.3368C134.063 20.888 134.092 20.4488 134.304 20.0192C134.511 19.5989 134.841 19.3143 135.292 19.1654C135.743 19.0165 136.179 19.0459 136.599 19.2535C137.015 19.4588 137.301 19.7859 137.456 20.2347C137.617 20.6858 137.593 21.1215 137.386 21.5417C137.245 21.8266 137.045 22.05 136.785 22.2119C136.529 22.3762 136.25 22.4707 135.947 22.4955C135.652 22.5179 135.364 22.4598 135.084 22.3214Z" fill="black"/>
<path d="M140.338 40.8706L140.489 40.6163C141.194 39.4401 141.86 38.5668 142.488 37.9965C143.122 37.43 143.767 37.0545 144.422 36.8698C145.081 36.6787 145.806 36.5755 146.599 36.5603C147.143 36.5478 147.659 36.4875 148.145 36.3793C148.642 36.2684 149.09 36.0844 149.489 35.8273C149.891 35.5637 150.227 35.2036 150.497 34.7473C150.802 34.2322 150.946 33.7142 150.928 33.1933C150.911 32.6724 150.758 32.1861 150.471 31.7344C150.19 31.2866 149.799 30.9142 149.297 30.6171C148.834 30.3432 148.334 30.1839 147.797 30.1391C147.271 30.0917 146.751 30.1891 146.238 30.4313C145.735 30.6708 145.286 31.0874 144.891 31.681L141.409 29.6209C142.175 28.4014 143.088 27.5422 144.149 27.0433C145.217 26.5482 146.343 26.3698 147.529 26.508C148.722 26.6501 149.888 27.0587 151.029 27.7339C152.274 28.4707 153.241 29.3372 153.928 30.3334C154.621 31.3335 154.993 32.394 155.042 33.5149C155.102 34.6332 154.807 35.7433 154.155 36.8452C153.715 37.5885 153.201 38.1821 152.612 38.6262C152.03 39.0741 151.386 39.397 150.679 39.595C149.972 39.7929 149.213 39.8937 148.401 39.8974C147.68 39.9109 147.046 39.9934 146.498 40.1449C145.957 40.3002 145.465 40.5676 145.02 40.9471C144.586 41.324 144.161 41.856 143.745 42.5433L143.595 42.7976L140.338 40.8706ZM138.429 47.9802C137.842 47.633 137.46 47.1254 137.284 46.4573C137.107 45.7893 137.196 45.1554 137.551 44.5555C137.898 43.9687 138.407 43.5921 139.077 43.4256C139.748 43.259 140.377 43.3494 140.964 43.6966C141.544 44.0399 141.923 44.5456 142.099 45.2136C142.283 45.8855 142.201 46.5149 141.854 47.1017C141.618 47.4994 141.303 47.8014 140.908 48.0078C140.52 48.2181 140.105 48.3246 139.663 48.3273C139.232 48.3274 138.82 48.2116 138.429 47.9802Z" fill="black"/>
</svg>
