<svg xmlns="http://www.w3.org/2000/svg" width="320" height="172" fill="none"><mask id="a" style="mask-type:alpha" maskUnits="userSpaceOnUse" x="-1" y="40" width="322" height="74"><path d="m43.5 62.5 13.5-7 13.5 7 10.2 7.3 3 3.6 28-16.2L123 52l22.5-10.5 23.5 10 52 24 11-9.5 8-4.2 33-13.3L300 66l20 13v34H0V58l7.5-2 14-3.5L33.6 58l9.9 4.5Z" fill="#fff"/><path d="m43.5 62.5 13.5-7 13.5 7 10.2 7.3m-37.2-7.3-11 7.2m11-7.2L33.6 58m50.2 15.4 28-16.2L123 52m46-.5-23.5-10L123 52m46-.5-5.5 4-6-2.5-4 2.5L147 53l-6.5 4.3-5.5-5.8-7.5 3.5-4.5-3m46-.5 52 24M118 113 80.7 69.8M0 91l32.5-21.3M0 91V58l7.5-2M0 91v22h320V79l-20-13m-171 47 30.8-33m77.7 33L209 85.7m-176.5-16 8 5.3 12-5.3 10 5.3 4.5-4.5 9 6 4.7-6.7m159.3-8-8 4.2-23 19.7m31-24 33-13.2L300 66m-60-4.2 8 2.2 9.5-1.5 5.5 6 10-3.5 8 5 6.5-4.5 7.5 4 5-3.5M7.5 56l14-3.5L33.6 58M7.5 56l3 3.5 5.5-1 4.5 4 4-2.5 4.5 2 4.6-4m126.2 22L174 68l25 9.3M159.8 80l8.2 5 7.5-5 7.5 5 6-6 7.5 3 2.5-4.7m0 0 4 2.7 6 5.7" stroke="#000"/></mask><g mask="url(#a)"><path fill="#D9D9D9" d="M0 41h320v72H0z"/></g><path d="m43.5 62.5 13.5-7 13.5 7 10.2 7.3 3 3.6 28-16.2L123 52l22.5-10.5 23.5 10 52 24 11-9.5 8-4.2 33-13.3L300 66l-5 3.5-7.5-4L281 70l-8-5-10 3.5-5.5-6L248 64l-8-2.2-8 4.2-11 9.5-12 10.2-6-5.7-4-2.7-2.5 4.7-7.5-3-6 6-7.5-5-7.5 5-8.2-5L174 68l25 9.3 4 2.7 6 5.7 12-10.2-52-24-5.5 4-6-2.5-4 2.5L147 53l-6.5 4.3-5.5-5.8-7.5 3.5-4.5-3-11.3 5.3-28 16-3-3.5-4.7 6.7-9-6-4.5 4.5-10-5.3-12 5.3-8-5.3 11-7.2-9.9-4.5-4.6 4-4.5-2-4 2.5-4.5-4-5.5 1-3-3.4 14-3.6L33.6 58l9.9 4.5Z" fill="#fff"/><path d="m0 58 7.5-2m36 6.5 13.5-7 13.5 7 10.2 7.3m-37.2-7.3-11 7.2m11-7.2L33.6 58m50.2 15.4 28-16.2L123 52m46-.5-23.5-10L123 52m46-.5-5.5 4-6-2.5-4 2.5L147 53l-6.5 4.3-5.5-5.8-7.5 3.5-4.5-3m46-.5 52 24m99 3.5-20-13m-182 47L80.7 69.8M0 91l32.5-21.3M129 113l30.8-33m77.7 33L209 85.7m-176.5-16 8 5.3 12-5.3 10 5.3 4.5-4.5 9 6 4.7-6.7m159.3-8-8 4.2-23 19.7m31-24 33-13.2L300 66m-60-4.2 8 2.2 9.5-1.5 5.5 6 10-3.5 8 5 6.5-4.5 7.5 4 5-3.5M7.5 56l14-3.5L33.6 58M7.5 56l3 3.5 5.5-1 4.5 4 4-2.5 4.5 2 4.6-4m126.2 22L174 68l25 9.3M159.8 80l8.2 5 7.5-5 7.5 5 6-6 7.5 3 2.5-4.7m0 0 4 2.7 6 5.7M53.4 25.6h-.2zm7.6 4.1v.3l.3.2c2 .8 3.2 2.8 3.2 4.9 0 3-2.5 5.4-5.6 5.4H39.5c-3.9 0-7-3-7-6.7 0-1.6.5-3.1 1.6-4.3a7 7 0 0 1 3.4-2.2l.3-.1v-.4c.2-4 3.7-7.3 8-7.3a8 8 0 0 1 4.9 1.7c1.2 1 2 2.2 2.5 3.6l.2.5.5-.2a5.1 5.1 0 0 1 7 4.6z" stroke="#000"/><mask id="b" fill="#fff"><path d="M278.5 16.3c0-2-1.8-3.7-4-3.7-.4 0-1 0-1.4.2-.3-1-1-1.9-1.9-2.6a6 6 0 0 0-3.6-1.2 5.7 5.7 0 0 0-5.9 5.3c-1 .3-1.9.9-2.5 1.6-.8 1-1.2 2-1.2 3.2a5 5 0 0 0 5.2 4.9h13.6c2.3 0 4.2-1.8 4.2-4 0-1.6-1-3-2.5-3.7Zm-1.7 6.9h-13.6a4.2 4.2 0 0 1-4.3-4.1 4 4 0 0 1 1-2.6c.6-.7 1.4-1.2 2.4-1.4.2 0 .3-.3.3-.5 0-2.6 2.2-4.8 5-4.8a5 5 0 0 1 3 1c1 .8 1.6 1.7 1.8 2.7 0 .1.1.3.3.3h.4c.4-.3 1-.4 1.5-.4a3 3 0 0 1 3 3.1c0 .2.1.4.3.5 1.3.4 2.2 1.6 2.2 3 0 1.7-1.5 3.2-3.3 3.2Z"/></mask><path d="M278.5 16.3h-1v.7l.6.2.4-1Zm-5.4-3.5-1 .4.4 1 1-.4-.4-1Zm-1.9-2.6.7-.8-.7.8Zm-9.5 4.1.3 1 .7-.2v-.7h-1Zm-2.5 1.6-.8-.6.8.6Zm21.8 4h1-1Zm-21.1-3.4.7.6-.7-.6Zm2.4-1.4-.2-1 .2 1Zm.3-.5h-1 1Zm0 0h1-1Zm8-3.7-.5.8.6-.8Zm1.8 2.6-1 .2 1-.2Zm.3.3-.4 1 .4-1Zm.4 0-.5-.9.5.9Zm4.5 2.7 1 .1h-1Zm.3.5-.3 1 .3-1Zm2.2 3h-1 1Zm-.6-3.7c0-2.7-2.3-4.7-5-4.7v2c1.7 0 3 1.2 3 2.7h2Zm-5-4.7c-.6 0-1.2 0-1.7.3l.7 1.9c.3-.2.7-.2 1-.2v-2Zm-.4.9a6.6 6.6 0 0 0-2.3-3l-1.2 1.5c.8.6 1.3 1.3 1.6 2.2l1.9-.7Zm-2.3-3a7 7 0 0 0-4.2-1.5v2a5 5 0 0 1 3 1l1.3-1.6ZM267.7 8a6.7 6.7 0 0 0-6.9 6.3h2a4.7 4.7 0 0 1 4.9-4.3V8Zm-6.1 5.4c-1.2.3-2.3 1-3.1 1.9l1.5 1.3c.6-.6 1.3-1 2-1.3l-.4-2Zm-3.1 1.9c-.9 1-1.4 2.4-1.4 3.8h2c0-1 .3-1.8 1-2.5l-1.6-1.3Zm-1.4 3.8a6 6 0 0 0 6.2 5.9v-2c-2.4 0-4.2-1.8-4.2-4h-2Zm6.2 5.9h13.6v-2h-13.6v2Zm13.6 0c2.8 0 5.2-2.2 5.2-5h-2c0 1.6-1.4 3-3.2 3v2Zm5.2-5a5 5 0 0 0-3-4.6l-.9 1.8A3 3 0 0 1 280 20h2Zm-5.2 2.2h-13.6v2h13.6v-2Zm-13.6 0c-1.9 0-3.3-1.5-3.3-3.1h-2c0 2.8 2.4 5 5.3 5v-2Zm-3.3-3.1c0-.7.2-1.4.7-2l-1.5-1.3a5 5 0 0 0-1.2 3.3h2Zm.7-2c.5-.5 1.1-.9 1.9-1l-.4-2c-1.2.2-2.2.8-3 1.7l1.5 1.3Zm1.9-1c.6-.2 1.1-.8 1.1-1.5h-2c0-.3.2-.5.5-.5l.4 2Zm1.1-1.5h-2 2Zm0 0h-2 2Zm0 0c0-2 1.7-3.8 4-3.8v-2c-3.3 0-6 2.6-6 5.8h2Zm4-3.8c.9 0 1.8.3 2.5.9l1.2-1.6a6 6 0 0 0-3.7-1.3v2Zm2.5.9c.7.5 1.1 1.3 1.3 2l2-.4c-.3-1.3-1-2.4-2.1-3.2l-1.2 1.6Zm1.3 2c.1.5.5.9.9 1l.7-1.8c.2 0 .3.2.4.4l-2 .4Zm.9 1c.4.2.8.2 1.2 0l-1-1.8h.5l-.7 1.8Zm1.2 0c.3-.2.7-.3 1-.3v-2c-.6 0-1.3.2-2 .5l1 1.8Zm1-.3c1.3 0 2.1 1 2.1 2h2a4 4 0 0 0-4-4v2Zm2.1 2 2 .2v-.3h-2Zm0 0c0 .7.4 1.3 1 1.5l.7-1.9c.2.1.3.3.3.6l-2-.1Zm1 1.5c1 .3 1.5 1.2 1.5 2h2c0-1.7-1.2-3.3-2.8-3.9l-.7 2Zm1.5 2c0 1.2-1 2.3-2.3 2.3v2c2.3 0 4.3-1.9 4.3-4.2h-2Z" fill="#000" mask="url(#b)"/><path d="M106.1 6.8c1.2.2 2.3 1 3.1 1.9.8 1 1.3 2.1 1.3 3.4 0 3-2.6 5.4-5.6 5.4h-16c-2.3 0-4.4-2-4.4-4.3a4.3 4.3 0 0 1 3-4.1v-.3a4 4 0 0 1 4-4c.8 0 1.5.2 2 .5m-6.1 3.5V9l-.3.1a4.4 4.4 0 0 0-2.6 4c0 2.3 2 4.3 4.5 4.3h15.9c3.1 0 5.6-2.4 5.6-5.4 0-1.3-.4-2.5-1.2-3.4a5.6 5.6 0 0 0-2.8-1.8l-.4-.1v-.4C106 3.1 103.2.5 99.8.5c-2.8.2-5.2 1.7-6 4.2l-.2.5-.5-.1-1.5-.3a4.1 4.1 0 0 0-4.2 4zM210 40.2v.3l-.3.1c-2 1-3.2 3-3.2 5.2 0 3.2 2.4 5.7 5.4 5.7h18.9a7 7 0 0 0 6.7-7c0-1.7-.5-3.3-1.5-4.5-.9-1.2-2-2-3.3-2.4h-.4v-.4a7.8 7.8 0 0 0-7.6-7.7c-1.7 0-3.4.6-4.8 1.8a8 8 0 0 0-2.5 3.7l-.1.5-.5-.2-1.8-.3c-2.8 0-5 2.3-5 5.2Zm22.2-2.4c1.4.3 2.7 1.2 3.6 2.4a7 7 0 0 1 1.5 4.2c0 3.7-3 6.8-6.5 6.8h-18.9a5.3 5.3 0 0 1-5.2-5.4c0-2.2 1.4-4.3 3.4-5v-.5c0-2.8 2.2-5 4.9-5 .8 0 1.6.2 2.3.6h.1a7.8 7.8 0 0 1 2.6-4.4c1.4-1.1 3-1.7 4.7-1.7 4 0 7.4 3.5 7.4 7.7V37.8Z" stroke="#000"/><path d="m255.8 114.8 3.2-5h-2l3-4.3h-1.6l4-5 4 5h-1.7l3 4.3h-2l3.2 5h-13.1Z" fill="#49595B"/><path d="M261.3 114.8h2v2.7h-2v-2.7Z" fill="#3E2E25"/><path d="m267 113.6-.5.3-2.3-4 .4-.2 2.3 3.9Z" fill="#2C3639"/><path d="M261 115h-5.7l3.2-4.9h-2l3-4.3h-1.7l4.6-5.8 4.5 5.8h-1.7l3 4.3h-2l3.2 5h-5.8v2.1h.5V116h.6v1.3h.5v-.8h.5v.8h.7v.6h-8.1v-.6h2.8V115Zm7.4-.5-3.1-5h2l-3.1-4.3h1.6l-3.4-4.3-3.5 4.3h1.6l-3 4.4h2l-2.5 3.9h2.6v.5h-3l-.3.5h12.1Zm-5.3 2.7V115h-1.5v2.2h1.5Z" fill="#2C3639"/><path d="M260.3 113.5h1.6v.5h-1.6v-.5Z" fill="#2C3639"/><path d="m242.8 112.7 2.4-3.7h-1.5l2.3-3.3h-1.3l3-3.9 3 3.9h-1.2l2.3 3.3h-1.5l2.4 3.7h-10Z" fill="#49595B"/><path d="M247 112.7h1.5v2.1H247v-2Z" fill="#3E2E25"/><path d="m251.2 111.8-.3.2-1.8-3 .4-.1 1.7 3Z" fill="#2C3639"/><path d="M246.8 113h-4.4l2.4-3.8h-1.5l2.3-3.3h-1.3l3.4-4.4 3.5 4.4h-1.3l2.3 3.3h-1.5l2.4 3.7h-4.4v1.7h.4v-1h.4v1h.4v-.7h.4v.7h.6v.4h-6.2v-.4h2v-1.7Zm5.6-.5-2.4-3.7h1.4l-2.3-3.3h1.3l-2.7-3.4-2.6 3.4h1.3l-2.4 3.3h1.5l-1.9 3h2v.3h-2.2l-.3.4h9.3Zm-4 2.1v-1.7h-1.2v1.7h1.1Z" fill="#2C3639"/><path d="M246.2 111.7h1.2v.4h-1.2v-.4Z" fill="#2C3639"/><path d="m230.6 121.8 3.8-6H232l3.7-5.4h-2l4.9-6.2 4.8 6.2h-2l3.7 5.3h-2.4l3.9 6h-16Z" fill="#49595B"/><path d="M237.4 121.8h2.4v3.3h-2.4v-3.3Z" fill="#3E2E25"/><path d="m244.2 120.3-.5.3-2.9-4.7.6-.3 2.8 4.7Z" fill="#2C3639"/><path d="M237 122h-7l3.9-6h-2.5l3.7-5.2h-2l5.5-7.1 5.5 7h-2l3.7 5.3h-2.5l3.9 6h-7v2.8h.6V123h.6v1.7h.7v-1.1h.6v1h.9v.7h-10v-.6h3.4V122Zm9-.6-3.9-6h2.4l-3.7-5.3h2l-4.2-5.3-4.2 5.3h2l-3.7 5.3h2.3l-3 4.7h3.2v.7h-3.6l-.4.6H246Zm-6.5 3.4V122h-1.8v2.7h1.8Z" fill="#2C3639"/><path d="M236.1 120.1h2v.7h-2v-.7Z" fill="#2C3639"/><path d="m244.9 127.2 4.3-6.7h-2.7l4.1-6h-2.2l5.4-6.9 5.5 7H257l4.2 5.9h-2.7l4.3 6.7h-18Z" fill="#49595B"/><path d="M252.5 127.2h2.7v3.8h-2.7v-3.8Z" fill="#3E2E25"/><path d="m260.1 125.6-.6.4-3.2-5.3.6-.4 3.2 5.3Z" fill="#2C3639"/><path d="M252.1 127.6h-7.9l4.3-6.8h-2.7l4.1-5.9h-2.2l6.1-7.9 6.2 8h-2.3l4.2 5.8H259l4.4 6.8h-8v3h.8v-1.9h.7v1.9h.8v-1.2h.7v1.2h1v.7h-11.3v-.7h3.9v-3Zm10-.7-4.3-6.8h2.7l-4.2-6h2.2l-4.7-6-4.6 6h2.1l-4.1 6h2.7l-3.4 5.3h3.6v.8h-4l-.6.7h16.6Zm-7.3 3.7v-3h-2v3h2Z" fill="#2C3639"/><path d="M251 125.4h2.2v.8H251v-.8Z" fill="#2C3639"/><path d="m287.2 121.6 3.3-5.2h-2l3.1-4.6H290l4.2-5.3 4.2 5.3h-1.8l3.2 4.6h-2l3.3 5.2h-13.8Z" fill="#49595B"/><path d="M293 121.6h2.1v2.8h-2v-2.8Z" fill="#3E2E25"/><path d="m299 120.3-.6.3-2.4-4 .5-.4 2.4 4.1Z" fill="#2C3639"/><path d="M292.7 121.9h-6l3.3-5.3h-2.1l3.2-4.5h-1.8l4.8-6.1 4.7 6h-1.7l3.2 4.6h-2.1l3.3 5.3h-6v2.3h.5v-1.5h.5v1.5h.6v-1h.5v1h.8v.5h-8.7v-.5h3v-2.3Zm7.8-.6L297 116h2l-3.1-4.6h1.7L294 107l-3.6 4.6h1.7l-3.2 4.6h2l-2.6 4h2.8v.6H288l-.3.6h12.7Zm-5.6 2.9v-2.3h-1.6v2.3h1.6Z" fill="#2C3639"/><path d="M292 120.2h1.6v.5h-1.7v-.5Z" fill="#2C3639"/><path d="m273.4 119.4 2.6-4h-1.6l2.4-3.4h-1.3l3.2-4 3.2 4h-1.3l2.4 3.4h-1.6l2.5 4h-10.5Z" fill="#49595B"/><path d="M277.9 119.4h1.6v2.2h-1.6v-2.2Z" fill="#3E2E25"/><path d="m282.4 118.5-.4.2-1.8-3.1.3-.3 1.9 3.2Z" fill="#2C3639"/><path d="M277.7 119.6H273l2.5-4H274l2.4-3.4h-1.3l3.6-4.6 3.6 4.6H281l2.4 3.5h-1.6l2.5 4h-4.6v1.7h.4v-1.1h.5v1h.4v-.6h.4v.7h.6v.4h-6.6v-.4h2.3v-1.8Zm5.9-.4-2.6-4h1.6l-2.4-3.4h1.2l-2.7-3.5-2.8 3.5h1.3l-2.4 3.4h1.6l-2 3.1h2v.5h-2.3l-.3.4h9.8Zm-4.3 2.2v-1.8H278v1.8h1.2Z" fill="#2C3639"/><path d="M277 118.3h1.3v.5h-1.2v-.5Z" fill="#2C3639"/><path d="m260.6 129 4-6.4h-2.5l4-5.6h-2.2l5.1-6.5 5.2 6.5H272l3.9 5.6h-2.6l4 6.3h-16.8Z" fill="#49595B"/><path d="M267.8 129h2.5v3.4h-2.5V129Z" fill="#3E2E25"/><path d="m275 127.4-.6.3-3-5 .6-.3 3 5Z" fill="#2C3639"/><path d="M267.4 129.3H260l4-6.4h-2.5l3.9-5.6h-2.2l5.8-7.4 5.9 7.4h-2.2l4 5.6H274l4 6.4h-7.3v2.8h.7v-1.8h.6v1.8h.7V131h.7v1h.9v.8h-10.5v-.7h3.6v-2.8Zm9.4-.7-4-6.4h2.5l-3.9-5.6h2L269 111l-4.4 5.6h2l-3.8 5.6h2.5l-3.2 5h3.4v.7h-3.8l-.5.7h15.6ZM270 132v-2.8h-1.9v2.8h1.9Z" fill="#2C3639"/><path d="M266.4 127.2h2v.7h-2v-.7Z" fill="#2C3639"/><path d="m275.7 134.7 4.5-7.1h-2.8l4.3-6.3h-2.3l5.7-7.3 5.7 7.3h-2.3l4.4 6.3H290l4.5 7.1h-18.8Z" fill="#49595B"/><path d="M283.7 134.7h2.9v4h-3v-4Z" fill="#3E2E25"/><path d="m291.7 133-.6.4-3.4-5.6.7-.4 3.3 5.6Z" fill="#2C3639"/><path d="M283.3 135H275l4.5-7h-2.9l4.4-6.3h-2.4l6.5-8.3 6.5 8.3h-2.4l4.4 6.3h-2.9l4.5 7H287v3.2h.8v-2h.8v2h.7V137h.8v1.2h1v.8h-11.7v-.8h4v-3.1Zm10.6-.7-4.6-7.1h2.8l-4.4-6.3h2.3l-4.9-6.3-5 6.3h2.4l-4.4 6.3h2.8l-3.6 5.6h3.9v.7h-4.3l-.5.8h17.5Zm-7.7 4V135H284v3.1h2.2Z" fill="#2C3639"/><path d="M282.2 132.8h2.2v.7h-2.2v-.7Z" fill="#2C3639"/><path d="m100.7 119 3.7-5.7H102l3.5-5h-2l4.7-5.8 4.5 5.8H111l3.5 5h-2.2l3.6 5.7h-15Z" fill="#49595B"/><path d="M107.1 119h2.3v3.2h-2.3V119Z" fill="#3E2E25"/><path d="m113.6 117.6-.6.4-2.6-4.5.5-.3 2.7 4.4Z" fill="#2C3639"/><path d="M106.8 119.3h-6.6l3.6-5.7h-2.3l3.5-5h-2l5.3-6.6 5.2 6.6h-2l3.5 5h-2.3l3.7 5.7h-6.7v2.6h.6v-1.6h.6v1.6h.6v-1h.7v1h.8v.6H103.6v-.6h3.2v-2.6Zm8.4-.6-3.6-5.7h2.3l-3.5-5h1.8l-4-5-3.9 5h1.9l-3.5 5h2.2l-2.8 4.5h3v.6h-3.4l-.4.6h13.9Zm-6 3.2v-2.6h-1.8v2.6h1.7Z" fill="#2C3639"/><path d="M106 117.5h1.7v.6H106v-.6Z" fill="#2C3639"/><path d="m85.7 116.7 2.8-4.4h-1.8l2.7-3.8H88l3.4-4.4 3.5 4.4h-1.4l2.6 3.8h-1.7l2.8 4.4H85.7Z" fill="#49595B"/><path d="M90.6 116.7h1.7v2.3h-1.7v-2.3Z" fill="#3E2E25"/><path d="m95.5 115.6-.4.3-2-3.5.3-.2 2 3.4Z" fill="#2C3639"/><path d="M90.3 116.9h-5l2.7-4.3h-1.7l2.6-3.8h-1.4l4-5 3.9 5h-1.5l2.7 3.8h-1.8l2.8 4.3h-5v2h.4v-1.3h.5v1.2h.4v-.7h.5v.7h.6v.5H88v-.5h2.4V117Zm6.5-.5-2.8-4.3h1.7l-2.7-3.8h1.4l-3-3.8-3 3.8h1.4l-2.6 3.8h1.7l-2.2 3.4H89v.5h-2.6l-.3.4h10.7Zm-4.7 2.4V117h-1.3v2H92Z" fill="#2C3639"/><path d="M89.7 115.5H91v.5h-1.3v-.5Z" fill="#2C3639"/><path d="m71.7 127 4.4-6.9h-2.8l4.3-6h-2.3l5.6-7.2 5.6 7.1h-2.3l4.2 6.1h-2.7l4.4 7H71.7Z" fill="#49595B"/><path d="M79.5 127h2.8v3.9h-2.8V127Z" fill="#3E2E25"/><path d="m87.4 125.4-.7.4-3.3-5.5.7-.4 3.3 5.5Z" fill="#2C3639"/><path d="M79.1 127.4H71l4.4-7h-2.8l4.3-6h-2.4l6.4-8.1 6.3 8H85l4.3 6.2h-2.9l4.5 7h-8.1v3h.7v-2h.8v2h.7v-1.2h.8v1.2h1v.8H75v-.8h4v-3Zm10.3-.7-4.4-7h2.7l-4.2-6h2.2l-4.8-6.2-4.8 6.1h2.2l-4.2 6.1h2.7l-3.5 5.5H77v.7h-4.2l-.4.8h17Zm-7.5 3.8v-3h-2v3h2Z" fill="#2C3639"/><path d="M78 125.2h2.2v.7H78v-.7Z" fill="#2C3639"/><path d="m88.1 133.4 5-7.8H90l4.8-6.8h-2.6l6.3-8 6.2 8h-2.6l4.8 6.8h-3.1l5 7.8H88Z" fill="#49595B"/><path d="M96.9 133.4h3.1v4.3H97v-4.3Z" fill="#3E2E25"/><path d="m105.7 131.5-.7.4-3.7-6.1.7-.4 3.7 6Z" fill="#2C3639"/><path d="M96.5 133.8h-9.1l5-7.8h-3.2l4.8-6.8h-2.7l7.2-9.1 7 9H103l4.8 6.9h-3.1l5 7.8h-9.1v3.4h.8v-2.1h.8v2.1h.9V136h.8v1.3h1v.9H92v-.9h4.5v-3.4Zm11.5-.8-5-7.8h3.1l-4.8-6.9h2.5l-5.3-6.9-5.4 7h2.5l-4.8 6.8h3l-3.8 6H94v1h-4.7l-.5.8H108Zm-8.4 4.2v-3.4h-2.3v3.4h2.3Z" fill="#2C3639"/><path d="M95.2 131.3h2.5v.8h-2.5v-.8Z" fill="#2C3639"/><path d="m165.3 116.6-3.3-5.2h2l-3.1-4.6h1.7l-4.2-5.3-4.2 5.3h1.7l-3.1 4.6h2l-3.3 5.2h13.8Z" fill="#49595B"/><path d="M159.5 116.6h-2.1v2.9h2v-3Z" fill="#3E2E25"/><path d="m153.6 115.3.4.3 2.5-4-.5-.4-2.4 4.1Z" fill="#2C3639"/><path d="M159.7 116.9h6.1l-3.3-5.2h2.1l-3.2-4.6h1.8l-4.8-6.1-4.7 6h1.7l-3.2 4.7h2.1l-3.3 5.2h6v2.3h-.5v-1.5h-.5v1.5h-.6v-1h-.6v1h-.7v.5h8.6v-.5h-3v-2.3Zm-7.7-.6 3.3-5.2h-2l3.2-4.6h-1.7l3.6-4.6 3.6 4.6h-1.7l3.2 4.6h-2l2.6 4h-2.8v.6h3.1l.4.6h-12.7Zm5.6 2.9v-2.3h1.6v2.3h-1.6Z" fill="#2C3639"/><path d="M160.6 115.2h-1.7v.5h1.7v-.5Z" fill="#2C3639"/><path d="m179 114.4-2.5-4h1.6l-2.4-3.4h1.3l-3.2-4-3.2 4h1.3l-2.4 3.5h1.6l-2.5 4H179Z" fill="#49595B"/><path d="M174.6 114.4H173v2.2h1.6v-2.2Z" fill="#3E2E25"/><path d="m170.1 113.5.4.2 1.8-3.1-.3-.3-1.9 3.2Z" fill="#2C3639"/><path d="M174.8 114.6h4.6l-2.5-4h1.6l-2.4-3.4h1.3l-3.6-4.6-3.6 4.6h1.3l-2.4 3.5h1.6l-2.5 4h4.6v1.7h-.4v-1.1h-.5v1h-.4v-.6h-.4v.7h-.6v.4h6.6v-.4h-2.3v-1.8Zm-5.9-.4 2.6-4h-1.6l2.4-3.4h-1.2l2.7-3.5 2.7 3.5h-1.2l2.4 3.4h-1.6l2 3.2h-2v.4h2.3l.3.4h-9.8Zm4.3 2.2v-1.8h1.2v1.8h-1.2Z" fill="#2C3639"/><path d="M175.4 113.4h-1.2v.4h1.2v-.4Z" fill="#2C3639"/><path d="m191.9 124-4-6.4h2.5l-4-5.6h2.2l-5.1-6.5-5.2 6.5h2.1l-3.9 5.6h2.6l-4 6.3h16.8Z" fill="#49595B"/><path d="M184.7 124h-2.5v3.4h2.5V124Z" fill="#3E2E25"/><path d="m177.5 122.4.6.3 3-5-.6-.3-3 5Z" fill="#2C3639"/><path d="M185 124.3h7.5l-4-6.4h2.5l-3.9-5.6h2.2l-5.8-7.4-5.9 7.4h2.2l-4 5.6h2.7l-4.1 6.4h7.4v2.8h-.7v-1.8h-.6v1.8h-.7V126h-.7v1h-1v.8h10.6v-.7h-3.6v-2.8Zm-9.4-.7 4.1-6.4h-2.5l3.9-5.5h-2l4.4-5.7 4.4 5.7h-2l3.8 5.5h-2.5l3.2 5H187v.7h3.8l.5.7h-15.7Zm7 3.5v-2.8h1.8v2.8h-1.9Z" fill="#2C3639"/><path d="M186 122.2h-2v.7h2v-.7Z" fill="#2C3639"/><path d="m176.8 129.7-4.5-7.1h2.8l-4.3-6.3h2.3l-5.7-7.3-5.7 7.3h2.3l-4.4 6.3h2.9l-4.6 7.1h19Z" fill="#49595B"/><path d="M168.8 129.7H166v4h3v-4Z" fill="#3E2E25"/><path d="m160.7 128 .7.4 3.4-5.6-.7-.4-3.4 5.6Z" fill="#2C3639"/><path d="M169.2 130h8.3l-4.5-7h2.9l-4.4-6.3h2.4l-6.5-8.3-6.5 8.3h2.4l-4.4 6.3h2.9l-4.6 7h8.4v3.3h-.8v-2h-.8v2h-.7V132h-.8v1.3h-1v.7h11.7v-.7h-4V130Zm-10.6-.7 4.6-7.1h-2.8l4.3-6.2h-2.3l5-6.4 5 6.4H170l4.4 6.2h-2.8l3.5 5.6h-3.8v.8h4.3l.5.7h-17.5Zm7.7 4V130h2.1v3.2h-2Z" fill="#2C3639"/><path d="M170.3 127.8H168v.8h2.3v-.8Z" fill="#2C3639"/><path d="m126.9 118.1-3.2-5h2l-3.1-4.5h1.6l-4-5.2-4 5.2h1.6l-3.1 4.5h2l-3.2 5h13.4Z" fill="#49595B"/><path d="M121.2 118.1h-2v2.8h2V118Z" fill="#3E2E25"/><path d="m115.5 116.9.5.3 2.3-4-.4-.3-2.4 4Z" fill="#2C3639"/><path d="M121.5 118.4h5.9l-3.3-5h2l-3-4.5h1.7l-4.6-5.9-4.6 5.9h1.7l-3.1 4.4h2l-3.2 5h5.9v2.3h-.6v-1.4h-.5v1.4h-.5v-.9h-.6v1h-.7v.5h8.4v-.6h-3v-2.2Zm-7.5-.6 3.2-5h-2l3.1-4.4h-1.6l3.5-4.5 3.5 4.5H122l3 4.4h-2l2.6 4H123v.5h3l.4.5h-12.5Zm5.4 2.8v-2.2h1.5v2.2h-1.5Z" fill="#2C3639"/><path d="M122.3 116.8h-1.6v.5h1.6v-.5Z" fill="#2C3639"/><path d="m140.2 116-2.4-3.8h1.5l-2.4-3.4h1.3l-3-4-3.2 4h1.3l-2.4 3.4h1.6L130 116h10.2Z" fill="#49595B"/><path d="M135.9 116h-1.6v2.1h1.6v-2Z" fill="#3E2E25"/><path d="m131.5 115 .4.3 1.8-3-.4-.2-1.8 3Z" fill="#2C3639"/><path d="M136.1 116.2h4.5l-2.5-3.8h1.6l-2.4-3.4h1.3l-3.5-4.5-3.5 4.5h1.3l-2.4 3.4h1.6l-2.5 3.8h4.5v1.7h-.4v-1h-.4v1h-.4v-.7h-.4v.7h-.6v.4h6.4v-.4H136v-1.7Zm-5.7-.4 2.4-3.8h-1.5l2.4-3.4h-1.3l2.7-3.4 2.7 3.4h-1.3l2.4 3.4h-1.5l1.9 3h-2v.4h2.3l.2.4h-9.4Zm4.1 2.1v-1.7h1.2v1.7h-1.2Z" fill="#2C3639"/><path d="M136.7 115h-1.2v.4h1.2v-.4Z" fill="#2C3639"/><path d="m152.6 125.2-3.9-6.1h2.5l-3.8-5.4h2l-5-6.4-4.9 6.4h2l-3.7 5.4h2.4l-3.9 6.1h16.3Z" fill="#49595B"/><path d="M145.7 125.2h-2.5v3.4h2.5v-3.4Z" fill="#3E2E25"/><path d="m138.7 123.7.6.4 2.9-4.9-.6-.3-2.9 4.8Z" fill="#2C3639"/><path d="M146 125.6h7.2l-3.9-6.2h2.5L148 114h2.1l-5.6-7.2-5.7 7.2h2.1l-3.8 5.4h2.5l-4 6.2h7.3v2.7h-.7v-1.7h-.6v1.7h-.7v-1h-.7v1h-.8v.7h10.2v-.7H146v-2.7Zm-9.1-.7 4-6.2h-2.5l3.8-5.4h-2l4.3-5.4 4.2 5.4h-2l3.8 5.4h-2.4l3 4.9H148v.6h3.7l.4.7H137Zm6.7 3.4v-2.7h1.8v2.7h-1.8Z" fill="#2C3639"/><path d="M147 123.6h-2v.6h2v-.6Z" fill="#2C3639"/><path d="m138 130.8-4.4-6.9h2.8l-4.2-6h2.2l-5.5-7.1-5.6 7h2.3l-4.2 6.1h2.7l-4.4 7H138Z" fill="#49595B"/><path d="M130.3 130.8h-2.8v3.8h2.8v-3.8Z" fill="#3E2E25"/><path d="m122.5 129.2.6.4 3.2-5.5-.6-.4-3.2 5.5Z" fill="#2C3639"/><path d="M130.7 131.2h8l-4.4-6.9h2.8l-4.2-6h2.3l-6.3-8.1-6.3 8h2.3l-4.2 6.1h2.8l-4.4 7h8v3h-.7v-2h-.8v2h-.7V133h-.8v1.2h-1v.7h11.5v-.7h-4v-3Zm-10.3-.7 4.4-7h-2.7l4.2-6h-2.2l4.8-6.1 4.8 6.1h-2.3l4.3 6H133l3.4 5.5h-3.7v.7h4.2l.5.8h-17Zm7.5 3.8v-3h2v3h-2Z" fill="#2C3639"/><path d="M131.7 129h-2.2v.7h2.2v-.7Z" fill="#2C3639"/><path d="m217.5 119 3.7-5.7h-2.3l3.5-5h-1.9l4.6-5.8 4.5 5.8h-1.9l3.5 5H229l3.6 5.7h-15Z" fill="#49595B"/><path d="M224 119h2.2v3.1H224V119Z" fill="#3E2E25"/><path d="m230.3 117.6-.5.3-2.7-4.4.6-.3 2.6 4.4Z" fill="#2C3639"/><path d="M223.6 119.3H217l3.6-5.7h-2.3l3.5-5h-2l5.3-6.6 5.1 6.6h-1.9l3.5 5h-2.3l3.6 5.7h-6.6v2.5h.6v-1.6h.6v1.6h.6v-1h.7v1h.8v.6H220.4v-.6h3.2v-2.5Zm8.4-.6-3.6-5.7h2.2l-3.4-5h1.8l-4-5-3.9 5h1.9l-3.5 5h2.2l-2.8 4.5h3v.6h-3.4l-.4.6H232Zm-6 3.1v-2.5h-1.8v2.5h1.7Z" fill="#2C3639"/><path d="M222.7 117.5h1.8v.6h-1.8v-.6Z" fill="#2C3639"/><path d="m202.6 116.6 2.7-4.3h-1.7l2.6-3.8h-1.4l3.5-4.4 3.4 4.4h-1.4l2.7 3.8h-1.8l2.8 4.3h-11.4Z" fill="#49595B"/><path d="M207.4 116.6h1.8v2.4h-1.8v-2.4Z" fill="#3E2E25"/><path d="m212.3 115.6-.4.2-2-3.4.4-.2 2 3.4Z" fill="#2C3639"/><path d="M207.2 116.9h-5l2.7-4.4H203l2.7-3.8h-1.5l4-5 4 5h-1.5l2.6 3.8h-1.7l2.7 4.4h-5v1.9h.5v-1.2h.4v1.2h.5v-.8h.4v.8h.7v.4h-7.2v-.4h2.5v-2Zm6.4-.5-2.8-4.3h1.7l-2.6-3.8h1.4l-3-3.8-3 3.8h1.4L204 112h1.7l-2.1 3.4h2.3v.4h-2.6l-.3.5H213.6Zm-4.7 2.4v-2h-1.3v2h1.3Z" fill="#2C3639"/><path d="M206.5 115.5h1.4v.4h-1.4v-.4Z" fill="#2C3639"/><path d="m188.6 127 4.4-7h-2.8l4.3-6h-2.3l5.6-7.1 5.5 7H201l4.3 6.2h-2.8l4.4 7h-18.3Z" fill="#49595B"/><path d="M196.3 127h2.9v3.8h-2.9V127Z" fill="#3E2E25"/><path d="m204.2 125.3-.6.4-3.3-5.4.6-.4 3.3 5.4Z" fill="#2C3639"/><path d="M196 127.4h-8.1l4.4-7h-2.8l4.3-6h-2.4l6.4-8.1 6.3 8h-2.3l4.2 6.1h-2.8l4.4 7h-8v3h.7v-1.9h.7v2h.8v-1.3h.7v1.3h1v.7H192v-.7h4v-3.1Zm10.3-.8-4.5-7h2.8l-4.3-6h2.3l-4.8-6.1-4.9 6.1h2.3l-4.3 6h2.8l-3.5 5.5h3.7v.8h-4.2l-.5.7h17.1Zm-7.5 3.9v-3.1h-2v3h2Z" fill="#2C3639"/><path d="M194.9 125.1h2.2v.8H195v-.8Z" fill="#2C3639"/><path d="m207.8 133.2 5-7.7h-3.2l4.8-6.8h-2.6l6.3-8 6.2 8h-2.6l4.8 6.8h-3.1l5 7.7h-20.6Z" fill="#49595B"/><path d="M216.5 133.2h3.1v4.3h-3.1v-4.3Z" fill="#3E2E25"/><path d="m225.3 131.4-.7.4-3.7-6.1.7-.4 3.7 6Z" fill="#2C3639"/><path d="M216 133.7h-9l5-7.8h-3.2l4.8-6.8H211l7-9.1 7.2 9h-2.7l4.8 6.9h-3.1l5 7.8H220v3.4h.8V135h.8v2.1h.9v-1.4h.8v1.4h1v.8h-12.8v-.8h4.5v-3.4Zm11.6-.9-5-7.7h3.1l-4.8-6.9h2.5l-5.3-6.8-5.4 6.8h2.5l-4.8 6.9h3l-3.8 6h4.1v.9h-4.6l-.6.8h19.1Zm-8.4 4.3v-3.4H217v3.4h2.3Z" fill="#2C3639"/><path d="M214.8 131.2h2.5v.8h-2.5v-.8Z" fill="#2C3639"/><path d="m308.6 114.6 2.4-3.7h-1.5l2.3-3.3h-1.2l3-3.8 3 3.8h-1.3l2.3 3.3h-1.5l2.4 3.7h-9.9Z" fill="#49595B"/><path d="M312.8 114.6h1.5v2h-1.5v-2Z" fill="#3E2E25"/><path d="m317 113.7-.3.2-1.8-3 .4-.1 1.7 3Z" fill="#2C3639"/><path d="M312.6 114.8h-4.3l2.4-3.7H309l2.3-3.3h-1.2l3.4-4.3 3.4 4.3h-1.3l2.3 3.3h-1.5l2.4 3.7h-4.4v1.7h.4v-1h.4v1h.4v-.7h.4v.7h.5v.4h-6.1v-.4h2.1v-1.7Zm5.5-.4-2.3-3.7h1.4l-2.3-3.3h1.3l-2.6-3.3-2.6 3.3h1.2l-2.3 3.3h1.5l-1.9 3h2v.3h-2.2l-.3.4h9.1Zm-4 2v-1.6h-1v1.7h1Z" fill="#2C3639"/><path d="M312 113.6h1.2v.4H312v-.4Z" fill="#2C3639"/><path d="m296.6 123.5 3.8-6H298l3.7-5.2h-2l4.8-6.1 4.8 6.1h-2l3.7 5.3h-2.4l3.8 6h-15.8Z" fill="#49595B"/><path d="M303.3 123.5h2.4v3.3h-2.4v-3.3Z" fill="#3E2E25"/><path d="m310 122.1-.5.3-2.8-4.7.6-.3 2.8 4.7Z" fill="#2C3639"/><path d="M303 123.9h-7l3.8-6h-2.4l3.7-5.3h-2l5.4-7 5.5 7h-2l3.6 5.3h-2.4l3.8 6h-7v2.6h.7V125h.6v1.6h.7v-1h.6v1h.8v.7h-9.8v-.7h3.4V124Zm8.8-.7-3.8-6h2.4l-3.7-5.2h2l-4.2-5.3-4.1 5.3h1.9l-3.7 5.2h2.4l-3 4.7h3.2v.7h-3.6l-.4.6H311.8Zm-6.4 3.3V124h-1.8v2.6h1.8Z" fill="#2C3639"/><path d="M302 122h2v.6h-2v-.7Z" fill="#2C3639"/><path d="m310.7 129 4.3-6.7h-2.7l4.1-5.9h-2.2l5.4-6.9 5.4 7h-2.2l4 5.8h-2.6l4.3 6.7h-17.8Z" fill="#49595B"/><path d="M318.2 129h2.8v3.7h-2.8V129Z" fill="#3E2E25"/><path d="M317.9 129.3H310l4.3-6.7h-2.8l4.1-5.8h-2.2l6.1-7.9 6.1 7.9h-2.2l4 5.8H325l4.2 6.7h-7.8v3h.7v-1.9h.8v1.9h.7v-1.2h.7v1.2h1v.7H314v-.7h3.8v-3Zm10-.7-4.4-6.7h2.7L322 116h2.1l-4.6-5.9-4.6 6h2.1l-4 5.8h2.6l-3.4 5.3h3.6v.7h-4l-.5.7h16.4Zm-7.3 3.7v-3h-2v3h2Z" fill="#2C3639"/><path d="M316.8 127.2h2.2v.7h-2.2v-.7Z" fill="#2C3639"/><path d="m299.5 145.8-4.8-7.6h3l-4.6-6.6h2.5l-6-7.7-6.1 7.7h2.5l-4.7 6.6h3l-4.8 7.6h20Z" fill="#49595B"/><path d="M291 145.8h-3v4.1h3v-4.1Z" fill="#3E2E25"/><path d="m282.5 144 .7.3 3.6-5.9-.7-.4-3.6 6Z" fill="#2C3639"/><path d="M291.5 146.2h8.8l-4.9-7.6h3.1l-4.6-6.6h2.5l-6.9-8.8-6.9 8.8h2.6l-4.6 6.6h3l-4.8 7.6h8.8v3.3h-.8v-2h-.8v2h-.8v-1.3h-.8v1.3h-1.1v.8h12.5v-.8h-4.3v-3.3Zm-11.2-.8 4.8-7.6h-3l4.6-6.6h-2.4l5.2-6.7 5.3 6.7h-2.5l4.6 6.6h-3l3.9 6h-4v.7h4.5l.5.9h-18.5Zm8.1 4.1v-3.3h2.3v3.3h-2.3Z" fill="#2C3639"/><path d="M292.6 143.7h-2.4v.8h2.4v-.8Z" fill="#2C3639"/><path d="m312.8 137.2-3.7-5.8h2.3l-3.5-5h1.9l-4.6-5.9-4.6 5.9h1.9l-3.6 5h2.3l-3.6 5.8h15.2Z" fill="#49595B"/><path d="M306.3 137.2H304v3.1h2.3v-3.1Z" fill="#3E2E25"/><path d="m299.8 135.8.6.3 2.7-4.5-.6-.3-2.7 4.5Z" fill="#2C3639"/><path d="M306.6 137.5h6.7l-3.6-5.8h2.3l-3.5-5h1.9l-5.2-6.7-5.3 6.7h2l-3.6 5h2.4l-3.7 5.8h6.7v2.5h-.6v-1.6h-.6v1.6h-.7v-1h-.6v1h-.8v.6h9.5v-.6h-3.3v-2.5Zm-8.5-.6 3.7-5.8h-2.3l3.5-5h-1.8l4-5.1 4 5h-2l3.6 5.1h-2.3l3 4.5h-3.1v.6h3.4l.4.7h-14.1Zm6.2 3.1v-2.5h1.7v2.5h-1.7Z" fill="#2C3639"/><path d="M307.5 135.6h-1.8v.6h1.8v-.6Z" fill="#2C3639"/><path d="m334.3 154.6-5.9-9.3h3.7l-5.6-8h3l-7.4-9.5-7.4 9.5h3l-5.6 8h3.7l-5.9 9.3h24.4Z" fill="#49595B"/><path d="m313.5 152.3.9.5 4.3-7.2-.8-.5-4.4 7.2Z" fill="#2C3639"/><path d="M324.5 155h10.7l-5.9-9.2h3.8l-5.7-8h3.1l-8.4-10.8-8.4 10.8h3.1l-5.7 8h3.8l-5.9 9.3h10.7v4h-1v-2.5h-1v2.5h-1v-1.6h-1v1.6h-1.2v1h15.2v-1h-5.2v-4Zm-13.7-1 5.9-9.2H313l5.7-8h-3l6.4-8.2 6.4 8.2h-3l5.7 8h-3.7l4.6 7.3h-4.9v1h5.6l.6 1h-22.6Zm10 5.1v-4h2.7v4h-2.8Z" fill="#2C3639"/><path d="m316.2 164.8-6.6-10.4h4.1l-6.3-9h3.4l-8.3-10.6-8.3 10.6h3.4l-6.3 9h4.1l-6.5 10.4h27.3Z" fill="#49595B"/><path d="M304.6 164.8h-4.2v5.6h4.2v-5.6Z" fill="#3E2E25"/><path d="m293 162.3.9.5 4.8-8-1-.6-4.8 8Z" fill="#2C3639"/><path d="M305.2 165.3h12l-6.6-10.3h4.2l-6.3-9h3.4l-9.4-12.1-9.4 12h3.5l-6.4 9.1h4.2l-6.6 10.3h12v4.6h-1V167h-1.1v2.9h-1.1V168h-1.2v1.8H294v1.1H311v-1.1h-6v-4.6Zm-15.3-1 6.5-10.4h-4l6.3-9h-3.3l7.1-9.2 7.2 9.1h-3.4l6.4 9h-4.1l5.2 8.2h-5.5v1.1h6.2l.7 1.1h-25.3Zm11 5.6v-4.6h3.2v4.6H301Z" fill="#2C3639"/><path d="M306.8 162h-3.3v1.1h3.3V162Z" fill="#2C3639"/><path d="M254.6 143.7 249 135h3.4l-5.2-7.5h2.8l-6.9-8.9-6.9 8.9h2.9l-5.3 7.5h3.4l-5.5 8.6h22.8Z" fill="#49595B"/><path d="M245 143.7h-3.5v4.7h3.5v-4.7Z" fill="#3E2E25"/><path d="m235.2 141.6.8.5 4-6.8-.7-.4-4 6.7Z" fill="#2C3639"/><path d="M245.4 144.1h10l-5.5-8.5h3.5l-5.2-7.6h2.9l-7.9-10-7.8 10h2.9l-5.3 7.6h3.5L231 144h10v3.8h-1v-2.3h-.8v2.3h-1v-1.5h-.9v1.5h-1.2v1h14.3v-1h-5v-3.8Zm-12.7-.9 5.5-8.6h-3.4l5.2-7.5h-2.7l6-7.6 5.9 7.6h-2.8l5.3 7.5h-3.4l4.3 6.8H248v.9h5.2l.5 1h-21Zm9.2 4.7v-3.8h2.6v3.8h-2.6Z" fill="#2C3639"/><path d="M246.8 141.4H244v.9h2.8v-1Z" fill="#2C3639"/><path d="m281.1 154.8-6-9.5h3.7L273 137h3.1l-7.6-9.8-7.7 9.8h3.2l-5.9 8.4h3.8l-6 9.5H281Z" fill="#49595B"/><path d="M270.4 154.8h-3.9v5.3h3.9v-5.3Z" fill="#3E2E25"/><path d="m259.6 152.5.9.6 4.5-7.5-1-.6-4.4 7.5Z" fill="#2C3639"/><path d="M271 155.4h11l-6-9.6h3.8l-5.8-8.3h3.2l-8.7-11.2-8.7 11.2h3.2l-5.9 8.3h3.9l-6.1 9.6H266v4.2h-1v-2.7h-1v2.7h-1v-1.7h-1v1.7h-1.4v1h15.8v-1h-5.5v-4.2Zm-14.2-1 6-9.6h-3.7l5.8-8.4h-3l6.6-8.4 6.6 8.4H272l5.8 8.4h-3.7l4.8 7.5h-5.1v1h5.7l.7 1h-23.4Zm10.2 5.2v-4.2h2.9v4.2H267Z" fill="#2C3639"/><path d="M272.4 152.3h-3v1h3v-1Z" fill="#2C3639"/><path d="m9.9 114-3-4.7h1.8l-2.8-4h1.5l-3.7-4.9-3.8 4.8h1.5l-2.8 4.1H.4l-3 4.7H10Z" fill="#49595B"/><path d="M4.6 114H2.7v2.6h2V114Z" fill="#3E2E25"/><path d="m-.7 112.9.4.2 2.2-3.6-.4-.3-2.2 3.7Z" fill="#2C3639"/><path d="M4.9 114.3h5.4l-3-4.7h2l-3-4.1H8L3.7 100l-4.3 5.5H1l-3 4h2l-3 4.8h5.5v2H2V115h-.5v1.3H1v-.8H.4v.8h-.6v.5H7.5v-.5H5v-2Zm-7-.5 3-4.7H-.9l2.8-4.1H.4l3.3-4.2 3.2 4.2H5.4l2.9 4H6.4l2.4 3.7H6.3v.5H9l.3.6H-2.1Zm5 2.5v-2h1.5v2H3Z" fill="#2C3639"/><path d="M5.6 112.7H4v.5h1.5v-.5Z" fill="#2C3639"/><path d="m22.2 112-2.3-3.5h1.5l-2.2-3.1h1.2l-3-3.7-2.8 3.7h1.2l-2.2 3.1H15l-2.2 3.6h9.4Z" fill="#49595B"/><path d="M18.2 112h-1.4v2h1.4v-2Z" fill="#3E2E25"/><path d="m14.2 111.2.3.2 1.7-2.8-.3-.2-1.7 2.8Z" fill="#2C3639"/><path d="M18.4 112.3h4.2l-2.3-3.6h1.4l-2.2-3.1h1.2l-3.2-4.2-3.3 4.2h1.2l-2.1 3h1.4l-2.3 3.7h4.2v1.5h-.4v-1h-.4v1h-.4v-.6H15v.6h-.5v.4h6v-.4h-2v-1.5Zm-5.3-.4 2.3-3.6H14l2.2-3.1H15l2.5-3.2 2.5 3.2h-1.2l2.2 3.1h-1.4l1.8 2.8h-2v.4h2.2l.3.4H13Zm3.9 2v-1.6h1v1.5h-1Z" fill="#2C3639"/><path d="M19 111.1h-1.2v.4H19v-.4Z" fill="#2C3639"/><path d="m33.7 120.6-3.6-5.7h2.3l-3.5-5h1.9l-4.6-5.9-4.6 5.9h1.9l-3.5 5h2.2l-3.6 5.7h15.1Z" fill="#49595B"/><path d="M27.3 120.6H25v3.2h2.3v-3.2Z" fill="#3E2E25"/><path d="m20.8 119.2.6.3L24 115l-.6-.3-2.7 4.5Z" fill="#2C3639"/><path d="M27.6 121h6.7l-3.6-5.8H33l-3.5-5h1.9l-5.2-6.7-5.3 6.7h2l-3.5 5h2.3l-3.7 5.7h6.7v2.6h-.6v-1.6h-.6v1.6h-.6v-1h-.7v1h-.8v.6H31v-.6h-3.3v-2.6Zm-8.4-.7 3.6-5.7h-2.3l3.6-5h-1.9l4-5.1 4 5h-2l3.6 5h-2.3l2.9 4.6h-3v.6h3.4l.4.6h-14Zm6.1 3.2v-2.6H27v2.6h-1.7Z" fill="#2C3639"/><path d="M28.5 119h-1.8v.7h1.8v-.6Z" fill="#2C3639"/><path d="m20.2 125.8-4-6.4h2.5l-4-5.6H17l-5.2-6.6-5.1 6.6h2l-3.8 5.6h2.5l-4 6.4h17Z" fill="#49595B"/><path d="M13 125.8h-2.6v3.5H13v-3.5Z" fill="#3E2E25"/><path d="m5.8 124.3.6.3 3-5-.6-.4-3 5Z" fill="#2C3639"/><path d="M13.4 126.1h7.4l-4-6.4h2.5l-3.9-5.6h2.2l-5.9-7.5-5.8 7.5H8l-3.9 5.6h2.6l-4 6.4H10v2.9h-.7v-1.8h-.7v1.8H8v-1.1h-.7v1h-.9v.8H17v-.7h-3.6V126Zm-9.5-.6 4-6.4H5.5l4-5.7H7.3l4.4-5.6 4.5 5.6H14l4 5.7h-2.6l3.2 5h-3.4v.7H19l.5.7H3.9Zm6.9 3.5V126h1.9v2.9h-2Z" fill="#2C3639"/><path d="M14.4 124h-2v.8h2v-.7Z" fill="#2C3639"/><path d="m46.2 116.5-3.5-5.5H45l-3.4-4.8h1.9l-4.5-5.7-4.4 5.7h1.8l-3.4 4.8h2.2l-3.5 5.5h14.6Z" fill="#49595B"/><path d="M40 116.5h-2.2v3H40v-3Z" fill="#3E2E25"/><path d="m33.8 115.2.5.3 2.6-4.3-.5-.4-2.6 4.4Z" fill="#2C3639"/><path d="M40.3 116.8h6.5l-3.6-5.5h2.3l-3.4-4.8H44l-5-6.5-5.1 6.5h1.8l-3.4 4.8h2.3l-3.5 5.5h6.4v2.5h-.6v-1.6h-.6v1.6h-.6v-1h-.6v1h-.8v.6h9.2v-.6h-3.2v-2.5Zm-8.2-.6 3.6-5.5h-2.2l3.4-4.8H35l3.8-5 3.8 5H41l3.3 4.8h-2.1l2.7 4.3h-3v.6h3.4l.4.6H32Zm6 3v-2.4h1.6v2.5h-1.6Z" fill="#2C3639"/><path d="M41.2 115h-1.8v.6h1.8v-.6Z" fill="#2C3639"/><path d="m60.8 114.2-2.7-4.2h1.7l-2.6-3.7h1.4l-3.4-4.3-3.3 4.3h1.4l-2.6 3.7h1.7l-2.7 4.2h11.1Z" fill="#49595B"/><path d="M56 114.2h-1.6v2.3H56v-2.3Z" fill="#3E2E25"/><path d="m51.3 113.2.4.2 2-3.3-.4-.2-2 3.3Z" fill="#2C3639"/><path d="M56.3 114.5h5l-2.8-4.2h1.7l-2.5-3.7H59l-3.9-5-3.8 5h1.4l-2.6 3.7H52l-2.6 4.2h4.9v1.8h-.5v-1.1h-.4v1.1h-.5v-.7h-.4v.7h-.6v.5h6.9v-.5h-2.4v-1.8Zm-6.2-.5 2.7-4.2H51l2.6-3.7h-1.4l3-3.7 2.9 3.7h-1.4l2.6 3.7h-1.7l2.1 3.3h-2.2v.5H60l.3.4H50.1Zm4.5 2.3v-1.8H56v1.8h-1.3Z" fill="#2C3639"/><path d="M57 113.1h-1.4v.5H57v-.5Z" fill="#2C3639"/><path d="m74.4 124.3-4.3-6.7h2.7l-4.1-6h2.2l-5.4-6.9-5.4 7h2.2l-4.2 5.9h2.7l-4.3 6.7h18Z" fill="#49595B"/><path d="M66.8 124.3h-2.7v3.7h2.7v-3.7Z" fill="#3E2E25"/><path d="m59.2 122.7.6.4 3.2-5.3-.6-.4-3.2 5.3Z" fill="#2C3639"/><path d="M67.2 124.7h7.9l-4.3-6.8h2.7l-4.1-5.9h2.2l-6.1-7.9-6.2 8h2.3l-4.1 5.8h2.7l-4.3 6.8h7.8v3H63v-1.9h-.7v1.9h-.7v-1.2h-.8v1.2H60v.7h11.2v-.7h-3.9v-3Zm-10-.7 4.3-6.8h-2.7l4.2-6h-2.2l4.7-5.9 4.7 6H68l4.1 6h-2.7l3.4 5.2h-3.6v.7h4l.6.8H57.2Zm7.3 3.7v-3h2v3h-2Z" fill="#2C3639"/><path d="M68.3 122.5H66v.7h2.2v-.7Z" fill="#2C3639"/><path d="m58.4 130.5-4.8-7.6h3l-4.6-6.6h2.5l-6-7.8-6.1 7.8h2.5l-4.7 6.6h3l-4.8 7.6h20Z" fill="#49595B"/><path d="M50 130.5h-3.1v4.1h3v-4.1Z" fill="#3E2E25"/><path d="m41.4 128.6.7.4 3.5-5.9-.6-.4-3.6 6Z" fill="#2C3639"/><path d="M50.4 130.9h8.8l-4.8-7.6h3l-4.6-6.6h2.5l-6.9-8.9-6.9 8.9h2.6l-4.7 6.6h3.1l-4.8 7.6h8.8v3.3h-.8v-2h-.8v2H44V133h-.9v1.3h-1v.8h12.5v-.8h-4.3V131Zm-11.2-.9 4.8-7.5h-3l4.6-6.6h-2.4l5.2-6.7 5.3 6.7h-2.5l4.7 6.6h-3l3.8 6h-4v.7h4.5l.5.8H39.2Zm8.1 4.2V131h2.3v3.3h-2.3Z" fill="#2C3639"/><path d="M51.6 128.4H49v.8h2.5v-.8Z" fill="#2C3639"/><path d="m20.4 145.3-5-7.8h3.1l-4.8-6.8h2.6l-6.2-8-6.3 8h2.6l-4.8 6.8h3.1l-5 7.8h20.7Z" fill="#49595B"/><path d="M11.6 145.3H8.5v4.3h3.1v-4.3Z" fill="#3E2E25"/><path d="m2.8 143.4.7.4 3.7-6-.7-.5-3.7 6Z" fill="#2C3639"/><path d="M12 145.7h9.1l-5-7.8h3.2l-4.7-6.8h2.6L10 122 3 131h2.6l-4.8 7H4l-5 7.7h9v3.4h-.8V147h-.8v2.1h-.8v-1.3h-.9v1.3h-1v.9h12.8v-.9h-4.4v-3.4Zm-11.5-.8 5-7.8h-3l4.7-6.8H4.7l5.4-7 5.4 7h-2.6l4.8 6.8h-3l3.8 6h-4.1v1H19l.5.8H.5ZM9 149v-3.4h2.3v3.4H9Z" fill="#2C3639"/><path d="M13.3 143.2h-2.5v.8h2.5v-.8Z" fill="#2C3639"/><path d="m40.9 142-3.8-5.9h2.4l-3.6-5.2h2l-4.8-6-4.8 6h2l-3.7 5.2H29l-3.8 6H41Z" fill="#49595B"/><path d="M34.3 142h-2.4v3.3h2.4V142Z" fill="#3E2E25"/><path d="m27.5 140.6.6.3 2.8-4.6-.6-.3-2.8 4.6Z" fill="#2C3639"/><path d="M34.6 142.4h6.9l-3.8-6h2.4l-3.6-5.2h2l-5.4-6.9-5.4 7h2l-3.7 5.1h2.4l-3.8 6h7v2.6h-.7v-1.6h-.6v1.6h-.7v-1H29v1h-.8v.6H38v-.6h-3.4v-2.6Zm-8.8-.7 3.8-5.9h-2.4l3.7-5.2h-2l4.2-5.2 4 5.2h-1.8l3.6 5.2h-2.4l3 4.7h-3.1v.6h3.5l.4.6H25.8Zm6.4 3.3v-2.6h1.7v2.6h-1.7Z" fill="#2C3639"/><path d="M35.5 140.5h-1.9v.6h1.9v-.6Z" fill="#2C3639"/><path d="m60 156.3-6-9.5h3.8l-5.8-8.4H55l-7.6-9.7-7.7 9.7H43l-5.8 8.4H41l-6.1 9.5H60Z" fill="#49595B"/><path d="M49.4 156.3h-3.8v5.2h3.8v-5.2Z" fill="#3E2E25"/><path d="m38.6 154 1 .5L44 147l-.9-.5-4.5 7.5Z" fill="#2C3639"/><path d="M50 156.8h11l-6-9.5h3.8l-5.8-8.4h3.2l-8.7-11-8.7 11H42l-5.8 8.4H40l-6 9.5h11v4.2h-1v-2.6h-1v2.6h-1v-1.7h-1v1.7h-1.4v1h15.7v-1H50v-4.2Zm-14.2-1 6-9.6h-3.7L44 138h-3.1l6.6-8.4 6.6 8.4H51l5.8 8.3h-3.7l4.7 7.5h-5v1h5.7l.6 1H35.8Zm10.3 5.2v-4.2h2.8v4.2h-2.8Z" fill="#2C3639"/><path d="M51.4 153.7h-3v1h3v-1Z" fill="#2C3639"/><path d="m37.6 164.9-6.8-10.7H35l-6.5-9.3H32l-8.5-11-8.6 11h3.5l-6.5 9.3h4.3L9.4 165h28.2Z" fill="#49595B"/><path d="M25.6 164.9h-4.3v5.8h4.3V165Z" fill="#3E2E25"/><path d="m13.6 162.3 1 .6 5-8.4-1-.6-5 8.4Z" fill="#2C3639"/><path d="M26.2 165.5h12.4l-6.8-10.7h4.3l-6.5-9.3h3.6L23.5 133l-9.7 12.5h3.5l-6.5 9.3h4.3l-6.8 10.7h12.4v4.7h-1.1v-3h-1.1v3h-1.2v-1.9h-1.1v1.9h-1.5v1.1h17.5v-1.1h-6v-4.7Zm-15.8-1.2 6.8-10.6H13l6.5-9.4h-3.4l7.4-9.4 7.3 9.4h-3.4l6.5 9.4h-4.2l5.4 8.3h-5.7v1.2h6.4l.7 1.1H10.4Zm11.5 5.9v-4.7H25v4.7h-3.2Z" fill="#2C3639"/><path d="M27.9 162h-3.4v1.2h3.4V162Z" fill="#2C3639"/><path d="m80.8 144.2-5-8h3.1l-4.9-6.9h2.7l-6.4-8.2-6.4 8.2h2.6l-4.8 7h3.1l-5 7.9h21Z" fill="#49595B"/><path d="M71.9 144.2h-3.2v4.4h3.2v-4.4Z" fill="#3E2E25"/><path d="m63 142.3.6.4 3.8-6.2-.8-.5-3.7 6.3Z" fill="#2C3639"/><path d="M72.3 144.6h9.3l-5-8h3.1l-4.8-6.9h2.6l-7.2-9.2-7.3 9.2h2.7l-4.8 7H64l-5.1 8h9.3v3.4h-.9V146h-.8v2.1h-.9v-1.4h-.9v1.4h-1v.9h13.1v-.9h-4.6v-3.5Zm-11.7-.8 5-8h-3.1l4.9-7h-2.6l5.5-7 5.5 7h-2.6l4.9 7H75l4 6.3h-4.3v.8h4.8l.5.9H60.6ZM69 148v-3.5h2.4v3.5H69Z" fill="#2C3639"/><path d="M73.6 142H71v1h2.6v-1Z" fill="#2C3639"/><path d="M162.7 16.9c.9.7 1.6 1.7 2 2.8v.5l.6-.1a4 4 0 0 1 5.4 3.7v.3l.3.1c1.5.7 2.5 2.3 2.5 4 0 2.4-2 4.3-4.3 4.3h-15.3c-3 0-5.4-2.4-5.4-5.4a5.5 5.5 0 0 1 3.9-5.2l.3-.1v-.4a6 6 0 0 1 10-4.5zm0 0 .3-.4zm-10 4.9v-.1c0-3.4 2.7-6.2 6.1-6.2a6.2 6.2 0 0 1 6 4.8 4 4 0 0 1 6 3.8h-.1m-18-2.3c-1.2.3-2.2 1-3 1.9z" stroke="#000"/></svg>