<?xml version="1.0" encoding="UTF-8" standalone="no"?>
<svg
   xmlns:dc="http://purl.org/dc/elements/1.1/"
   xmlns:cc="http://creativecommons.org/ns#"
   xmlns:rdf="http://www.w3.org/1999/02/22-rdf-syntax-ns#"
   xmlns:svg="http://www.w3.org/2000/svg"
   xmlns="http://www.w3.org/2000/svg"
   xmlns:sodipodi="http://sodipodi.sourceforge.net/DTD/sodipodi-0.dtd"
   xmlns:inkscape="http://www.inkscape.org/namespaces/inkscape"
   width="111.16315mm"
   height="111.1631mm"
   viewBox="0 0 111.16315 111.1631"
   version="1.1"
   id="svg8"
   sodipodi:docname="contact-text-mod-available (another copy).svg"
   inkscape:version="1.0.2 (e86c870879, 2021-01-15)">
  <sodipodi:namedview
     pagecolor="#ffffff"
     bordercolor="#666666"
     borderopacity="1"
     objecttolerance="10"
     gridtolerance="10"
     guidetolerance="10"
     inkscape:pageopacity="0"
     inkscape:pageshadow="2"
     inkscape:window-width="1392"
     inkscape:window-height="1198"
     id="namedview860"
     showgrid="false"
     inkscape:zoom="0.7552839"
     inkscape:cx="147.80832"
     inkscape:cy="366.59797"
     inkscape:window-x="360"
     inkscape:window-y="99"
     inkscape:window-maximized="0"
     inkscape:current-layer="text973"
     inkscape:document-rotation="0"
     fit-margin-top="0"
     fit-margin-left="0"
     fit-margin-right="0"
     fit-margin-bottom="0" />
  <defs
     id="defs2" />
  <metadata
     id="metadata5">
    <rdf:RDF>
      <cc:Work
         rdf:about="">
        <dc:format>image/svg+xml</dc:format>
        <dc:type
           rdf:resource="http://purl.org/dc/dcmitype/StillImage" />
        <dc:title></dc:title>
      </cc:Work>
    </rdf:RDF>
  </metadata>
  <g
     id="layer1"
     transform="translate(-52.460598,-128.34829)"
     style="stroke-width:2.64583;stroke-miterlimit:4;stroke-dasharray:none">
    <g
       id="g908"
       transform="translate(3.0421189,35.429866)">
      <g
         id="g970">
        <circle
           style="fill:none;fill-opacity:1;stroke:#2c3639;stroke-width:2.64583;stroke-miterlimit:4;stroke-dasharray:none;stroke-opacity:1"
           id="path905-3"
           cx="105"
           cy="148.5"
           r="34.132881" />
        <path
           style="color:#000000;font-style:normal;font-variant:normal;font-weight:normal;font-stretch:normal;font-size:medium;line-height:normal;font-family:sans-serif;font-variant-ligatures:normal;font-variant-position:normal;font-variant-caps:normal;font-variant-numeric:normal;font-variant-alternates:normal;font-variant-east-asian:normal;font-feature-settings:normal;font-variation-settings:normal;text-indent:0;text-align:start;text-decoration:none;text-decoration-line:none;text-decoration-style:solid;text-decoration-color:#000000;letter-spacing:normal;word-spacing:normal;text-transform:none;writing-mode:lr-tb;direction:ltr;text-orientation:mixed;dominant-baseline:auto;baseline-shift:baseline;text-anchor:start;white-space:normal;shape-padding:0;shape-margin:0;inline-size:0;clip-rule:nonzero;display:inline;overflow:visible;visibility:visible;opacity:1;isolation:auto;mix-blend-mode:normal;color-interpolation:sRGB;color-interpolation-filters:linearRGB;solid-color:#000000;solid-opacity:1;vector-effect:none;fill:none;fill-opacity:1;fill-rule:nonzero;stroke:none;stroke-width:2.64583;stroke-linecap:butt;stroke-linejoin:miter;stroke-miterlimit:4;stroke-dasharray:none;stroke-dashoffset:0;stroke-opacity:1;color-rendering:auto;image-rendering:auto;shape-rendering:auto;text-rendering:auto;enable-background:accumulate;stop-color:#000000;stop-opacity:1"
           d="m 67.149168,160.03551 c -6.756467,-21.38502 4.713698,-43.89074 25.61577,-50.26091 20.902082,-6.37017 43.329422,5.80484 50.085892,27.18988 6.75647,21.38502 -4.7137,43.89075 -25.61577,50.26091 -20.902061,6.37017 -43.329418,-5.80486 -50.085892,-27.18988 z m 0.325305,-0.0988 c 6.699975,21.20616 28.928306,33.27315 49.655567,26.95626 20.72724,-6.31689 32.09563,-28.62291 25.39568,-49.82907 -6.69997,-21.20619 -28.92831,-33.27315 -49.655548,-26.95625 -20.727269,6.31688 -32.095663,28.62289 -25.395699,49.82906 z"
           id="path14" />
        <g
           id="g965"
           transform="matrix(1.8304265,0,0,1.8304265,81.759461,125.25979)"
           style="fill:#3e2e25;fill-opacity:1;stroke-width:1.44547;stroke-miterlimit:4;stroke-dasharray:none">
          <g
             id="g909"
             style="fill:#3e2e25;fill-opacity:1;stroke-width:1.44547;stroke-miterlimit:4;stroke-dasharray:none">
            <path
               style="fill:#3e2e25;fill-opacity:1;stroke-width:1.44547;stroke-miterlimit:4;stroke-dasharray:none"
               d="m 19.966729,21.412449 c 0,0.698 -0.088,3.142 -2.531,3.142 -1.309,0 -1.92,-2.182 -4.798,-2.182 -1.919,0 -1.571,0.784 -5.1469997,0.784 -3.578,0 -5.672,-1.744 -5.672,-4.361 0,-3.142 1.904,-2.132 3.839,-3.664 2.095,-1.658 1.92,-2.967 4.5379997,-2.967 2.18,0 3.398,2.981 4.885,3.577 2.181,0.872 4.886,3.839 4.886,5.671 z m -15.8609997,-10.241 c 0.057,-1.4910005 -0.574,-2.7540005 -1.778,-2.7540005 -1.263,0 -1.89399999,1.263 -1.89399999,2.2940005 0,1.435 0.80299999,2.811 1.89399999,2.811 1.09,-10e-4 1.72,-0.859 1.778,-2.351 z M 13.167729,9.7944487 c 1.09,0 2.524,-2.0070002 2.581,-3.4990002 0.058,-1.492 -0.114,-3.039 -1.319,-3.039 -1.262,0 -3.04,1.892 -3.04,3.441 0,1.434 0.689,3.0970002 1.778,3.0970002 z m 4.36,3.6710003 c 1.605,0 2.582,-1.778 2.639,-3.27 0.057,-1.4920005 -0.287,-2.7540005 -1.492,-2.7540005 -1.949,0 -2.925,1.894 -2.925,3.4420005 0,1.434 0.688,2.582 1.778,2.582 z m 5.104,-1.204 c -1.95,0 -3.097,2.235 -3.097,3.785 0,1.435 0.917,2.467 2.008,2.467 1.605,0 2.639,-1.605 2.695,-3.097 0.057,-1.493 -0.402,-3.155 -1.606,-3.155 z m -15.4859997,-1.951 c 1.09,0 1.95,-0.8020005 1.95,-2.2950005 0,-2.523 1.1459997,-5.047 -0.057,-5.047 -2.41,0 -3.787,3.498 -3.787,4.531 0,1.435 0.803,2.8110005 1.894,2.8110005 z m -4.659,-2.7510005 c 0.334,0.091 0.646,0.26 0.637,-0.212 -0.015,-0.737 0.061,-1.94 -0.303,-1.971 -0.217,-0.017 -0.824,1.247 -0.998,1.875 -0.162,0.597 0.279,0.204 0.664,0.308 z m 6.793,-5.784 c 0.365,0.111 0.704,0.299 0.7249997,-0.148 0.036,-0.69899999 0.205,-1.82900001 -0.1989997,-1.88700001 -0.238,-0.035 -1.005,1.10800002 -1.243,1.68700001 -0.223,0.551 0.296,0.215 0.717,0.348 z m 6.4659997,0.414 c 0.334,0.091 0.653,0.26 0.638,-0.213 -0.03,-0.849 -0.09,-2.02600001 -0.453,-2.05700001 -0.216,-0.018 -0.703,1.06400002 -0.876,1.69200001 -0.163,0.598 0.307,0.473 0.691,0.578 z m 5.329,3.259 c 0.334,0.092 0.654,0.261 0.637,-0.212 -0.029,-0.849 -0.23,-2.438 -0.594,-2.467 -0.216,-0.018 -0.537,1.245 -0.795,1.928 -0.218,0.578 0.368,0.647 0.752,0.751 z m 4.181,3.558 c -0.216,-0.018 -0.559,0.8650002 -0.732,1.4940005 -0.162,0.597 0.281,0.531 0.666,0.636 0.334,0.091 0.653,0.26 0.637,-0.212 -0.031,-0.849 -0.207,-1.8880005 -0.571,-1.9180005 z"
               id="path907" />
          </g>
          <g
             id="g911"
             style="fill:#3e2e25;fill-opacity:1;stroke-width:1.44547;stroke-miterlimit:4;stroke-dasharray:none" />
          <g
             id="g913"
             style="fill:#3e2e25;fill-opacity:1;stroke-width:1.44547;stroke-miterlimit:4;stroke-dasharray:none" />
          <g
             id="g915"
             style="fill:#3e2e25;fill-opacity:1;stroke-width:1.44547;stroke-miterlimit:4;stroke-dasharray:none" />
          <g
             id="g917"
             style="fill:#3e2e25;fill-opacity:1;stroke-width:1.44547;stroke-miterlimit:4;stroke-dasharray:none" />
          <g
             id="g919"
             style="fill:#3e2e25;fill-opacity:1;stroke-width:1.44547;stroke-miterlimit:4;stroke-dasharray:none" />
          <g
             id="g921"
             style="fill:#3e2e25;fill-opacity:1;stroke-width:1.44547;stroke-miterlimit:4;stroke-dasharray:none" />
          <g
             id="g923"
             style="fill:#3e2e25;fill-opacity:1;stroke-width:1.44547;stroke-miterlimit:4;stroke-dasharray:none" />
          <g
             id="g925"
             style="fill:#3e2e25;fill-opacity:1;stroke-width:1.44547;stroke-miterlimit:4;stroke-dasharray:none" />
          <g
             id="g927"
             style="fill:#3e2e25;fill-opacity:1;stroke-width:1.44547;stroke-miterlimit:4;stroke-dasharray:none" />
          <g
             id="g929"
             style="fill:#3e2e25;fill-opacity:1;stroke-width:1.44547;stroke-miterlimit:4;stroke-dasharray:none" />
          <g
             id="g931"
             style="fill:#3e2e25;fill-opacity:1;stroke-width:1.44547;stroke-miterlimit:4;stroke-dasharray:none" />
          <g
             id="g933"
             style="fill:#3e2e25;fill-opacity:1;stroke-width:1.44547;stroke-miterlimit:4;stroke-dasharray:none" />
          <g
             id="g935"
             style="fill:#3e2e25;fill-opacity:1;stroke-width:1.44547;stroke-miterlimit:4;stroke-dasharray:none" />
          <g
             id="g937"
             style="fill:#3e2e25;fill-opacity:1;stroke-width:1.44547;stroke-miterlimit:4;stroke-dasharray:none" />
          <g
             id="g939"
             style="fill:#3e2e25;fill-opacity:1;stroke-width:1.44547;stroke-miterlimit:4;stroke-dasharray:none" />
        </g>
        <g
           id="g858"
           transform="rotate(48.250547,105.00005,148.49998)">
          <path
             id="path80"
             style="fill:#a27b5c;fill-opacity:1;stroke:#2c3639;stroke-width:10;stroke-miterlimit:4;stroke-dasharray:none;stroke-opacity:1"
             d="M 396.84961,356.1582 A 205.10111,205.10111 0 0 0 191.75,561.25977 205.10111,205.10111 0 0 0 396.84961,766.36133 205.10111,205.10111 0 0 0 601.95117,561.25977 205.10111,205.10111 0 0 0 396.84961,356.1582 Z m -0.16016,76.09571 a 129.00616,129.00616 0 0 1 0.16016,0 A 129.00616,129.00616 0 0 1 525.85742,561.25977 129.00616,129.00616 0 0 1 396.84961,690.26562 129.00616,129.00616 0 0 1 267.84375,561.25977 129.00616,129.00616 0 0 1 396.68945,432.25391 Z"
             transform="scale(0.26458333)" />
          <g
             aria-label="CONTACT ME"
             id="text973"
             style="font-style:normal;font-weight:normal;font-size:12.3472px;line-height:1.25;font-family:sans-serif;letter-spacing:0.132292px;fill:#000000;fill-opacity:1;stroke:none;stroke-width:2.64583;stroke-miterlimit:4;stroke-dasharray:none">
            <path
               d="m 66.119004,155.18635 q 0.197773,0.92994 0.09903,1.77146 -0.110823,0.84408 -0.504283,1.54631 -0.408105,0.69271 -1.111691,1.18317 -0.715662,0.49304 -1.730138,0.70879 -1.026554,0.21832 -1.883482,0.0471 -0.856929,-0.17121 -1.528822,-0.65948 -0.68397,-0.4857 -1.119186,-1.22629 -0.447293,-0.73801 -0.63736,-1.63172 -0.159245,-0.74878 -0.135804,-1.41017 0.01137,-0.65884 0.17689,-1.18635 l 1.8108,-0.44822 0.182361,0.85747 -1.700082,0.79076 -0.08318,-0.86595 0.736703,-0.15668 q -0.257771,0.50927 -0.324111,1.02831 -0.08099,0.50953 0.0346,1.053 0.164382,0.77294 0.686979,1.33083 0.510519,0.56046 1.363076,0.77047 0.84048,0.21258 1.999881,-0.034 1.159402,-0.24657 1.85785,-0.76119 0.69588,-0.52669 0.951355,-1.22482 0.252906,-0.7102 0.08339,-1.50729 -0.128424,-0.60385 -0.407948,-1.08721 -0.294169,-0.49286 -0.712716,-0.85829 l 0.712549,-0.15154 0.261765,0.81534 -1.884248,-0.0158 -0.182361,-0.85747 1.860638,-0.33259 q 0.339144,0.40756 0.637412,1.03841 0.307777,0.6162 0.490139,1.47367 z"
               style="font-style:normal;font-variant:normal;font-weight:600;font-stretch:normal;font-size:12.3472px;font-family:'Source Serif 4';-inkscape-font-specification:'Source Serif 4 Semi-Bold';fill:#ffffff;fill-opacity:1;stroke-width:2.64583;stroke-miterlimit:4;stroke-dasharray:none"
               id="path856" />
            <path
               d="m 65.40823,147.42188 q -3.82e-4,0.81491 -0.272362,1.54327 -0.284327,0.72835 -0.827871,1.29607 -0.543543,0.56771 -1.333914,0.88837 -0.802713,0.3083 -1.852225,0.30781 -1.024817,-4.8e-4 -1.827234,-0.32188 -0.802418,-0.32141 -1.357781,-0.87729 -0.555358,-0.56823 -0.839002,-1.29685 -0.283644,-0.72862 -0.283262,-1.54353 3.82e-4,-0.81492 0.272362,-1.54328 0.27198,-0.72835 0.815518,-1.28372 0.543543,-0.56772 1.346261,-0.88837 0.790372,-0.32066 1.839883,-0.32016 1.024818,4.8e-4 1.827235,0.32188 0.802418,0.3214 1.370123,0.88964 0.555363,0.55588 0.839007,1.2845 0.283644,0.72862 0.283262,1.54354 z m -0.753179,-3.6e-4 q 2.72e-4,-0.58032 -0.27117,-1.00025 -0.271435,-0.43228 -0.752849,-0.70414 -0.49376,-0.27187 -1.135751,-0.40799 -0.641991,-0.13612 -1.382823,-0.13647 -0.740832,-3.5e-4 -1.38295,0.13517 -0.642118,0.13552 -1.123786,0.40693 -0.494015,0.27141 -0.765856,0.70343 -0.271835,0.41968 -0.272108,1 -2.72e-4,0.58032 0.271164,1.0126 0.271442,0.41993 0.752849,0.70414 0.481414,0.27186 1.123404,0.40798 0.641997,0.12378 1.382829,0.12413 0.740832,3.4e-4 1.395291,-0.12282 0.642118,-0.13552 1.136133,-0.40693 0.481674,-0.28376 0.75351,-0.70343 0.271841,-0.43203 0.272113,-1.01235 z"
               style="font-style:normal;font-variant:normal;font-weight:600;font-stretch:normal;font-size:12.3472px;font-family:'Source Serif 4';-inkscape-font-specification:'Source Serif 4 Semi-Bold';fill:#ffffff;fill-opacity:1;stroke-width:2.64583;stroke-miterlimit:4;stroke-dasharray:none"
               id="path858" />
            <path
               d="m 65.300627,142.50528 -0.697393,-0.16278 0.206904,-1.32104 0.09261,-0.3968 0.432966,-1.42043 0.697394,0.16278 z m 0.25258,-1.08217 -7.659304,-1.7877 0.143128,-0.61323 3.995195,0.75499 3.7034,0.86438 z m -6.323948,-5.82494 -0.697394,-0.16278 0.729677,-3.12625 0.697393,0.16278 -0.198484,1.28497 -0.08981,0.38477 z m 7.60768,0.5965 -7.754616,3.02077 -0.06174,0.26453 -0.672161,0.10937 -0.320322,1.15511 -0.697393,-0.16278 0.589354,-2.52504 6.858787,-2.6593 0.03046,0.0325 -2.492989,-0.45509 -3.486968,-0.81387 0.182419,-0.78156 8.044074,1.87752 z"
               style="font-style:normal;font-variant:normal;font-weight:600;font-stretch:normal;font-size:12.3472px;font-family:'Source Serif 4';-inkscape-font-specification:'Source Serif 4 Semi-Bold';fill:#ffffff;fill-opacity:1;stroke-width:2.64583;stroke-miterlimit:4;stroke-dasharray:none"
               id="path860" />
            <path
               d="m 68.308877,131.95265 -0.648959,-0.30283 0.65712,-1.64179 0.26106,-0.55945 0.851807,-1.59182 0.648959,0.30283 z m 0.52212,-1.1189 q -0.565415,-0.27747 -1.124862,-0.53853 -0.570636,-0.26628 -1.141272,-0.53256 -0.581825,-0.2715 -1.152461,-0.53779 l -0.581825,-0.2715 q -0.570636,-0.26628 -1.141272,-0.53256 -0.570636,-0.26628 -1.141273,-0.53256 -0.570636,-0.26628 -1.146493,-0.52138 l 0.725747,-1.55526 q 0.554226,0.27225 1.119641,0.54972 0.570636,0.26628 1.141272,0.53256 0.570636,0.26628 1.152461,0.53779 l 0.570636,0.26628 q 0.570636,0.26628 1.152461,0.53778 0.570636,0.26628 1.141272,0.53256 0.575857,0.2551 1.151715,0.51019 z m -6.547698,0.13292 -2.072193,-1.04872 3.101392,-6.64623 2.134849,0.91445 -0.365484,0.78323 -2.135586,-0.53329 0.802604,-0.34761 -2.631485,5.63922 -0.249157,-0.83841 1.780544,1.29414 z"
               style="font-style:normal;font-variant:normal;font-weight:600;font-stretch:normal;font-size:12.3472px;font-family:'Source Serif 4';-inkscape-font-specification:'Source Serif 4 Semi-Bold';fill:#ffffff;fill-opacity:1;stroke-width:2.64583;stroke-miterlimit:4;stroke-dasharray:none"
               id="path862" />
            <path
               d="m 70.56696,127.05193 -0.576629,-0.42468 0.674636,-1.08259 0.153763,-0.20878 0.877638,-1.02509 0.576629,0.42468 z m 0.417357,-0.56669 -4.925198,-7.20026 0.776137,-1.05384 8.359238,2.53752 -1.047053,1.42169 -7.058061,-2.28461 0.0073,-0.01 0.850367,0.94831 3.520503,4.98497 z m -1.168307,-2.5779 -0.586571,-0.432 2.247868,-3.05215 0.586571,0.432 z m 3.50404,-0.59356 -0.576629,-0.42467 0.860306,-1.31388 0.388069,-0.52692 1.014137,-1.23125 0.576629,0.42468 z"
               style="font-style:normal;font-variant:normal;font-weight:600;font-stretch:normal;font-size:12.3472px;font-family:'Source Serif 4';-inkscape-font-specification:'Source Serif 4 Semi-Bold';fill:#ffffff;fill-opacity:1;stroke-width:2.64583;stroke-miterlimit:4;stroke-dasharray:none"
               id="path864" />
            <path
               d="m 79.432188,117.18376 q -0.715479,0.62609 -1.498337,0.95018 -0.790989,0.3148 -1.595927,0.31367 -0.803777,-0.0186 -1.575044,-0.3937 -0.779398,-0.38444 -1.462403,-1.16496 -0.691136,-0.78982 -0.959477,-1.62146 -0.268341,-0.83165 -0.16964,-1.65633 0.09057,-0.83398 0.524956,-1.57505 0.426254,-0.75036 1.113857,-1.35206 0.5761,-0.50412 1.164984,-0.80614 0.580752,-0.31131 1.12202,-0.42399 l 1.274242,1.36242 -0.659727,0.5773 -1.519315,-1.09875 0.715483,-0.49483 0.495992,0.56681 q -0.570309,0.0232 -1.055821,0.2184 -0.48435,0.17773 -0.902487,0.54362 -0.594684,0.52039 -0.826964,1.24867 -0.240411,0.719 -0.0081,1.56574 0.224204,0.83746 1.004781,1.72948 0.780577,0.89203 1.570427,1.25091 0.799143,0.35076 1.533224,0.23342 0.743373,-0.12547 1.35664,-0.66212 0.464597,-0.40655 0.750316,-0.88627 0.28688,-0.49715 0.401853,-1.04074 l 0.479729,0.54822 -0.584226,0.62608 -0.904887,-1.65282 0.659727,-0.5773 1.197585,1.46232 q -0.190473,0.49482 -0.595826,1.06282 -0.387931,0.56916 -1.047658,1.14646 z"
               style="font-style:normal;font-variant:normal;font-weight:600;font-stretch:normal;font-size:12.3472px;font-family:'Source Serif 4';-inkscape-font-specification:'Source Serif 4 Semi-Bold';fill:#ffffff;fill-opacity:1;stroke-width:2.64583;stroke-miterlimit:4;stroke-dasharray:none"
               id="path866" />
            <path
               d="m 83.554592,113.8999 -0.34688,-0.62652 1.496851,-0.94166 0.540103,-0.29903 1.624948,-0.78676 0.34688,0.62652 z m 1.080207,-0.59807 q -0.294213,-0.55689 -0.593247,-1.09699 -0.305016,-0.55091 -0.610031,-1.10181 -0.310995,-0.56171 -0.61601,-1.11261 l -0.310996,-0.56171 q -0.305015,-0.55091 -0.61003,-1.10181 -0.305015,-0.55091 -0.61003,-1.10181 -0.305015,-0.55091 -0.620832,-1.09584 l 1.501487,-0.83131 q 0.288233,0.54608 0.582446,1.10297 0.305015,0.55091 0.61003,1.10181 0.305015,0.55091 0.616011,1.11261 l 0.305015,0.55091 q 0.305015,0.55091 0.61601,1.11261 0.305015,0.55091 0.61003,1.10181 0.315818,0.54493 0.631635,1.08985 z m -5.374492,-3.74231 -1.059557,-2.06667 6.41643,-3.55253 1.189182,1.99491 -0.756145,0.41865 -1.413891,-1.68702 0.853603,0.19072 -5.444244,3.01426 0.291417,-0.82467 0.67935,2.09371 z"
               style="font-style:normal;font-variant:normal;font-weight:600;font-stretch:normal;font-size:12.3472px;font-family:'Source Serif 4';-inkscape-font-specification:'Source Serif 4 Semi-Bold';fill:#ffffff;fill-opacity:1;stroke-width:2.64583;stroke-miterlimit:4;stroke-dasharray:none"
               id="path868" />
            <path
               d="m 91.990104,109.63077 -0.125829,-0.705 1.331862,-0.33805 0.388964,-0.0694 1.305798,-0.13272 0.125828,0.705 z m -1.205295,-7.38552 -0.125828,-0.705 1.543699,-0.27552 0.143184,0.80224 -0.182326,0.0325 z m 2.347875,7.18159 -1.440519,-8.07099 0.595601,-0.10631 0.91388,3.92569 0.733276,4.10843 z m 3.281881,-0.58575 -4.004894,-6.69772 -0.316033,0.0564 -0.15837,-0.88732 1.580165,-0.28203 3.543507,5.93972 -0.145861,0.026 0.237163,-1.62266 0.923359,-5.15665 0.765772,-0.13668 0.15837,0.88733 -0.388964,0.0694 -0.230654,1.65913 -1.076236,5.98664 z m 2.297317,-0.41003 -0.125828,-0.705 1.404792,-0.35106 0.838704,-0.1497 1.5489,-0.17611 0.12583,0.705 z m 1.04534,-0.18657 q -0.104996,-0.65855 -0.219977,-1.30277 -0.102826,-0.64639 -0.215638,-1.27846 -0.114981,-0.64422 -0.227792,-1.27628 l -0.740647,-4.22 1.628786,-0.290704 q 0.108476,0.607754 0.206956,1.229834 0.11065,0.61991 0.22129,1.23982 0.11064,0.61991 0.22345,1.25198 l 0.11281,0.63207 q 0.10848,0.60775 0.22129,1.23982 0.11064,0.61991 0.22128,1.23982 0.1228,0.61774 0.23344,1.23765 z m -0.26415,-7.45316 -0.143184,-0.802242 1.713872,-0.305894 0.12583,0.704996 -1.514191,0.37059 z"
               style="font-style:normal;font-variant:normal;font-weight:600;font-stretch:normal;font-size:12.3472px;font-family:'Source Serif 4';-inkscape-font-specification:'Source Serif 4 Semi-Bold';fill:#ffffff;fill-opacity:1;stroke-width:2.64583;stroke-miterlimit:4;stroke-dasharray:none"
               id="path870" />
            <path
               d="m 103.56717,107.93281 0.0538,-0.71411 1.63265,0.024 0.18468,0.0139 -0.0613,0.81261 z m 1.09579,0.0826 q 0.0597,-0.627 0.10606,-1.24261 0.0473,-0.62793 0.0947,-1.25585 0.0483,-0.64024 0.0956,-1.26817 l 0.0483,-0.64023 q 0.0473,-0.62793 0.0947,-1.25585 0.0473,-0.62793 0.0947,-1.25585 0.0473,-0.62793 0.0824,-1.256784 l 1.7114,0.129022 q -0.0464,0.615612 -0.10606,1.242612 -0.0473,0.62792 -0.0947,1.25585 -0.0473,0.62792 -0.0956,1.26816 l -0.0436,0.57868 q -0.0492,0.65255 -0.0975,1.29279 -0.0483,0.64023 -0.0965,1.28047 -0.035,0.62885 -0.0824,1.25678 z m 0.88648,0.0668 0.0557,-0.73874 4.13692,0.31188 -0.5259,0.40612 0.55296,-1.91471 0.86186,0.065 -0.26744,2.23341 z m 0.25081,-3.81959 0.0548,-0.72642 2.9057,0.21906 -0.0548,0.72642 z m 2.55685,1.23287 -0.12601,-1.28487 0.0223,-0.29549 0.31444,-1.21452 0.72642,0.0548 -0.2107,2.79489 z m -4.22744,-5.02395 0.0538,-0.714115 1.8099,0.136448 -0.0613,0.812607 -0.18468,-0.0139 z m 5.67631,1.90142 -0.26429,-1.91441 0.47139,0.4813 -3.90299,-0.29425 0.0557,-0.738732 4.56785,0.344362 -0.0658,2.1867 z"
               style="font-style:normal;font-variant:normal;font-weight:600;font-stretch:normal;font-size:12.3472px;font-family:'Source Serif 4';-inkscape-font-specification:'Source Serif 4 Semi-Bold';fill:#ffffff;fill-opacity:1;stroke-width:2.64583;stroke-miterlimit:4;stroke-dasharray:none"
               id="path872" />
          </g>
        </g>
      </g>
    </g>
  </g>
</svg>
