<svg width="94" height="95" viewBox="0 0 94 95" fill="none" xmlns="http://www.w3.org/2000/svg">
<path d="M47 0.5C40.8279 0.5 34.7162 1.71569 29.0139 4.07766C23.3116 6.43963 18.1303 9.90163 13.766 14.266C9.40163 18.6303 5.93963 23.8116 3.57766 29.5139C1.21569 35.2162 7.48249e-08 41.3279 0 47.5C-4.40146e-07 53.6721 1.21569 59.7838 3.57766 65.4861C5.93963 71.1884 9.40163 76.3697 13.766 80.734C18.1303 85.0984 23.3116 88.5604 29.0139 90.9223C34.7162 93.2843 40.8279 94.5 47 94.5C53.1721 94.5 59.2838 93.2843 64.9861 90.9223C70.6884 88.5604 75.8697 85.0984 80.234 80.734C84.5984 76.3697 88.0604 71.1884 90.4223 65.4861C92.7843 59.7838 94 53.6721 94 47.5C94 35.0348 89.0482 23.0802 80.234 14.266C71.4198 5.45177 59.4652 0.5 47 0.5ZM47 22.2888C53.6862 22.2891 60.0984 24.9454 64.8261 29.6734C69.5538 34.4014 72.2097 40.8138 72.2095 47.5C72.2097 54.1862 69.5538 60.5986 64.8261 65.3266C60.0984 70.0546 53.6862 72.7109 47 72.7112C43.6892 72.7113 40.4108 72.0593 37.352 70.7923C34.2932 69.5253 31.5139 67.6683 29.1728 65.3272C26.8317 62.9861 24.9746 60.2068 23.7077 57.148C22.4407 54.0892 21.7887 50.8108 21.7888 47.5C21.7887 44.1892 22.4407 40.9108 23.7077 37.852C24.9747 34.7932 26.8317 32.0139 29.1728 29.6728C31.5139 27.3317 34.2932 25.4746 37.352 24.2077C40.4108 22.9407 43.6892 22.2887 47 22.2888Z" fill="#2C3639"/>
<path d="M44.7141 3.21919C32.9701 3.82548 21.948 9.07219 14.0725 17.8051C6.19693 26.538 2.11308 38.0418 2.71932 49.7857C3.3255 61.5297 8.57211 72.5519 17.305 80.4275C26.0378 88.3031 37.5415 92.387 49.2855 91.7809C55.1005 91.4808 60.7995 90.0382 66.0571 87.5355C71.3146 85.0329 76.0278 81.5192 79.9274 77.1951C83.827 72.871 86.8367 67.8211 88.7847 62.3339C90.7327 56.8466 91.5808 51.0294 91.2807 45.2143C90.9805 39.3993 89.5379 33.7003 87.0353 28.4427C84.5326 23.1852 81.019 18.4721 76.6949 14.5725C72.3707 10.6729 67.3209 7.66313 61.8336 5.71513C56.3463 3.76713 50.5291 2.91901 44.7141 3.21919ZM45.5275 19.6498C45.539 19.6492 45.5506 19.6486 45.5621 19.648C49.2197 19.4592 52.8787 19.9926 56.3301 21.2179C59.7816 22.4431 62.9579 24.3362 65.6778 26.789C68.3976 29.2418 70.6077 32.2063 72.1819 35.5132C73.756 38.8201 74.6634 42.4047 74.8522 46.0623C75.041 49.7199 74.5075 53.3789 73.2822 56.8304C72.0569 60.2818 70.1638 63.4581 67.711 66.1779C65.2581 68.8977 62.2936 71.1078 58.9867 72.6819C55.6797 74.256 52.0951 75.1633 48.4375 75.3521C41.0506 75.7333 33.8149 73.1646 28.322 68.211C22.8292 63.2573 19.5291 56.3245 19.1478 48.9377C18.7668 41.5569 21.331 34.3267 26.2772 28.8352C31.2235 23.3437 38.1472 20.04 45.5275 19.6498L45.5275 19.6498Z" fill="#A27B5C"/>
<path d="M54.1027 62.4196C53.7995 63.4185 52.6118 66.8779 49.1156 65.8165C47.2423 65.2478 47.3158 61.8597 43.1971 60.6093C40.4508 59.7756 40.6082 61.0488 35.4906 59.4952C30.3701 57.9407 28.1311 54.5351 29.268 50.7899C30.6331 46.2934 32.9191 48.566 36.3539 47.2142C40.0724 45.7516 40.3906 43.8023 44.1373 44.9397C47.2571 45.8868 47.705 50.6821 49.5742 52.1811C52.3166 54.3765 54.8987 59.7978 54.1027 62.4196ZM35.8532 40.8728C36.5826 38.7638 36.2283 36.6821 34.5052 36.159C32.6977 35.6103 31.246 37.1437 30.7981 38.6191C30.1746 40.6728 30.726 42.9908 32.2873 43.4648C33.8477 43.937 35.122 42.9828 35.8532 40.8728ZM49.4202 42.8392C50.9801 43.3127 53.9042 41.0635 54.634 38.953C55.3652 36.843 55.7912 34.5544 54.0667 34.0309C52.2606 33.4826 48.8941 35.4178 48.2212 37.6346C47.5981 39.6868 47.8617 42.366 49.4202 42.8392ZM54.0649 49.987C56.3618 50.6843 58.5325 48.5642 59.2622 46.4538C59.992 44.3433 60.048 42.3878 58.3235 41.8643C55.5343 41.0176 53.3147 43.304 52.6421 45.5194C52.0191 47.5716 52.505 49.5134 54.0649 49.987ZM61.8923 50.4814C59.1017 49.6342 56.4892 52.3344 55.8158 54.5526C55.1924 56.6062 56.0563 58.4815 57.6177 58.9555C59.9146 59.6528 62.0916 57.8051 62.82 55.6942C63.5502 53.5824 63.6154 51.0045 61.8923 50.4814ZM40.5779 40.9613C42.1378 41.4349 43.7169 40.6608 44.3656 38.5241C45.4617 34.9134 48.1983 31.7992 46.4767 31.2766C43.0277 30.2295 39.5374 34.6373 39.0886 36.1156C38.4652 38.1693 39.0165 40.4873 40.5779 40.9613ZM35.1055 35.0002C35.544 35.2756 35.9171 35.653 36.1092 34.9736C36.408 33.9123 37.0394 32.2237 36.5319 32.0212C36.2288 31.9026 34.8109 33.4478 34.2891 34.271C33.7979 35.055 34.5997 34.6841 35.1055 35.0002ZM47.3399 29.674C47.814 29.9914 48.2175 30.4077 48.4418 29.7771C48.797 28.7924 49.5297 27.2487 48.9768 26.9902C48.6514 26.8367 47.0571 28.1392 46.465 28.8644C45.9065 29.5561 46.7952 29.3007 47.3399 29.674ZM56.4136 33.0756C56.852 33.351 57.2351 33.7314 57.4192 33.048C57.7451 31.8199 58.1706 30.1095 57.6645 29.9074C57.3632 29.7878 56.1962 31.1247 55.6758 31.9482C55.1827 32.7332 55.9096 32.7585 56.4136 33.0756ZM62.624 40.0548C63.0621 40.3316 63.4466 40.7125 63.6278 40.0282C63.9551 38.8006 64.3578 36.4392 63.8495 36.2396C63.5482 36.12 62.5401 37.788 61.8741 38.6533C61.311 39.3858 62.1197 39.7391 62.624 40.0548ZM67.0617 46.9631C66.7604 46.8435 65.8859 47.9582 65.3651 48.7832C64.8739 49.5672 65.5365 49.6652 66.0419 49.9827C66.4803 50.258 66.8634 50.6385 67.0456 49.9561C67.3701 48.7276 67.5696 47.1642 67.0617 46.9631Z" fill="#3E2E25"/>
<path d="M15.9417 56.0124C16.061 56.4329 16.1253 56.8446 16.1347 57.2475C16.1423 57.6438 16.1135 57.9736 16.0484 58.2367L14.5648 58.6261L14.3611 57.9079L15.7635 57.1955L15.8245 57.8913L15.2907 58.0427C15.3576 57.835 15.4093 57.635 15.4457 57.4429C15.4737 57.2462 15.4838 57.0476 15.4759 56.8471C15.4679 56.6466 15.4318 56.4331 15.3676 56.2067C15.2795 55.8961 15.1649 55.6525 15.0239 55.4757C14.8764 55.3009 14.7113 55.1869 14.5284 55.1339C14.3391 55.0827 14.1474 55.0847 13.9533 55.1398C13.7657 55.193 13.6182 55.2768 13.5108 55.3912C13.4016 55.499 13.3214 55.6476 13.2702 55.8369C13.2107 56.0216 13.1692 56.2571 13.1456 56.5434L13.0963 56.9244C13.0522 57.3355 12.9831 57.7081 12.8892 58.0424C12.7888 58.3785 12.6386 58.6623 12.4386 58.8938C12.2321 59.1271 11.9445 59.2961 11.5757 59.4007C11.1874 59.5109 10.8281 59.501 10.4976 59.371C10.1671 59.2411 9.88019 59.0183 9.63688 58.7028C9.39358 58.3873 9.20768 58.0031 9.07919 57.5502C8.96722 57.1555 8.91247 56.79 8.91495 56.4538C8.91743 56.1175 8.95352 55.8381 9.02323 55.6156L10.4221 55.2606L10.6204 55.9594L9.26656 56.6581L9.23184 55.9444L9.76565 55.7929C9.66166 56.0671 9.59558 56.3271 9.56741 56.5728C9.53923 56.8185 9.56552 57.0837 9.64629 57.3683C9.71604 57.6142 9.81776 57.8126 9.95143 57.9634C10.0786 58.1161 10.2272 58.2208 10.3971 58.2774C10.5669 58.3341 10.7457 58.3358 10.9334 58.2826C11.1145 58.2312 11.2588 58.1484 11.3662 58.034C11.4736 57.9197 11.557 57.7702 11.6165 57.5855C11.6676 57.3962 11.7078 57.1681 11.7369 56.9011L11.7806 56.5007C11.8286 56.0537 11.9028 55.6621 12.0032 55.326C12.1036 54.9899 12.2556 54.7126 12.4593 54.494C12.6629 54.2754 12.9427 54.1157 13.2986 54.0147C13.6933 53.9028 14.0665 53.9122 14.4182 54.0432C14.7617 54.1694 15.0652 54.4014 15.3288 54.7391C15.5905 55.0704 15.7948 55.4948 15.9417 56.0124L15.9417 56.0124Z" fill="white"/>
<path d="M14.7688 51.8157C14.4265 51.8388 14.0878 51.865 13.7528 51.8942C13.4111 51.924 13.0694 51.9538 12.7277 51.9836C12.3792 52.0139 12.0342 52.044 11.6925 52.0738L11.1698 52.1194C10.8281 52.1492 10.4864 52.179 10.1447 52.2088C9.80298 52.2386 9.46126 52.2684 9.11955 52.2982C8.77783 52.328 8.43641 52.3612 8.09528 52.3977L7.97607 51.0308C8.31108 51.0016 8.64974 50.9754 8.99204 50.9524C9.33376 50.9226 9.67547 50.8928 10.0172 50.863C10.3589 50.8332 10.704 50.8031 11.0524 50.7726L11.7258 50.7139C12.0139 50.6888 12.3187 50.6622 12.6404 50.6341C12.962 50.6061 13.2936 50.5771 13.6353 50.5473C13.9698 50.5114 14.3078 50.4786 14.6496 50.4488L14.7688 51.8157ZM14.8468 52.7102L14.2639 52.7611L14.0651 51.4113L14.0239 50.9389L13.993 49.6555L14.5759 49.6046L14.8468 52.7102ZM8.75623 53.2414L8.1733 53.2923L7.89893 50.1465L8.48185 50.0956L8.67709 51.4052L8.71829 51.8776L8.75623 53.2414ZM14.5084 48.8307L13.9255 48.8816L13.7399 47.6825L13.6996 47.2202L13.6695 45.9469L14.2525 45.896L14.5084 48.8307ZM8.40296 49.1911L7.82004 49.242L7.59914 46.7093L8.18206 46.6584L8.36503 47.8273L8.40576 48.1782L8.40296 49.1911ZM12.9254 51.1157L12.0528 51.2121L12.0265 50.9106L11.0833 50.3143L7.70345 47.9052L7.62982 47.061L12.9254 51.1157ZM14.4164 47.7755L11.0824 50.0714L10.0421 49.2912L14.2849 46.2679L14.4164 47.7755Z" fill="white"/>
<path d="M14.9057 42.291C14.8476 42.7311 14.7192 43.1381 14.5206 43.5122C14.3153 43.8853 14.0456 44.2059 13.7117 44.4738C13.3779 44.7418 12.9861 44.9343 12.5364 45.0513C12.081 45.1607 11.5699 45.178 11.0032 45.1032C10.4497 45.0301 9.96776 44.8782 9.55725 44.6476C9.14674 44.417 8.81127 44.1319 8.55086 43.7922C8.29132 43.4458 8.11085 43.0658 8.00945 42.6522C7.90805 42.2385 7.88643 41.8116 7.94458 41.3716C8.00271 40.9315 8.1311 40.5244 8.32975 40.1504C8.52841 39.7764 8.79424 39.4587 9.12726 39.1974C9.46116 38.9295 9.85626 38.7374 10.3126 38.6213C10.7622 38.5043 11.2704 38.4832 11.8372 38.5581C12.3906 38.6312 12.8726 38.783 13.2831 39.0136C13.6936 39.2442 14.0319 39.5332 14.2982 39.8804C14.5586 40.2201 14.7395 40.5968 14.8409 41.0104C14.9423 41.4241 14.9639 41.8509 14.9057 42.291L14.9057 42.291ZM14.2956 42.2104C14.337 41.897 14.2994 41.6173 14.1826 41.3712C14.0668 41.1185 13.8885 40.9016 13.6478 40.7205C13.4005 40.5386 13.1083 40.3881 12.7713 40.2689C12.4342 40.1498 12.0657 40.0638 11.6656 40.011C11.2655 39.9581 10.8873 39.9455 10.5309 39.973C10.1745 40.0006 9.85654 40.0705 9.57711 40.1829C9.29103 40.2943 9.05922 40.4571 8.88171 40.6711C8.70507 40.8784 8.59605 41.1387 8.55466 41.4521C8.51326 41.7655 8.5505 42.0486 8.66637 42.3013C8.78311 42.5474 8.96138 42.7643 9.20117 42.952C9.44184 43.1331 9.73069 43.2832 10.0677 43.4023C10.4056 43.5148 10.7746 43.5974 11.1747 43.6503C11.5748 43.7031 11.9559 43.7195 12.3181 43.6995C12.6745 43.672 12.9958 43.6025 13.2819 43.491C13.5622 43.372 13.7906 43.2088 13.9673 43.0015C14.1448 42.7875 14.2543 42.5238 14.2957 42.2104L14.2956 42.2104Z" fill="white"/>
<path d="M15.3433 38.2963L14.7961 38.0891L15.1065 37.0415L15.2244 36.7302L15.7286 35.6266L16.2759 35.8339L15.3433 38.2963ZM15.6648 37.4472L9.65498 35.1711L9.83721 34.6899L12.9912 35.7334L15.8971 36.8339L15.6648 37.4472ZM11.173 32.0458L10.6258 31.8385L11.5548 29.3855L12.102 29.5928L11.8023 30.612L11.688 30.9139L11.173 32.0458ZM17.2699 33.3515L10.6629 34.9595L10.5843 35.167L10.0281 35.1829L9.64373 36.0838L9.09652 35.8765L9.84688 33.8952L15.6893 32.4832L15.7105 32.5128L13.7406 31.8746L11.0046 30.8384L11.2368 30.2252L17.5486 32.6156L17.2699 33.3515Z" fill="white"/>
<path d="M18.9246 30.077L18.4326 29.7603L19.1457 28.5036L19.4187 28.0794L20.2839 26.8846L20.7759 27.2014L18.9246 30.077ZM19.4707 29.2287C19.1859 29.0374 18.9022 28.8507 18.6194 28.6687C18.331 28.483 18.0426 28.2974 17.7542 28.1117C17.4601 27.9224 17.1689 27.7349 16.8804 27.5492L16.4393 27.2652C16.1509 27.0796 15.8625 26.8939 15.5741 26.7082C15.2857 26.5226 14.9973 26.3369 14.7088 26.1512C14.4204 25.9655 14.1302 25.7827 13.8381 25.6027L14.5972 24.4236C14.8763 24.6113 15.1583 24.8008 15.443 24.9921C15.7315 25.1778 16.0199 25.3634 16.3083 25.5491C16.5967 25.7348 16.8879 25.9223 17.182 26.1116L17.6146 26.3901C17.9031 26.5758 18.1943 26.7633 18.4884 26.9526C18.7768 27.1382 19.0652 27.3239 19.3536 27.5096C19.6457 27.6896 19.9377 27.8696 20.2298 28.0496L19.4707 29.2287ZM14.155 28.6143L12.593 27.5368L15.8368 22.498L17.4644 23.4737L17.0821 24.0675L15.4119 23.4003L16.1001 23.2074L13.3478 27.4827L13.2385 26.7764L14.5373 28.0205L14.155 28.6143Z" fill="white"/>
<path d="M21.2831 26.3475L20.8663 25.9369L21.538 25.14L21.6867 24.989L22.5159 24.2623L22.9327 24.6729L21.2831 26.3475ZM21.6867 25.9378L18.5425 19.5409L19.293 18.7791L25.7577 21.8053L24.7452 22.833L19.3034 20.163L19.3105 20.1561L19.8877 21.0221L22.154 25.4638L21.6867 25.9378ZM21.0422 23.7169L20.6182 23.2992L22.7917 21.0927L23.2158 21.5105L21.0422 23.7169ZM23.9452 23.6452L23.5283 23.2345L24.3772 22.2722L24.7524 21.8913L25.716 21.0137L26.1329 21.4244L23.9452 23.6452Z" fill="white"/>
<path d="M27.3533 20.6078C27.1768 20.3136 26.9992 20.0241 26.8206 19.7392C26.6384 19.4485 26.4562 19.1579 26.274 18.8673C26.0882 18.571 25.9043 18.2775 25.7221 17.9869L25.4434 17.5424C25.2612 17.2518 25.079 16.9612 24.8968 16.6705C24.7146 16.3799 24.5324 16.0893 24.3502 15.7987C24.168 15.508 23.9829 15.2192 23.7951 14.9322L24.9575 14.2034C25.1362 14.4883 25.3137 14.7779 25.4902 15.0721C25.6724 15.3627 25.8546 15.6533 26.0368 15.9439C26.219 16.2345 26.403 16.528 26.5888 16.8243L26.9478 17.397C27.1014 17.642 27.264 17.9013 27.4355 18.1749C27.607 18.4484 27.7838 18.7305 27.966 19.0211C28.1503 19.3024 28.3336 19.5884 28.5158 19.879L27.3533 20.6078ZM26.5926 21.0848L26.2818 20.589L27.3928 19.7972L27.7946 19.5453L28.923 18.9331L29.2338 19.4289L26.5926 21.0848ZM23.3451 15.9049L23.0343 15.4091L25.7097 13.7318L26.0205 14.2276L24.9437 14.9979L24.5419 15.2498L23.3451 15.9049ZM29.892 19.0163L29.5812 18.5205L30.564 17.8091L30.9572 17.5625L32.0771 16.9557L32.3879 17.4515L29.892 19.0163ZM26.7898 13.7453L26.479 13.2495L28.633 11.8991L28.9438 12.3948L27.9866 13.0902L27.6928 13.2863L26.7898 13.7453ZM27.1367 18.6479L26.6534 17.915L26.9098 17.7542L27.0109 16.643L27.6159 12.5368L28.3339 12.0866L27.1367 18.6479ZM30.7895 18.4537L27.2268 16.5316L27.4475 15.2501L32.0716 17.6498L30.7895 18.4537Z" fill="white"/>
<path d="M34.0572 16.8834L33.8625 16.3316L35.1961 15.7754L35.6717 15.6075L37.0876 15.1935L37.2823 15.7453L34.0572 16.8834ZM35.0085 16.5476C34.9007 16.2219 34.7909 15.9005 34.679 15.5834C34.5648 15.2599 34.4507 14.9365 34.3366 14.613C34.2202 14.2832 34.1049 13.9566 33.9908 13.6331L33.8162 13.1384C33.702 12.8149 33.5879 12.4915 33.4738 12.168C33.3596 11.8446 33.2455 11.5211 33.1313 11.1976C33.0172 10.8742 32.8999 10.5518 32.7794 10.2306L34.1018 9.76394C34.2073 10.0833 34.314 10.4058 34.4218 10.7315C34.536 11.055 34.6501 11.3785 34.7643 11.7019C34.8784 12.0254 34.9937 12.352 35.11 12.6818L35.2813 13.167C35.3954 13.4905 35.5107 13.8171 35.627 14.1469C35.7412 14.4704 35.8553 14.7939 35.9695 15.1173C36.09 15.4385 36.2104 15.7598 36.3309 16.081L35.0085 16.5476ZM31.1843 12.8047L30.6103 10.996L36.2614 9.00186L36.9496 10.7703L36.2836 11.0053L35.3727 9.45454L36.0347 9.72376L31.2398 11.4158L31.5863 10.7907L31.8503 12.5697L31.1843 12.8047Z" fill="white"/>
<path d="M42.6371 14.8785C42.1093 14.9395 41.6341 14.8997 41.2116 14.759C40.7958 14.6175 40.4548 14.3624 40.1887 13.9937C39.9294 13.6242 39.7645 13.1355 39.6942 12.5275L39.5644 11.4051C39.525 11.0643 39.486 10.7269 39.4473 10.3929C39.4087 10.0588 39.3663 9.7218 39.3202 9.38183C39.2808 9.04109 39.2385 8.70408 39.1932 8.37079L40.5862 8.20969C40.6248 8.54375 40.6605 8.88153 40.6932 9.22305C40.7319 9.55711 40.7709 9.89451 40.8103 10.2353C40.8489 10.5693 40.8879 10.9067 40.9273 11.2475L41.0328 12.1594C41.0915 12.6672 41.2021 13.0674 41.3646 13.3601C41.5271 13.6527 41.7367 13.8553 41.9935 13.9678C42.2502 14.0803 42.549 14.1168 42.8897 14.0774C43.2305 14.038 43.5126 13.9309 43.7361 13.7561C43.9663 13.5805 44.1267 13.3284 44.2174 12.9997C44.3072 12.6643 44.3224 12.2394 44.2629 11.7249L43.8132 7.83649L44.4646 7.76115L44.9248 11.7398C44.9989 12.3812 44.9568 12.9243 44.7984 13.3692C44.6399 13.8141 44.3756 14.1629 44.0053 14.4156C43.641 14.6608 43.1849 14.8151 42.6371 14.8785ZM38.4085 9.05057L38.3413 8.46932L41.5583 8.09726L41.6255 8.67853L40.2919 8.91401L39.7106 8.98125L38.4085 9.05057ZM42.8782 8.53365L42.811 7.95239L45.3566 7.658L45.4238 8.23926L44.3283 8.42688L44.0477 8.45937L42.8782 8.53365Z" fill="white"/>
<path d="M46.9717 15.899C46.6899 15.8794 46.4615 15.8198 46.2863 15.72C46.1045 15.6198 46.0038 15.4679 45.9842 15.2642C46.0245 15.0715 46.1083 14.9324 46.2356 14.8468C46.3557 14.7675 46.5063 14.7341 46.6875 14.7467C46.8552 14.7583 46.9943 14.7949 47.1046 14.8565C47.215 14.918 47.3357 15.0242 47.4668 15.1748L47.7586 15.4883L47.6177 15.4786L47.7385 15.4869L47.6666 15.5021C47.709 15.377 47.7418 15.2444 47.765 15.1044C47.7944 14.9716 47.8185 14.8183 47.8373 14.6443C47.8556 14.477 47.8729 14.2759 47.8892 14.0411C47.9122 13.8067 47.9353 13.5218 47.9585 13.1863C47.9715 12.9984 47.9848 12.8072 47.9983 12.6126C48.0118 12.4181 48.0259 12.2134 48.0408 11.9987C48.0562 11.7773 48.0729 11.5357 48.091 11.2741C48.1092 11.0124 48.1263 10.7169 48.1423 10.3877C48.1651 10.0589 48.1873 9.68965 48.209 9.2799C48.2378 8.86389 48.2703 8.39422 48.3066 7.87087L49.6753 7.9657C49.6333 8.47517 49.5946 8.98487 49.5593 9.4948C49.5244 9.99802 49.4891 10.508 49.4533 11.0246L49.3341 12.7456C49.308 13.1214 49.2721 13.4459 49.2262 13.7191C49.1874 13.9861 49.1343 14.2184 49.0667 14.4159C48.9995 14.6068 48.9206 14.7732 48.8298 14.9153C48.7391 15.0573 48.632 15.1915 48.5087 15.3178C48.305 15.5329 48.0751 15.6889 47.8189 15.7857C47.5628 15.8826 47.2804 15.9203 46.9717 15.8989L46.9717 15.899ZM47.2194 8.38211L47.2599 7.79837L50.5711 8.02776L50.5306 8.61151L49.1664 8.59789L48.6732 8.5637L47.2194 8.38211Z" fill="white"/>
<path d="M55.3206 16.0039C54.9021 15.8775 54.5207 15.7096 54.1764 15.5002C53.8386 15.2928 53.5765 15.0907 53.39 14.8939L53.8624 13.4346L54.5771 13.6505L54.4205 15.2156L53.8017 14.8917L53.9621 14.3606C54.1009 14.529 54.2414 14.6803 54.3835 14.8146C54.534 14.9443 54.6959 15.0599 54.8689 15.1614C55.0421 15.2629 55.2413 15.3476 55.4666 15.4157C55.7757 15.509 56.0426 15.544 56.2675 15.5206C56.4943 15.4907 56.6793 15.4131 56.8226 15.2878C56.9678 15.156 57.0696 14.9935 57.1279 14.8004C57.1843 14.6137 57.1933 14.4443 57.1549 14.2922C57.123 14.142 57.0412 13.9943 56.9094 13.8491C56.786 13.6994 56.6101 13.5374 56.3817 13.363L56.0874 13.1161C55.7652 12.8571 55.4887 12.598 55.2579 12.3386C55.029 12.0727 54.8711 11.7932 54.784 11.4999C54.6989 11.2002 54.7118 10.8668 54.8226 10.4998C54.9393 10.1135 55.1415 9.81627 55.4292 9.60808C55.7169 9.3999 56.0592 9.27847 56.4561 9.24379C56.853 9.20912 57.2768 9.25984 57.7275 9.39595C58.1203 9.51459 58.4575 9.66565 58.7394 9.84914C59.0212 10.0326 59.237 10.2137 59.3867 10.3925L58.931 11.7618L58.2356 11.5518L58.3776 10.035L58.9973 10.3908L58.8369 10.9219C58.6621 10.6865 58.4789 10.4906 58.2872 10.3343C58.0955 10.1781 57.858 10.0572 57.5747 9.97159C57.3301 9.89769 57.1082 9.87634 56.9091 9.90753C56.7119 9.93227 56.5436 10.0009 56.4043 10.1134C56.2649 10.2258 56.167 10.3754 56.1106 10.5622C56.0562 10.7424 56.0481 10.9086 56.0864 11.0607C56.1248 11.2128 56.2057 11.3637 56.3291 11.5134C56.4609 11.6586 56.6313 11.8155 56.8404 11.984L57.1539 12.2368C57.5045 12.5183 57.7942 12.792 58.023 13.0579C58.2519 13.3237 58.4034 13.6013 58.4776 13.8907C58.5518 14.1801 58.5354 14.5019 58.4284 14.856C58.3098 15.2487 58.1005 15.5579 57.8005 15.7834C57.5089 16.0045 57.1498 16.1349 56.7233 16.1747C56.3032 16.2164 55.8356 16.1595 55.3205 16.0039L55.3206 16.0039Z" fill="white"/>
<path d="M58.6415 16.966L58.8904 16.4364L60.1573 16.9426L60.5864 17.1443L61.7848 17.7966L61.5359 18.3262L58.6415 16.966ZM59.4541 17.3479C59.6061 17.0403 59.7536 16.7343 59.8966 16.43C60.0425 16.1195 60.1884 15.8091 60.3343 15.4987C60.483 15.1821 60.6304 14.8686 60.7763 14.5582L60.9994 14.0834C61.1453 13.773 61.2912 13.4625 61.4371 13.1521C61.5829 12.8417 61.7288 12.5312 61.8747 12.2208C62.0206 11.9103 62.1635 11.5985 62.3033 11.2852L63.5724 11.8816C63.4233 12.1831 63.2728 12.4876 63.1208 12.7952C62.9749 13.1056 62.829 13.4161 62.6831 13.7265C62.5372 14.037 62.3899 14.3504 62.2411 14.667L62.0223 15.1326C61.8764 15.4431 61.7291 15.7566 61.5803 16.0731C61.4345 16.3835 61.2886 16.694 61.1427 17.0044C61.0029 17.3177 60.8631 17.631 60.7233 17.9443L59.4541 17.3479ZM61.2418 11.4328L61.4907 10.9033L64.3851 12.2635L64.1362 12.7931L62.8692 12.2868L62.4401 12.0852L61.2418 11.4328Z" fill="white"/>
<path d="M62.3068 18.6549L62.6351 18.1706L63.7827 18.8509L63.908 18.9358L63.5344 19.487L62.3068 18.6549ZM63.05 19.1587C63.248 18.8785 63.4414 18.5992 63.6301 18.3209C63.8225 18.0369 64.0149 17.753 64.2074 17.469C64.4036 17.1795 64.5979 16.8928 64.7904 16.6089L65.0847 16.1746C65.2771 15.8907 65.4696 15.6067 65.662 15.3228C65.8545 15.0388 66.0469 14.7549 66.2393 14.4709C66.4318 14.187 66.6214 13.9012 66.8083 13.6135L67.9691 14.4002C67.7805 14.6786 67.5871 14.9578 67.3891 15.238C67.1967 15.522 67.0042 15.8059 66.8118 16.0898C66.6194 16.3738 66.425 16.6605 66.2288 16.95L65.9628 17.3425C65.7628 17.6376 65.5647 17.9299 65.3685 18.2194C65.1723 18.5089 64.976 18.7984 64.7798 19.0879C64.5929 19.3757 64.4033 19.6615 64.2109 19.9454L63.05 19.1587ZM63.6513 19.5662L63.9909 19.0651L66.797 20.9669L66.2591 21.0411L67.429 19.9084L68.0136 20.3046L66.9167 21.7793L63.6513 19.5662ZM65.3809 16.9603L65.7148 16.4676L67.6857 17.8034L67.3518 18.2961L65.3809 16.9603ZM66.6926 18.8731L67.1253 17.911L67.2611 17.7106L67.9775 16.9774L68.4702 17.3113L67.1853 19.207L66.6926 18.8731ZM65.7368 13.5941L66.0651 13.1097L67.2927 13.9417L66.9191 14.4929L66.7939 14.408L65.7368 13.5941ZM68.9883 17.2481L69.5787 15.7836L69.7174 16.3163L67.07 14.522L67.4096 14.021L70.5079 16.1209L69.5729 17.6443L68.9883 17.2481ZM64.783 23.0753C64.5102 22.8904 64.3477 22.6747 64.2954 22.428C64.2395 22.187 64.2907 21.9495 64.4492 21.7157C64.5699 21.5375 64.7137 21.4034 64.8804 21.3132C65.0489 21.2325 65.2311 21.1853 65.4271 21.1719C65.6249 21.1678 65.8233 21.1926 66.0225 21.2464L66.1187 21.1044L66.5029 21.3648C66.2342 21.3776 66.0062 21.4262 65.819 21.5107C65.6281 21.6006 65.476 21.7291 65.3628 21.8961C65.2609 22.0465 65.2262 22.1936 65.2587 22.3375C65.2874 22.4869 65.3714 22.6088 65.5105 22.7031C65.5885 22.756 65.6637 22.7948 65.7363 22.8196C65.8051 22.85 65.8777 22.8748 65.954 22.894L65.8332 23.324C65.6782 23.3489 65.5131 23.3467 65.338 23.3174C65.1628 23.2881 64.9778 23.2074 64.783 23.0753L64.783 23.0753Z" fill="white"/>
<path d="M69.3467 23.9281L69.7039 23.6163L76.7222 22.7115L76.2721 22.917L76.5001 22.7179L75.4772 21.6691L74.4487 20.4912L74.999 20.6L73.5082 21.3928L73.0437 20.8608L74.5254 19.6742L77.8896 23.527L77.5325 23.8389L70.5076 24.736L70.95 24.5372L70.7296 24.7296L71.8057 25.8393L72.9868 27.1919L72.4431 27.0908L73.9349 26.2837L74.3994 26.8157L72.9166 28.0166L69.3467 23.9281Z" fill="white"/>
<path d="M73.3887 28.6485L73.8929 28.3516L74.6382 29.4582L74.715 29.5886L74.1412 29.9265L73.3887 28.6485ZM73.8443 29.4222C74.1433 29.254 74.4377 29.0845 74.7275 28.9139C75.023 28.7399 75.3186 28.5658 75.6142 28.3918C75.9156 28.2143 76.214 28.0386 76.5096 27.8645L76.9617 27.5983C77.2572 27.4243 77.5528 27.2502 77.8484 27.0762C78.144 26.9021 78.4395 26.7281 78.7351 26.554C79.0307 26.38 79.3246 26.203 79.6167 26.0232L80.3283 27.2316C80.0385 27.4022 79.7441 27.5717 79.4451 27.7399C79.1496 27.914 78.854 28.088 78.5584 28.2621C78.2628 28.4361 77.9643 28.6119 77.663 28.7893L77.2544 29.0299C76.9472 29.2108 76.6429 29.3899 76.3416 29.5674C76.0402 29.7449 75.7388 29.9223 75.4375 30.0998C75.1453 30.2796 74.8514 30.4566 74.5559 30.6306L73.8443 29.4222ZM74.2129 30.0482L74.7345 29.741L76.4545 32.662L75.9368 32.4986L77.4793 31.9766L77.8376 32.5852L76.2144 33.4473L74.2129 30.0482ZM76.8925 28.4352L77.4054 28.1332L78.6135 30.1848L78.1006 30.4868L76.8925 28.4352ZM77.2577 30.7256L78.061 30.0418L78.2696 29.919L79.2311 29.5635L79.5331 30.0765L77.5597 31.2385L77.2577 30.7256ZM78.6569 25.5464L79.1611 25.2495L79.9136 26.5274L79.3399 26.8653L79.2631 26.7349L78.6569 25.5464ZM80.0284 30.2415L81.1895 29.1714L81.0864 29.7121L79.4637 26.9563L79.9853 26.6491L81.8845 29.8744L80.3867 30.85L80.0284 30.2415Z" fill="white"/>
<path d="M77.6831 36.4418L78.253 36.3094L78.5851 37.3819L78.6582 37.6963L78.8217 38.7562L78.2517 38.8887L77.6831 36.4418ZM83.6586 35.1464L84.2286 35.0139L84.5186 36.2619L83.87 36.4126L83.8358 36.2652L83.6586 35.1464ZM77.8977 37.3656L84.4227 35.8492L84.5346 36.3307L81.3699 37.2422L78.0485 38.0141L77.8977 37.3656ZM78.5143 40.0188L83.8104 36.4679L83.751 36.2124L84.4683 36.0457L84.7652 37.3232L80.0682 40.4655L80.0407 40.3476L81.3748 40.4726L85.6216 41.0082L85.7654 41.6273L85.0481 41.794L84.975 41.4796L83.6114 41.3614L78.681 40.7361L78.5143 40.0188ZM78.946 41.876L79.5159 41.7436L79.8617 42.875L80.0193 43.5531L80.2284 44.8095L79.6585 44.942L78.946 41.876ZM79.1424 42.7211C79.4976 42.6455 79.8489 42.5673 80.1961 42.4866C80.5448 42.4125 80.8895 42.3358 81.2302 42.2566C81.5774 42.1759 81.9213 42.096 82.262 42.0168L85.6742 41.2342L85.9802 42.551C85.6526 42.6271 85.321 42.7007 84.9854 42.7718C84.6513 42.8495 84.3172 42.9271 83.9831 43.0048C83.649 43.0824 83.3116 43.1608 82.9709 43.24L82.4599 43.3588C82.1324 43.4349 81.7983 43.5125 81.4576 43.5917C81.1235 43.6693 80.7894 43.747 80.4553 43.8246C80.1227 43.9088 79.7893 43.9897 79.4552 44.0674L79.1424 42.7211ZM85.2129 42.1907L85.8614 42.04L86.1834 43.4256L85.6135 43.558L85.2471 42.3382L85.2129 42.1907Z" fill="white"/>
<path d="M79.6114 45.7924L80.1964 45.8047L80.2543 46.8957L80.2474 47.2285L80.1413 48.4372L79.5563 48.4249L79.6114 45.7924ZM79.5924 46.7002L86.0174 46.8348L86.0066 47.3492L82.6852 47.4209L79.5786 47.3558L79.5924 46.7002ZM85.6322 50.2879L86.2172 50.3002L86.1622 52.9226L85.5772 52.9104L85.5184 51.8496L85.5251 51.5268L85.6322 50.2879ZM79.4497 51.0968L85.1383 47.3714L85.143 47.1495L85.6618 46.9485L85.7227 45.9709L86.3077 45.9832L86.2633 48.1013L81.2298 51.3863L81.1999 51.3655L83.2697 51.308L86.1948 51.3693L86.181 52.025L79.4332 51.8835L79.4497 51.0968Z" fill="white"/>
<path d="M79.43 52.794L79.9982 52.9335L79.8289 53.9619L79.7784 54.1677L79.4379 55.2164L78.8697 55.0769L79.43 52.794ZM79.2929 53.3525L85.2677 57.2393L85.0129 58.2779L77.9102 58.9863L78.2541 57.5852L84.2957 57.0943L84.293 57.104L83.3539 56.6554L79.1338 53.9992L79.2929 53.3525ZM80.9831 54.9308L81.5612 55.0727L80.823 58.0806L80.2449 57.9387L80.9831 54.9308ZM78.5258 56.478L79.0941 56.6175L78.8573 57.8787L78.7298 58.3979L78.351 59.645L77.7828 59.5056L78.5258 56.478ZM75.9053 57.632C75.9838 57.3119 76.1297 57.0846 76.3428 56.9499C76.5494 56.8136 76.7898 56.7791 77.0642 56.8464C77.2732 56.8977 77.4489 56.9859 77.5914 57.1109C77.7257 57.2408 77.8332 57.3953 77.9139 57.5744C77.9865 57.7584 78.0322 57.9532 78.051 58.1586L78.2176 58.1995L78.107 58.6502C78.0015 58.4027 77.8767 58.2059 77.7325 58.0597C77.5818 57.9119 77.4084 57.8139 77.2125 57.7659C77.0361 57.7226 76.8861 57.7412 76.7625 57.8216C76.6323 57.9005 76.5472 58.0216 76.5072 58.1849C76.4847 58.2763 76.4744 58.3604 76.4764 58.437C76.4718 58.5121 76.4739 58.5887 76.4825 58.667L76.0374 58.7032C75.9601 58.5665 75.9048 58.4109 75.8714 58.2365C75.838 58.0621 75.8494 57.8606 75.9055 57.632L75.9053 57.632Z" fill="white"/>
</svg>
