<svg width="54" height="43" fill="none" xmlns="http://www.w3.org/2000/svg"><path d="m18.3 20-4.2-6.7h2.7l-4.1-5.9h2.2L9.5.6 4.1 7.4h2.2l-4 5.9h2.6L.7 20h17.6Z" fill="#49595B"/><path d="M10.9 20H8v3.7H11V20Z" fill="#3E2E25"/><path d="m3.3 18.4.6.3L7 13.5l-.6-.4-3.1 5.3Z" fill="#2C3639"/><path d="M11.2 20.3H19l-4.3-6.6h2.7l-4-5.9h2.2L9.5 0 3.4 7.8h2.3l-4.1 5.9h2.7L0 20.3h7.8v3H7v-1.9h-.7v1.9h-.8V22H5v1.2H4v.7H15v-.7h-3.8v-3Zm-9.9-.7L5.6 13H2.9L7 7.1H5l4.6-6 4.6 6H12l4 5.8h-2.6l3.4 5.3h-3.6v.7h4l.5.7H1.3Zm7.2 3.7v-3h2v3h-2Z" fill="#2C3639"/><path d="M12.3 18.2H10v.7h2.2v-.7Z" fill="#2C3639"/><path d="m36 17.2-3.3-5h2l-3-4.5h1.6l-4-5.3-4.1 5.3h1.6l-3 4.4h2l-3.3 5.1H36Z" fill="#49595B"/><path d="M30.3 17.2h-2.1V20h2v-2.8Z" fill="#3E2E25"/><path d="m24.5 16 .5.3 2.4-4-.5-.3-2.4 4Z" fill="#2C3639"/><path d="M30.5 17.5h6l-3.3-5.1h2l-3-4.5h1.7L29.2 2l-4.6 6h1.7l-3.1 4.4h2l-3.2 5h6v2.3h-.6v-1.4h-.6v1.4h-.5v-.9h-.6v1H25v.5h8.5v-.6h-3v-2.2Zm-7.5-.6 3.2-5h-2l3.2-4.5h-1.7l3.5-4.5 3.6 4.5H31l3.1 4.4h-2l2.6 4H32v.6h3l.4.5H23Zm5.5 2.8v-2.2H30v2.2h-1.5Z" fill="#2C3639"/><path d="M31.3 15.8h-1.6v.6h1.6v-.6Z" fill="#2C3639"/><path d="m52.4 29.4-5.2-8.2h3.3l-5-7.1h2.7l-6.6-8.4-6.5 8.4h2.6l-5 7.1H36l-5.2 8.2h21.6Z" fill="#49595B"/><path d="M43.3 29.4H40v4.5h3.3v-4.5Z" fill="#3E2E25"/><path d="m34 27.4.8.5 3.8-6.4-.7-.5-3.9 6.4Z" fill="#2C3639"/><path d="M43.7 29.8h9.5L48 21.7h3.3l-5-7.2H49L41.6 5l-7.4 9.5h2.7l-5 7.2h3.3L30 29.8h9.5v3.7h-.9v-2.3h-.8v2.3h-1V32H36v1.5H35v.8h13.4v-.8h-4.6v-3.7ZM31.6 29l5.2-8.2h-3.2l5-7.1H36l5.6-7.3 5.7 7.3h-2.7l5 7.1h-3.2l4 6.4h-4.3v.9h5l.5.9h-20Zm8.8 4.5v-3.7h2.4v3.7h-2.4Z" fill="#2C3639"/><path d="M45 27.2h-2.6v.9H45v-.9Z" fill="#2C3639"/><path d="m33.1 36.8-5.8-9.1h3.6l-5.6-8h3L21 10.3l-7.3 9.4h3l-5.6 8h3.6L9 36.8H33Z" fill="#49595B"/><path d="M22.9 36.8H19v5H23v-5Z" fill="#3E2E25"/><path d="m12.5 34.6.8.5 4.3-7.2-.8-.5-4.3 7.2Z" fill="#2C3639"/><path d="M23.3 37.3H34l-5.8-9.1h3.7l-5.6-8h3L21 9.4 12.7 20h3l-5.6 8h3.7L8 37.4h10.7v4h-1v-2.5h-1v2.5h-1v-1.6h-1v1.6h-1.3v1h15.2v-1h-5.3v-4Zm-13.5-1 5.8-9.1H12l5.6-8h-3L21 11l6.3 8h-3l5.7 8h-3.6l4.6 7.3h-5v1h5.6l.6 1H9.7Zm9.8 5v-4h2.8v4h-2.8Z" fill="#2C3639"/><path d="M24.8 34.4h-3v1h3v-1Z" fill="#2C3639"/></svg>