<svg version="1.1" id="Layer_1" xmlns="http://www.w3.org/2000/svg" x="0" y="0" viewBox="0 0 512 512" style="enable-background:new 0 0 512 512" xml:space="preserve"><style>@media (prefers-color-scheme:dark){path{fill:#fff}}</style><path d="M507.7 191.6a92.7 92.7 0 0 1-19.1-13l-.2-1.9c-1-11.9-2.9-33.8-49.6-53.7-1.3-2.7-3-5.3-5.4-7.4-5.6-5.2-13-6.7-20.7-4.2a28 28 0 0 0-13.4 8.6c-8.1.6-14.2 2.8-19.6 4.8-5.6 2-10.5 3.9-17.5 3.9-3.4 0-7.6-2.8-12.4-6A55.2 55.2 0 0 0 318 111c-16 0-27 5.2-37.7 10.2a78.8 78.8 0 0 1-58 7.6c-35.1-7-91.3 6.3-112 18.7-19 11.4-40.3 45.7-63.4 102a1051.3 1051.3 0 0 0-28.1 77.7L2.4 343.4a8.3 8.3 0 0 0-1.8 9l17.7 44.2a8.3 8.3 0 0 0 7.7 5.2h26.5a8.3 8.3 0 1 0 0-16.6H52v-10.5c26.4-3.2 59.2-20.7 77-37 2.2-2.2 4.5-4.1 6.8-6a90 90 0 0 0 8.7 13 57.4 57.4 0 0 1 14.7 40c0 5.2 4 7.3 7.3 9a299.6 299.6 0 0 0 15.2 7.3c1.1.5 2.3.8 3.5.8h44.3a8.3 8.3 0 1 0 0-16.6h-17c2.4-8.5 7.8-18.5 13.4-29 3.4-6.4 7-13.1 10.2-20 2.7 7.7 6.4 15.9 11.6 24.3v18a23.2 23.2 0 0 0 23.4 23.3h46.8a8.3 8.3 0 1 0 0-16.6h-8.4l7.3-65.8c3-1.6 7.3-4 12.3-7.1 4.5 14 19.6 51.5 55.9 62.2l34.1 25.7c1.4 1 3.2 1.6 5 1.6h53a8.3 8.3 0 1 0 0-16.6h-8.8c-6.8 0-15.2-16.6-23.3-32.6a289.3 289.3 0 0 0-30.3-50.5c0-11.8-.7-44-8-59.5h35c2.6 0 5-1.2 6.6-3.2 4.5-5.7 14.2-5.7 20-5.7 21.1 0 30-3.7 31.6-4.5 2-1 3.6-2.7 4.3-5l7.4-22.8c1.2-3.8-.4-7.9-4-9.8zM211.2 348.4a144 144 0 0 0-15.7 36.8H187l-11.4-5.5a73.6 73.6 0 0 0-18-45.1 60.1 60.1 0 0 1-8.2-12.8c25.2-15.8 49.1-17.3 79.8-17.3-2.4 14.5-10.3 29.4-18 43.9zm219 11.7c4.8 9.5 9.2 18.2 13.9 25.1h-17.3l-33.1-24.9a8.3 8.3 0 0 0-2.8-1.3c-35.6-9.6-47.1-55.4-47.2-55.9l-.4-1.2a121.2 121.2 0 0 0 33.7-43 67 67 0 0 0 16-6.7c3.4 10.2 5.3 33.5 5.1 52.8 0 2 .6 3.8 1.9 5.3 13 15.8 22.2 33.9 30.2 49.8zm59.6-145c-3.7.9-10.5 2-21.5 2-6.9 0-20.5 0-30.1 8.9H406a13 13 0 0 1-12.7-10.4l-3.6-18.3a8.3 8.3 0 0 0-16.3 3.2l3.7 18.4a29.4 29.4 0 0 0 10.2 17c-3.5 3-10.9 6.3-18.2 8a8.3 8.3 0 0 0-5.9 5c-15.6 38.7-57.1 57.2-57.5 57.4a8.3 8.3 0 0 0-5 6.7l-8 72.2h-21.7a6.8 6.8 0 0 1-6.8-6.8v-20.3c0-1.5-.5-3-1.3-4.4-35.2-55.5-2.3-94.5-.8-96.2a8.3 8.3 0 0 0-12.4-11 86.4 86.4 0 0 0-18.3 41.7c-.7-.2-1.3-.3-2-.3-41.6 0-74 2.7-111.8 37.6-21.6 19.8-55.7 33.2-74 33.2a8.3 8.3 0 0 0-8.3 8.3v18.2h-3.8l-13.6-34L32 337.6c1-1 1.6-2.2 2-3.5 12.7-41.3 52.6-152.9 84.8-172.2 16.1-9.7 68.3-23 100.3-16.7 34.7 7 52.5-1.5 68.3-8.9 9.8-4.6 18.4-8.6 30.6-8.6 9.2 0 15.8 4.3 22.7 9 6.5 4.2 13.2 8.7 21.6 8.7 10 0 17-2.6 23.2-5 3.2-1.1 6.1-2.2 9.3-2.9 1 6.8 4.2 12 4.7 12.9a8.3 8.3 0 0 0 11.5 2.5c3.8-2.5 5-7.6 2.5-11.4-1.1-1.9-3.1-6.6-2-9.6.8-2.4 4-3.8 6.4-4.6 2.5-.9 3.5-.2 4.3.5 2.2 2 3 6 2.8 7.3a8.3 8.3 0 0 0 14.9 6.6c30.2 14.6 31.3 27.6 32 36.5l.5 4c.4 2.4 1.3 8.7 21.4 20.7l-4 12.3z" style="fill:#000"/></svg>