<svg width="14" height="14" fill="none" xmlns="http://www.w3.org/2000/svg"><path d="M10.74 1.51a6.54 6.54 0 1 0-8.37 10.06 6.54 6.54 0 0 0 8.37-10.06ZM8.06.67c-.19.66-.8 1.13-1.5 1.13S5.23 1.33 5.04.67a6.07 6.07 0 0 1 3.01 0ZM2.51 2.02H4a.5.5 0 0 1 .17.96.24.24 0 0 0-.16.22v2.46c-.67.01-1.35.02-1.46 0a.24.24 0 0 0-.3.24v.46a.35.35 0 0 1-.7 0V3.12c.29-.4.61-.77.97-1.1ZM1.07 3.95v2.41c0 .38.25.7.59.8v.62c-.37.22-.65.58-.76 1a6.04 6.04 0 0 1 .17-4.83Zm.27 5.71v-.49a1.13 1.13 0 0 1 2.25 0v.18c0 .13.11.24.24.24h.62a.69.69 0 0 1 .14 1.36.24.24 0 0 0-.19.23v1.06a6.1 6.1 0 0 1-3.06-2.58Zm3.54 2.74v-1.04c.44-.17.74-.6.74-1.08 0-.65-.52-1.17-1.17-1.17h-.38A1.6 1.6 0 0 0 2.14 7.6v-.44c.34-.1.59-.42.59-.8v-.21H4v.07a.24.24 0 0 0 .48 0V3.36a.97.97 0 0 0-.5-1.81h-.85c.44-.32.94-.56 1.46-.74a2.06 2.06 0 0 0 1.96 1.47c.92 0 1.72-.61 1.97-1.47.66.22 1.26.56 1.8.98v.78H9.3a.24.24 0 0 0 0 .48h.4v.42h-.8a.92.92 0 0 0-.75.89v.44H6.59c-.13 0-.24.11-.24.24v.69a1.13 1.13 0 0 0 2.17.46h1.87c.22.38.6.64 1.03.71v.45H7.36a1 1 0 0 0 0 2h.61v1.5c0 .56.24 1.07.66 1.42a6.05 6.05 0 0 1-3.75.13Zm6.56-2.23V8.69h.8c-.2.53-.47 1.03-.8 1.48Zm.96-1.96h-1.2c-.14 0-.24.11-.24.24v2.29a6.1 6.1 0 0 1-1.81 1.3c-.43-.24-.7-.69-.7-1.19V9.12c0-.13-.1-.24-.24-.24h-.85a.53.53 0 0 1 0-1.05h4.3c.13 0 .24-.11.24-.24v-.91c0-.13-.1-.24-.24-.24a1 1 0 0 1-.9-.59.24.24 0 0 0-.22-.14H8.37c-.17 0-.23.1-.25.18a.65.65 0 0 1-1.29-.16v-.45h1.55c.13 0 .24-.1.24-.24v-.68c0-.18.15-.37.33-.41h.98c.13 0 .24-.1.24-.24v-.66h.4a.24.24 0 0 0 .24-.24v-.6a6.06 6.06 0 0 1 1.59 6Z" fill="#2C3639"/><path d="M7.6 4.3c.13 0 .24-.1.24-.24v-.25a.24.24 0 0 0-.48 0v.25c0 .13.1.24.24.24Z" fill="#2C3639"/></svg>