<svg width="72" height="38" viewBox="0 0 72 38" fill="none" xmlns="http://www.w3.org/2000/svg">
<g clip-path="url(#clip0_37_10)">
<path d="M19.388 23.2327L16.428 37.4065C16.3857 37.5631 16.3011 37.6983 16.1743 37.8121C16.0474 37.9117 15.8853 37.9615 15.688 37.9615H13.5737C13.3905 37.9615 13.2284 37.9117 13.0874 37.8121C12.9606 37.6983 12.883 37.556 12.8549 37.3852L10.5714 26.3065C10.515 26.0219 10.4587 25.7444 10.4023 25.474C10.3459 25.1894 10.2895 24.9119 10.2331 24.6415H9.78914C9.73274 24.9119 9.6764 25.1894 9.62 25.474C9.57771 25.7586 9.5284 26.0361 9.472 26.3065L7.20971 37.3852C7.16743 37.556 7.07583 37.6983 6.93485 37.8121C6.808 37.9117 6.65297 37.9615 6.46971 37.9615H4.33428C4.15104 37.9615 3.98895 37.9117 3.848 37.8121C3.72114 37.6983 3.64362 37.5631 3.61543 37.4065L0.655426 23.2327H2.62171L4.90514 34.7169C4.96152 34.9873 5.01086 35.279 5.05314 35.5921C5.09543 35.891 5.14476 36.2041 5.20114 36.5313H5.68743C5.74383 36.2041 5.80017 35.891 5.85657 35.5921C5.91297 35.2933 5.96931 35.0015 6.02571 34.7169L8.288 23.8517C8.31617 23.6667 8.39371 23.5173 8.52057 23.4035C8.66154 23.2896 8.8236 23.2327 9.00686 23.2327H11.0366C11.2198 23.2327 11.3749 23.2896 11.5017 23.4035C11.6286 23.5173 11.7131 23.6667 11.7554 23.8517L14.0177 34.7169C14.0882 35.03 14.1446 35.336 14.1869 35.6348C14.2433 35.9337 14.2855 36.2325 14.3137 36.5313H14.8423C14.8846 36.2325 14.9269 35.9337 14.9691 35.6348C15.0114 35.3217 15.0607 35.0229 15.1171 34.7383L17.4217 23.2327H19.388ZM24.5731 23.2113C25.2779 23.2113 25.9826 23.2113 26.6874 23.2113C27.4063 23.2113 28.111 23.2256 28.8017 23.254C29.5065 23.2683 30.183 23.2967 30.8314 23.3394L30.7469 24.8123H24.8903C24.4533 24.8123 24.1291 24.9261 23.9177 25.1538C23.7203 25.3673 23.6217 25.7231 23.6217 26.2212V34.9731C23.6217 35.4711 23.7203 35.834 23.9177 36.0617C24.1291 36.2894 24.4533 36.4033 24.8903 36.4033H30.7469L30.8314 37.8548C30.183 37.8975 29.5065 37.9259 28.8017 37.9402C28.111 37.9544 27.4063 37.9615 26.6874 37.9615C25.9826 37.9758 25.2779 37.9829 24.5731 37.9829C23.7133 37.9829 23.0297 37.7552 22.5223 37.2998C22.0289 36.8302 21.7752 36.2041 21.7611 35.4213V25.7729C21.7752 24.976 22.0289 24.3498 22.5223 23.8944C23.0297 23.4391 23.7133 23.2113 24.5731 23.2113ZM22.1417 29.4231H29.9223V30.9387H22.1417V29.4231ZM38.4549 23.0619C39.653 23.0619 40.6044 23.1757 41.3092 23.4035C42.0139 23.6169 42.5214 24.0012 42.8315 24.5562C43.1557 25.1112 43.3178 25.8939 43.3178 26.9042C43.3178 27.9573 43.1204 28.7613 42.7258 29.3163C42.3452 29.8713 41.7179 30.1915 40.8441 30.2769V30.3623C41.9294 30.4619 42.6835 30.8462 43.1063 31.515C43.5433 32.1838 43.7618 33.1089 43.7618 34.29C43.7618 35.3004 43.6067 36.0831 43.2966 36.6381C42.9865 37.1931 42.4861 37.5844 41.7955 37.8121C41.1189 38.0256 40.2238 38.1323 39.1103 38.1323C38.2787 38.1323 37.5598 38.1252 36.9538 38.111C36.3618 38.111 35.8121 38.0967 35.3046 38.0683C34.7972 38.0398 34.2686 38.0042 33.7189 37.9615L34.0149 36.4673C34.325 36.4816 34.9099 36.4957 35.7698 36.51C36.6437 36.5242 37.6585 36.5313 38.8143 36.5313C39.5895 36.5313 40.1957 36.4673 40.6326 36.3392C41.0837 36.1969 41.4008 35.9407 41.5841 35.5708C41.7814 35.2008 41.8801 34.6671 41.8801 33.9698C41.8801 33.2013 41.7814 32.6107 41.5841 32.1981C41.3867 31.7854 41.0555 31.4937 40.5903 31.3229C40.1252 31.1521 39.4909 31.0596 38.6875 31.0454H33.9938V29.6152H38.6663C39.3711 29.6009 39.9278 29.5298 40.3366 29.4017C40.7595 29.2594 41.0625 29.0104 41.2458 28.6546C41.429 28.2846 41.5206 27.7723 41.5206 27.1177C41.5206 26.4489 41.4219 25.9366 41.2246 25.5808C41.0273 25.225 40.6961 24.9831 40.2309 24.855C39.7798 24.7269 39.1597 24.6629 38.3703 24.6629C37.6797 24.6629 37.0595 24.6629 36.5098 24.6629C35.9601 24.6629 35.4738 24.67 35.0509 24.6842C34.6421 24.6842 34.2968 24.6985 34.0149 24.7269L33.7189 23.2327C34.2122 23.1757 34.6774 23.1402 35.1143 23.126C35.5654 23.0975 36.0517 23.0833 36.5732 23.0833C37.1088 23.069 37.7361 23.0619 38.4549 23.0619ZM35.5372 23.2327V37.9615H33.7189V23.2327H35.5372Z" fill="#2C3639"/>
<path d="M71.7874 26.7339C71.38 26.4923 70.9611 26.1798 70.8491 26.0373C70.8463 26.0073 70.8434 25.9738 70.8406 25.9373C70.7914 25.3043 70.6994 24.1321 68.4046 23.0674C68.3417 22.9243 68.2549 22.7883 68.1423 22.6742C67.8657 22.3934 67.5029 22.3136 67.1217 22.4488C66.7994 22.5634 66.5949 22.7341 66.464 22.9077C66.0657 22.9393 65.7691 23.0581 65.5029 23.165C65.2263 23.2761 64.9874 23.372 64.6417 23.372C64.476 23.372 64.272 23.2247 64.036 23.0541C63.6491 22.7747 63.1674 22.4269 62.4697 22.4269C61.6846 22.4269 61.1423 22.7049 60.6171 22.9739C59.8943 23.3443 59.212 23.6941 57.7709 23.3806C56.0433 23.0049 53.2849 23.7168 52.2683 24.3802C51.3354 24.9891 50.2879 26.82 49.1549 29.8224C48.4364 31.7263 47.9044 33.526 47.7746 33.9748L46.9765 34.8426C46.8613 34.9679 46.8258 35.1558 46.8863 35.3204L47.7551 37.6831C47.817 37.8512 47.9668 37.9615 48.1333 37.9615H49.4366C49.6615 37.9615 49.8439 37.7633 49.8439 37.5185C49.8439 37.2739 49.6616 37.0755 49.4366 37.0755H49.4094V36.5153C50.7059 36.3418 52.3178 35.408 53.1879 34.5367C53.3023 34.4222 53.4153 34.3157 53.5274 34.2154C53.649 34.4704 53.8024 34.6918 53.9529 34.9071C54.3252 35.4401 54.6769 35.9436 54.6769 37.046C54.6769 37.3261 54.8745 37.4369 55.0333 37.526C55.1084 37.5681 55.212 37.6239 55.3411 37.6919C55.5607 37.8076 55.7802 37.9196 55.7802 37.9196C55.8343 37.9472 55.8934 37.9615 55.9531 37.9615H58.1251C58.3503 37.9615 58.5326 37.7632 58.5326 37.5185C58.5326 37.2738 58.3503 37.0754 58.1251 37.0754H57.2937C57.4114 36.6209 57.6743 36.0848 57.9486 35.5255C58.1166 35.1832 58.2926 34.8246 58.4497 34.4547C58.5823 34.8686 58.768 35.3035 59.0211 35.7549V36.7119C59.0211 37.0457 59.1411 37.3596 59.3577 37.5955C59.5749 37.8315 59.8634 37.9615 60.1703 37.9615H62.4697C62.6949 37.9615 62.8771 37.7632 62.8771 37.5185C62.8771 37.2738 62.6949 37.0754 62.4697 37.0754H62.056L62.4154 33.5582C62.5617 33.4765 62.772 33.3505 63.0171 33.1783C63.2377 33.9278 63.9829 35.931 65.7611 36.5046L67.4383 37.8728C67.5091 37.9303 67.5949 37.9614 67.6829 37.9614H70.2891C70.5143 37.9614 70.6966 37.7631 70.6966 37.5183C70.6966 37.2737 70.5143 37.0753 70.2891 37.0753H69.8549C69.52 37.0753 69.1086 36.19 68.7109 35.3335C68.3349 34.5245 67.8709 33.5264 67.2217 32.6372C67.2217 32.0029 67.1869 30.2834 66.8326 29.4558H68.552C68.676 29.4558 68.7937 29.3939 68.8709 29.2877C69.0926 28.9832 69.5697 28.9832 69.8549 28.9832C70.8903 28.9832 71.3286 28.7834 71.4057 28.7433C71.5069 28.6909 71.584 28.5954 71.6183 28.4793L71.9806 27.2586C72.0406 27.0561 71.9594 26.8358 71.7874 26.7339ZM57.2303 35.1085C56.8923 35.797 56.5699 36.4546 56.4572 37.0756H56.0441C55.8437 36.9727 55.6302 36.8608 55.4855 36.7821C55.4279 35.5541 54.9723 34.9019 54.6015 34.3711C54.4338 34.1311 54.2868 33.92 54.1981 33.6867C55.4353 32.843 56.6099 32.764 58.1166 32.7636C58.0006 33.5364 57.6103 34.3334 57.2303 35.1085ZM67.984 35.7334C68.2194 36.2404 68.4349 36.7041 68.664 37.0756H67.8183L66.1891 35.7466C66.148 35.7129 66.1011 35.6879 66.0514 35.6733C64.3046 35.1599 63.74 32.7141 63.7343 32.6902C63.7291 32.667 63.7223 32.6449 63.7143 32.6234C64.3143 32.0843 64.9583 31.3279 65.372 30.3323C65.5783 30.2674 65.88 30.1523 66.152 29.9709C66.3234 30.5158 66.4166 31.76 66.4069 32.7884C66.4057 32.893 66.4389 32.9948 66.5 33.0754C67.1406 33.9192 67.5886 34.8831 67.984 35.7334ZM70.9074 27.9899C70.7303 28.036 70.3937 28.0974 69.8549 28.0974C69.5154 28.0974 68.8451 28.0974 68.3754 28.57H66.7977C66.4971 28.57 66.236 28.3373 66.1771 28.0165L65.9966 27.0359C65.9526 26.796 65.7383 26.6408 65.5177 26.6884C65.2971 26.7364 65.1537 26.9697 65.1983 27.2096L65.3783 28.1903C65.4457 28.5567 65.6286 28.8729 65.8806 29.0977C65.7114 29.2557 65.3463 29.4377 64.988 29.5256C64.8566 29.5573 64.7486 29.6572 64.6983 29.7926C63.932 31.8635 61.8937 32.8497 61.8737 32.8591C61.7394 32.9222 61.6463 33.0588 61.6303 33.2169L61.236 37.0756H60.1703C60.0806 37.0756 59.9966 37.0378 59.9337 36.969C59.8703 36.9004 59.836 36.8091 59.836 36.7119V35.6284C59.836 35.5444 59.8137 35.4622 59.7726 35.3912C58.0434 32.4246 59.6606 30.3429 59.7343 30.251C59.8823 30.0679 59.8669 29.7887 59.6989 29.6267C59.5303 29.4643 59.2731 29.481 59.124 29.664C59.1017 29.6913 58.5743 30.3467 58.3114 31.441C58.2783 31.5801 58.2486 31.7308 58.2246 31.8915C58.1926 31.8828 58.1594 31.8777 58.1251 31.8777C56.0849 31.8777 54.4969 32.0217 52.6362 33.8849C51.5771 34.9454 49.9021 35.6579 49.0022 35.6579C48.7772 35.6579 48.5949 35.8562 48.5949 36.101V37.0756H48.409L47.7423 35.2626L48.4213 34.5241C48.4684 34.4728 48.5033 34.4098 48.5227 34.3405C49.1446 32.1317 51.1049 26.1728 52.6872 25.1401C53.479 24.6233 56.0422 23.9081 57.6109 24.2495C59.316 24.6203 60.1914 24.1715 60.9646 23.7755C61.4486 23.5273 61.8669 23.3131 62.4697 23.3131C62.9217 23.3131 63.244 23.5459 63.5851 23.7924C63.9023 24.0213 64.2303 24.2581 64.6417 24.2581C65.1331 24.2581 65.4794 24.119 65.7851 23.9963C65.9394 23.9342 66.0829 23.8775 66.24 23.8383C66.2863 24.2007 66.4446 24.4823 66.4709 24.5267C66.5491 24.659 66.6811 24.7315 66.816 24.7315C66.8909 24.7315 66.9669 24.7091 67.0343 24.6618C67.224 24.5298 67.28 24.257 67.1583 24.0511C67.1023 23.9526 67.0034 23.6973 67.0571 23.537C67.0994 23.412 67.2531 23.3343 67.3749 23.2911C67.4966 23.2478 67.5463 23.2825 67.5834 23.3184C67.6949 23.4269 67.7343 23.6426 67.7223 23.7076C67.6674 23.945 67.8006 24.1855 68.0183 24.2448C68.1886 24.2911 68.3606 24.2131 68.4537 24.0642C69.9366 24.8446 69.992 25.5392 70.0291 26.0121C70.0349 26.0851 70.04 26.1541 70.0497 26.223C70.0674 26.3565 70.1137 26.6925 71.1034 27.3301L70.9074 27.9899Z" fill="#2C3639"/>
<path d="M0.251434 18.3462V17.5846L2.36343 17.28H2.84115L5.22972 17.5846V18.3462H0.251434ZM1.70972 18.3462L7.24115 1.36386H8.82515L14.3817 18.3462H11.3394L6.86401 3.87693H7.31658L7.21601 4.23232L2.71543 18.3462H1.70972ZM4.14858 12.7869V11.8731H11.0377V12.7869H4.14858ZM8.92572 18.3462V17.5846L11.792 17.2292H13.1749L15.7143 17.5846V18.3462H8.92572ZM16.7129 18.3462V17.6354L19.1266 17.2292H20.2832L22.7221 17.6354V18.3462H16.7129ZM18.3221 18.3462C18.3556 17.8554 18.3723 17.3054 18.3723 16.6962C18.3891 16.0869 18.3975 15.4608 18.3975 14.8177C18.4143 14.1746 18.4226 13.5739 18.4226 13.0154V1.74462L16.6375 1.38924V0.754624L20.8866 -0.336914L21.1884 -0.108453L21.0878 4.15616V13.0154C21.0878 13.5739 21.0878 14.1746 21.0878 14.8177C21.1046 15.4608 21.1213 16.0869 21.1381 16.6962C21.1549 17.3054 21.1716 17.8554 21.1884 18.3462H18.3221ZM27.2751 18.7015C26.3867 18.7015 25.6408 18.4477 25.0374 17.94C24.4507 17.4154 24.1574 16.6623 24.1574 15.6808C24.1574 15.1562 24.2664 14.6654 24.4842 14.2085C24.7189 13.7346 25.138 13.3031 25.7414 12.9139C26.3616 12.5077 27.2332 12.1354 28.3562 11.7969C28.6915 11.6954 29.0602 11.5854 29.4625 11.4669C29.8648 11.3485 30.2838 11.23 30.7197 11.1115C31.1722 10.9931 31.6416 10.8662 32.1277 10.7308V11.4162C31.4572 11.6192 30.8538 11.8054 30.3174 11.9746C29.7978 12.1438 29.3704 12.2961 29.0351 12.4315C28.4317 12.6515 27.9624 12.9054 27.6271 13.1931C27.3086 13.4808 27.0824 13.7938 26.9482 14.1323C26.8309 14.4538 26.7722 14.7923 26.7722 15.1477C26.7722 15.8246 26.9398 16.3154 27.2751 16.62C27.6103 16.9246 28.0294 17.0769 28.5322 17.0769C28.834 17.0769 29.1105 17.0346 29.3619 16.95C29.6301 16.8654 29.9318 16.7131 30.2671 16.4931C30.6024 16.2731 31.013 15.9515 31.4991 15.5285L31.7254 16.62H30.9208C30.5353 17.0938 30.1581 17.4916 29.7894 17.8131C29.4206 18.1177 29.0267 18.3377 28.6077 18.4731C28.2054 18.6254 27.7612 18.7015 27.2751 18.7015ZM33.0831 18.6254C32.3288 18.6254 31.7505 18.4308 31.3482 18.0415C30.9627 17.6354 30.7448 17.0938 30.6945 16.4169V16.3154V10.2739C30.6945 9.46155 30.6275 8.82693 30.4934 8.37001C30.3593 7.91309 30.133 7.59157 29.8145 7.40539C29.4961 7.21922 29.077 7.12616 28.5574 7.12616C28.2724 7.12616 27.9707 7.16003 27.6522 7.2277C27.3505 7.27847 27.0069 7.37153 26.6214 7.50693L27.6271 6.82155L27.25 8.75078C27.1829 9.32614 27.0153 9.74926 26.7471 10.02C26.4789 10.2739 26.1604 10.4008 25.7917 10.4008C25.4397 10.4008 25.1631 10.3077 24.962 10.1215C24.7608 9.91847 24.6267 9.64772 24.5597 9.30924C24.6938 8.37849 25.1966 7.63386 26.0682 7.07539C26.9566 6.50003 28.0797 6.21232 29.4374 6.21232C30.3593 6.21232 31.1052 6.36462 31.6751 6.66924C32.245 6.97386 32.6641 7.44768 32.9322 8.09078C33.2172 8.71691 33.3597 9.54618 33.3597 10.5785V16.2139C33.3597 16.6031 33.4184 16.8823 33.5357 17.0515C33.6698 17.2208 33.8458 17.3054 34.0637 17.3054C34.2481 17.3054 34.4073 17.2631 34.5414 17.1785C34.6922 17.0769 34.8515 16.9246 35.0191 16.7215L35.4214 17.0515C35.1867 17.5761 34.8766 17.9739 34.4911 18.2446C34.1056 18.4985 33.6362 18.6254 33.0831 18.6254ZM40.4553 18.7015C39.7177 18.7015 39.0557 18.6169 38.469 18.4477C37.8823 18.2785 37.2873 18.0246 36.6838 17.6862L36.7593 14.6146H37.6896L38.6198 17.9146H37.6393V17.0515C38.0751 17.3223 38.5025 17.5254 38.9216 17.6608C39.3574 17.7962 39.8686 17.8639 40.4553 17.8639C40.9917 17.8639 41.4358 17.7877 41.7878 17.6354C42.1566 17.4662 42.4332 17.2292 42.6175 16.9246C42.802 16.62 42.8941 16.2815 42.8941 15.9092C42.8941 15.3169 42.6846 14.8685 42.2655 14.5639C41.8633 14.2423 41.3185 13.9461 40.6313 13.6754L39.701 13.32C39.1646 13.1169 38.6701 12.8716 38.2175 12.5839C37.7817 12.2792 37.4297 11.907 37.1615 11.4669C36.8934 11.0269 36.7593 10.4854 36.7593 9.84232C36.7593 9.16541 36.9185 8.55618 37.237 8.01462C37.5722 7.45616 38.0583 7.01614 38.6953 6.69462C39.349 6.37311 40.1535 6.21232 41.109 6.21232C41.7794 6.21232 42.3829 6.29695 42.9193 6.46616C43.4557 6.61847 43.9837 6.84693 44.5033 7.15155L44.4027 9.99463H43.4975L42.5673 6.99924H43.5981V7.91309C43.1958 7.60847 42.8019 7.38849 42.4164 7.25309C42.0309 7.11768 41.5867 7.05001 41.0838 7.05001C40.3966 7.05001 39.8602 7.2108 39.4747 7.53232C39.1059 7.85384 38.9216 8.28537 38.9216 8.82693C38.9216 9.4023 39.1143 9.8508 39.4998 10.1723C39.9021 10.4769 40.4553 10.7646 41.1593 11.0354L41.9638 11.34C42.6008 11.577 43.1539 11.8562 43.6233 12.1777C44.1094 12.4823 44.4781 12.8631 44.7295 13.32C44.9977 13.76 45.1318 14.3015 45.1318 14.9446C45.1318 15.6893 44.9474 16.3408 44.5787 16.8992C44.2267 17.4577 43.6987 17.8977 42.9947 18.2192C42.3074 18.5408 41.461 18.7015 40.4553 18.7015ZM46.3982 18.3462V17.6354L48.8119 17.2292H49.9685L52.3822 17.6354V18.3462H46.3982ZM48.0073 18.3462C48.0241 18.0246 48.0409 17.6439 48.0576 17.2039C48.0744 16.7638 48.0827 16.2985 48.0827 15.8077C48.0995 15.3169 48.1079 14.8346 48.1079 14.3608C48.1079 13.87 48.1079 13.4215 48.1079 13.0154V1.74462L46.3227 1.38924V0.754624L50.5719 -0.336914L50.8736 -0.108453L50.773 4.38462V12.9646C50.773 13.3877 50.773 13.8446 50.773 14.3354C50.773 14.8262 50.773 15.3169 50.773 15.8077C50.7898 16.2985 50.8066 16.7638 50.8233 17.2039C50.8401 17.6439 50.8569 18.0246 50.8736 18.3462H48.0073ZM49.4153 14.9446V13.7008H49.541L52.885 10.1215L56.229 6.5677H57.4612L49.4153 14.9446ZM55.2233 18.3462L51.8039 11.8731L53.7399 10.02L57.7629 17.3815L59.1709 17.6354V18.3462H55.2233ZM53.1867 7.25309V6.5677H58.5674V7.25309L56.1536 7.63385L55.5753 7.68462L53.1867 7.25309ZM63.32 18.7015C62.4314 18.7015 61.6857 18.4477 61.0823 17.94C60.4954 17.4154 60.2023 16.6623 60.2023 15.6808C60.2023 15.1562 60.3109 14.6654 60.5292 14.2085C60.7634 13.7346 61.1829 13.3031 61.7863 12.9139C62.4063 12.5077 63.2777 12.1354 64.4012 11.7969C64.736 11.6954 65.1051 11.5854 65.5074 11.4669C65.9097 11.3485 66.3286 11.23 66.7646 11.1115C67.2171 10.9931 67.6863 10.8662 68.1726 10.7308V11.4162C67.5017 11.6192 66.8983 11.8054 66.3623 11.9746C65.8423 12.1438 65.4149 12.2961 65.08 12.4315C64.4766 12.6515 64.0069 12.9054 63.672 13.1931C63.3532 13.4808 63.1269 13.7938 62.9931 14.1323C62.8754 14.4538 62.8172 14.7923 62.8172 15.1477C62.8172 15.8246 62.9846 16.3154 63.32 16.62C63.6549 16.9246 64.0743 17.0769 64.5771 17.0769C64.8789 17.0769 65.1554 17.0346 65.4069 16.95C65.6749 16.8654 65.9766 16.7131 66.312 16.4931C66.6469 16.2731 67.0577 15.9515 67.544 15.5285L67.7703 16.62H66.9657C66.58 17.0938 66.2029 17.4916 65.8343 17.8131C65.4651 18.1177 65.0714 18.3377 64.6526 18.4731C64.2503 18.6254 63.8057 18.7015 63.32 18.7015ZM69.128 18.6254C68.3737 18.6254 67.7954 18.4308 67.3932 18.0415C67.0074 17.6354 66.7897 17.0938 66.7394 16.4169V16.3154V10.2739C66.7394 9.46155 66.672 8.82693 66.5383 8.37001C66.404 7.91309 66.1777 7.59157 65.8594 7.40539C65.5406 7.21922 65.1217 7.12616 64.6023 7.12616C64.3172 7.12616 64.0154 7.16003 63.6972 7.2277C63.3954 7.27847 63.0514 7.37153 62.6663 7.50693L63.672 6.82155L63.2949 8.75078C63.2274 9.32614 63.06 9.74926 62.792 10.02C62.5234 10.2739 62.2051 10.4008 61.8366 10.4008C61.4846 10.4008 61.208 10.3077 61.0069 10.1215C60.8057 9.91847 60.6714 9.64772 60.6046 9.30924C60.7383 8.37849 61.2411 7.63386 62.1131 7.07539C63.0011 6.50003 64.1246 6.21232 65.4823 6.21232C66.404 6.21232 67.1497 6.36462 67.72 6.66924C68.2897 6.97386 68.7086 7.44768 68.9771 8.09078C69.2617 8.71691 69.4046 9.54618 69.4046 10.5785V16.2139C69.4046 16.6031 69.4629 16.8823 69.5806 17.0515C69.7143 17.2208 69.8903 17.3054 70.1086 17.3054C70.2926 17.3054 70.452 17.2631 70.5863 17.1785C70.7372 17.0769 70.896 16.9246 71.064 16.7215L71.4663 17.0515C71.2314 17.5761 70.9212 17.9739 70.536 18.2446C70.1503 18.4985 69.6812 18.6254 69.128 18.6254Z" fill="#2C3639"/>
</g>
<defs>
<clipPath id="clip0_37_10">
<rect width="72" height="38" fill="white"/>
</clipPath>
</defs>
</svg>
