<svg width="70" height="38" viewBox="0 0 70 38" fill="none" xmlns="http://www.w3.org/2000/svg">
<g clip-path="url(#clip0_52_2870)">
<path d="M18.8494 23.2327L15.9717 37.4065C15.9306 37.563 15.8483 37.6983 15.725 37.8121C15.6017 37.9117 15.4441 37.9615 15.2522 37.9615H13.1967C13.0185 37.9615 12.8609 37.9117 12.7239 37.8121C12.6006 37.6983 12.5252 37.5559 12.4978 37.3852L10.2778 26.3065C10.2229 26.0219 10.1682 25.7444 10.1133 25.474C10.0585 25.1894 10.0037 24.9119 9.94889 24.6415H9.51722C9.46239 24.9119 9.40761 25.1894 9.35278 25.474C9.31167 25.7586 9.26372 26.0361 9.20889 26.3065L7.00945 37.3852C6.96833 37.5559 6.87928 37.6983 6.74222 37.8121C6.61889 37.9117 6.46817 37.9615 6.29 37.9615H4.21389C4.03574 37.9615 3.87815 37.9117 3.74111 37.8121C3.61778 37.6983 3.54241 37.563 3.515 37.4065L0.637222 23.2327H2.54889L4.76889 34.7169C4.82371 34.9873 4.87167 35.279 4.91278 35.5921C4.95389 35.8909 5.00185 36.204 5.05667 36.5313H5.52945C5.58428 36.204 5.63906 35.8909 5.69389 35.5921C5.74872 35.2932 5.8035 35.0015 5.85833 34.7169L8.05778 23.8517C8.08517 23.6667 8.16056 23.5173 8.28389 23.4034C8.42095 23.2896 8.5785 23.2327 8.75667 23.2327H10.73C10.9082 23.2327 11.0589 23.2896 11.1822 23.4034C11.3056 23.5173 11.3878 23.6667 11.4289 23.8517L13.6283 34.7169C13.6968 35.03 13.7517 35.3359 13.7928 35.6348C13.8476 35.9336 13.8887 36.2325 13.9161 36.5313H14.43C14.4711 36.2325 14.5122 35.9336 14.5533 35.6348C14.5944 35.3217 14.6424 35.0228 14.6972 34.7382L16.9378 23.2327H18.8494ZM23.8906 23.2113C24.5757 23.2113 25.2609 23.2113 25.9461 23.2113C26.645 23.2113 27.3302 23.2256 28.0017 23.254C28.6868 23.2683 29.3446 23.2967 29.975 23.3394L29.8928 24.8123H24.1989C23.7741 24.8123 23.4589 24.9261 23.2533 25.1538C23.0614 25.3673 22.9656 25.7231 22.9656 26.2211V34.973C22.9656 35.4711 23.0614 35.834 23.2533 36.0617C23.4589 36.2894 23.7741 36.4032 24.1989 36.4032H29.8928L29.975 37.8548C29.3446 37.8975 28.6868 37.9259 28.0017 37.9402C27.3302 37.9544 26.645 37.9615 25.9461 37.9615C25.2609 37.9758 24.5757 37.9829 23.8906 37.9829C23.0546 37.9829 22.39 37.7551 21.8967 37.2998C21.417 36.8302 21.1703 36.204 21.1567 35.4213V25.7729C21.1703 24.9759 21.417 24.3498 21.8967 23.8944C22.39 23.439 23.0546 23.2113 23.8906 23.2113ZM21.5267 29.423H29.0911V30.9386H21.5267V29.423ZM37.3867 23.0619C38.5515 23.0619 39.4765 23.1757 40.1617 23.4034C40.8469 23.6169 41.3402 24.0011 41.6417 24.5561C41.9569 25.1111 42.1145 25.8938 42.1145 26.9042C42.1145 27.9573 41.9226 28.7613 41.539 29.3163C41.169 29.8713 40.5591 30.1915 39.7095 30.2769V30.3623C40.7647 30.4619 41.4978 30.8461 41.9089 31.515C42.3337 32.1838 42.5462 33.1088 42.5462 34.29C42.5462 35.3003 42.3954 36.083 42.0939 36.638C41.7924 37.193 41.3059 37.5844 40.6345 37.8121C39.9767 38.0255 39.1065 38.1323 38.0239 38.1323C37.2154 38.1323 36.5165 38.1252 35.9273 38.1109C35.3517 38.1109 34.8173 38.0967 34.324 38.0682C33.8306 38.0398 33.3167 38.0042 32.7823 37.9615L33.0701 36.4673C33.3715 36.4815 33.9402 36.4957 34.7762 36.51C35.6258 36.5242 36.6124 36.5313 37.7362 36.5313C38.4898 36.5313 39.0791 36.4673 39.5039 36.3392C39.9424 36.1969 40.2508 35.9407 40.429 35.5707C40.6208 35.2008 40.7167 34.6671 40.7167 33.9698C40.7167 33.2013 40.6208 32.6107 40.429 32.198C40.2371 31.7854 39.9151 31.4936 39.4628 31.3229C39.0106 31.1521 38.3939 31.0596 37.6128 31.0454H33.0495V29.6152H37.5923C38.2774 29.6009 38.8187 29.5298 39.2162 29.4017C39.6273 29.2594 39.9219 29.0104 40.1001 28.6546C40.2782 28.2846 40.3673 27.7723 40.3673 27.1177C40.3673 26.4488 40.2713 25.9365 40.0795 25.5807C39.8876 25.2249 39.5656 24.983 39.1134 24.855C38.6748 24.7269 38.0719 24.6629 37.3045 24.6629C36.633 24.6629 36.0301 24.6629 35.4956 24.6629C34.9612 24.6629 34.4884 24.6699 34.0773 24.6842C33.6798 24.6842 33.3441 24.6984 33.0701 24.7269L32.7823 23.2327C33.2619 23.1757 33.7141 23.1402 34.139 23.1259C34.5775 23.0975 35.0502 23.0832 35.5573 23.0832C36.078 23.069 36.6878 23.0619 37.3867 23.0619ZM34.5501 23.2327V37.9615H32.7823V23.2327H34.5501Z" fill="white"/>
<path d="M69.7933 26.7339C69.3972 26.4923 68.99 26.1799 68.8811 26.0373C68.8783 26.0073 68.8756 25.9738 68.8728 25.9373C68.825 25.3043 68.7356 24.1321 66.5044 23.0674C66.4433 22.9244 66.3589 22.7884 66.2494 22.6742C65.9806 22.3935 65.6278 22.3136 65.2572 22.4489C64.9439 22.5634 64.745 22.7341 64.6178 22.9077C64.2306 22.9393 63.9422 23.0581 63.6833 23.1651C63.4144 23.2761 63.1822 23.3721 62.8461 23.3721C62.685 23.3721 62.4867 23.2247 62.2572 23.0541C61.8811 22.7747 61.4128 22.4269 60.7344 22.4269C59.9711 22.4269 59.4439 22.705 58.9333 22.9739C58.2306 23.3443 57.5672 23.6941 56.1661 23.3806C54.4865 23.0049 51.8047 23.7168 50.8164 24.3802C49.9094 24.9891 48.8911 26.82 47.7895 29.8224C47.0909 31.7263 46.5737 33.5261 46.4475 33.9748L45.6716 34.8426C45.5596 34.968 45.5251 35.1559 45.5839 35.3204L46.4286 37.6831C46.4888 37.8513 46.6344 37.9616 46.7963 37.9616H48.0633C48.2821 37.9616 48.4593 37.7633 48.4593 37.5186C48.4593 37.2739 48.2821 37.0755 48.0633 37.0755H48.0369V36.5153C49.2974 36.3418 50.8645 35.4081 51.7104 34.5367C51.8217 34.4222 51.9316 34.3157 52.0405 34.2154C52.1588 34.4704 52.3079 34.6918 52.4542 34.9071C52.8162 35.4401 53.1581 35.9437 53.1581 37.046C53.1581 37.3262 53.3502 37.437 53.5046 37.5261C53.5776 37.5681 53.6783 37.624 53.8039 37.692C54.0173 37.8076 54.2308 37.9196 54.2308 37.9196C54.2834 37.9472 54.3408 37.9615 54.3989 37.9615H56.5106C56.7294 37.9615 56.9067 37.7632 56.9067 37.5185C56.9067 37.2738 56.7294 37.0755 56.5106 37.0755H55.7022C55.8167 36.6209 56.0722 36.0848 56.3389 35.5256C56.5022 35.1832 56.6733 34.8247 56.8261 34.4547C56.955 34.8686 57.1356 35.3036 57.3817 35.755V36.7119C57.3817 37.0457 57.4983 37.3597 57.7089 37.5955C57.92 37.8315 58.2006 37.9615 58.4989 37.9615H60.7344C60.9533 37.9615 61.1306 37.7632 61.1306 37.5185C61.1306 37.2738 60.9533 37.0755 60.7344 37.0755H60.3322L60.6817 33.5583C60.8239 33.4766 61.0283 33.3506 61.2667 33.1783C61.4811 33.9278 62.2056 35.931 63.9344 36.5046L65.565 37.8728C65.6339 37.9303 65.7172 37.9614 65.8028 37.9614H68.3367C68.5556 37.9614 68.7328 37.7632 68.7328 37.5184C68.7328 37.2737 68.5556 37.0754 68.3367 37.0754H67.9144C67.5889 37.0754 67.1889 36.19 66.8022 35.3336C66.4367 34.5245 65.9856 33.5264 65.3544 32.6372C65.3544 32.0029 65.3206 30.2834 64.9761 29.4558H66.6478C66.7683 29.4558 66.8828 29.3939 66.9578 29.2878C67.1733 28.9833 67.6372 28.9833 67.9144 28.9833C68.9211 28.9833 69.3472 28.7834 69.4222 28.7433C69.5206 28.6909 69.5956 28.5954 69.6289 28.4793L69.9811 27.2586C70.0394 27.0562 69.9606 26.8358 69.7933 26.7339ZM55.6406 35.1085C55.3119 35.797 54.9985 36.4547 54.8889 37.0756H54.4873C54.2924 36.9727 54.0849 36.8609 53.9442 36.7821C53.8882 35.5541 53.4453 34.902 53.0848 34.3712C52.9217 34.1311 52.7788 33.92 52.6926 33.6867C53.8954 32.843 55.0374 32.764 56.5022 32.7637C56.3894 33.5364 56.01 34.3335 55.6406 35.1085ZM66.0956 35.7334C66.3244 36.2404 66.5339 36.7041 66.7567 37.0756H65.9344L64.3506 35.7466C64.3106 35.7129 64.265 35.688 64.2167 35.6734C62.5183 35.1599 61.9694 32.7141 61.9639 32.6902C61.9589 32.667 61.9522 32.6449 61.9444 32.6235C62.5278 32.0843 63.1539 31.3279 63.5561 30.3323C63.7567 30.2674 64.05 30.1523 64.3144 29.971C64.4811 30.5159 64.5717 31.7601 64.5622 32.7884C64.5611 32.893 64.5933 32.9948 64.6528 33.0754C65.2756 33.9192 65.7111 34.8831 66.0956 35.7334ZM68.9378 27.9899C68.7656 28.0361 68.4383 28.0975 67.9144 28.0975C67.5844 28.0975 66.9328 28.0975 66.4761 28.57H64.9422C64.65 28.57 64.3961 28.3373 64.3389 28.0166L64.1633 27.0359C64.1206 26.796 63.9122 26.6408 63.6978 26.6884C63.4833 26.7364 63.3439 26.9697 63.3872 27.2096L63.5622 28.1903C63.6278 28.5567 63.8056 28.873 64.0506 29.0977C63.8861 29.2557 63.5311 29.4378 63.1828 29.5256C63.055 29.5573 62.95 29.6572 62.9011 29.7926C62.1561 31.8636 60.1744 32.8497 60.155 32.8591C60.0244 32.9222 59.9339 33.0588 59.9183 33.2169L59.535 37.0757H58.4989C58.4117 37.0757 58.33 37.0378 58.2689 36.969C58.2072 36.9004 58.1739 36.8092 58.1739 36.712V35.6284C58.1739 35.5444 58.1522 35.4622 58.1122 35.3912C56.4311 32.4247 58.0033 30.343 58.075 30.251C58.2189 30.0679 58.2039 29.7888 58.0406 29.6267C57.8767 29.4644 57.6267 29.481 57.4817 29.664C57.46 29.6914 56.9472 30.3467 56.6917 31.441C56.6594 31.5801 56.6306 31.7309 56.6072 31.8915C56.5761 31.8828 56.5439 31.8777 56.5106 31.8777C54.527 31.8777 52.9831 32.0217 51.1741 33.8849C50.1444 34.9455 48.5159 35.658 47.641 35.658C47.4223 35.658 47.245 35.8563 47.245 36.101V37.0756H47.0643L46.4161 35.2627L47.0763 34.5242C47.1221 34.4729 47.1559 34.4099 47.1749 34.3406C47.7794 32.1317 49.6853 26.1728 51.2237 25.1401C51.9935 24.6233 54.4855 23.9081 56.0106 24.2496C57.6683 24.6203 58.5194 24.1715 59.2711 23.7756C59.7417 23.5274 60.1483 23.3131 60.7344 23.3131C61.1739 23.3131 61.4872 23.5459 61.8189 23.7924C62.1272 24.0213 62.4461 24.2581 62.8461 24.2581C63.3239 24.2581 63.6606 24.1191 63.9578 23.9963C64.1078 23.9343 64.2472 23.8776 64.4 23.8384C64.445 24.2007 64.5989 24.4823 64.6244 24.5268C64.7006 24.659 64.8289 24.7316 64.96 24.7316C65.0328 24.7316 65.1067 24.7091 65.1722 24.6618C65.3567 24.5298 65.4111 24.2571 65.2928 24.0511C65.2383 23.9526 65.1422 23.6973 65.1944 23.5371C65.2356 23.412 65.385 23.3343 65.5033 23.2911C65.6217 23.2478 65.67 23.2826 65.7061 23.3185C65.8144 23.4269 65.8528 23.6426 65.8411 23.7076C65.7878 23.945 65.9172 24.1855 66.1289 24.2449C66.2944 24.2911 66.4617 24.2132 66.5522 24.0642C67.9939 24.8447 68.0478 25.5393 68.0839 26.0122C68.0894 26.0851 68.0944 26.1541 68.1039 26.223C68.1211 26.3565 68.1661 26.6925 69.1283 27.3302L68.9378 27.9899Z" fill="white"/>
<path d="M0.244446 18.3462V17.5846L2.29778 17.28H2.76222L5.08445 17.5846V18.3462H0.244446ZM1.66222 18.3462L7.04 1.36386H8.58L13.9822 18.3462H11.0244L6.67333 3.87693H7.11333L7.01556 4.23232L2.64 18.3462H1.66222ZM4.03333 12.7869V11.8731H10.7311V12.7869H4.03333ZM8.67778 18.3462V17.5846L11.4644 17.2292H12.8089L15.2778 17.5846V18.3462H8.67778ZM16.2487 18.3462V17.6354L18.5953 17.2292H19.7198L22.0909 17.6354V18.3462H16.2487ZM17.8131 18.3462C17.8457 17.8554 17.862 17.3054 17.862 16.6962C17.8783 16.0869 17.8864 15.4608 17.8864 14.8177C17.9028 14.1746 17.9109 13.5739 17.9109 13.0154V1.74462L16.1753 1.38924V0.754624L20.3064 -0.336914L20.5998 -0.108453L20.502 4.15616V13.0154C20.502 13.5739 20.502 14.1746 20.502 14.8177C20.5183 15.4608 20.5346 16.0869 20.5509 16.6962C20.5672 17.3054 20.5835 17.8554 20.5998 18.3462H17.8131ZM26.5174 18.7015C25.6537 18.7015 24.9286 18.4477 24.3419 17.94C23.7715 17.4154 23.4863 16.6623 23.4863 15.6808C23.4863 15.1562 23.5923 14.6654 23.8041 14.2085C24.0323 13.7346 24.4397 13.3031 25.0263 12.9139C25.6293 12.5077 26.4767 12.1354 27.5686 11.7969C27.8945 11.6954 28.253 11.5854 28.6441 11.4669C29.0352 11.3485 29.4426 11.23 29.8663 11.1115C30.3063 10.9931 30.7626 10.8662 31.2352 10.7308V11.4162C30.5834 11.6192 29.9967 11.8054 29.4752 11.9746C28.9701 12.1438 28.5545 12.2961 28.2286 12.4315C27.6419 12.6515 27.1856 12.9054 26.8597 13.1931C26.5501 13.4808 26.3301 13.7938 26.1997 14.1323C26.0856 14.4538 26.0286 14.7923 26.0286 15.1477C26.0286 15.8246 26.1915 16.3154 26.5174 16.62C26.8434 16.9246 27.2508 17.0769 27.7397 17.0769C28.033 17.0769 28.3019 17.0346 28.5463 16.95C28.8071 16.8654 29.1004 16.7131 29.4263 16.4931C29.7523 16.2731 30.1515 15.9515 30.6241 15.5285L30.8441 16.62H30.0619C29.6871 17.0938 29.3204 17.4916 28.9619 17.8131C28.6034 18.1177 28.2204 18.3377 27.813 18.4731C27.4219 18.6254 26.9901 18.7015 26.5174 18.7015ZM32.1641 18.6254C31.4308 18.6254 30.8686 18.4308 30.4774 18.0415C30.1026 17.6354 29.8908 17.0938 29.8419 16.4169V16.3154V10.2739C29.8419 9.46155 29.7767 8.82693 29.6463 8.37001C29.5159 7.91309 29.2959 7.59157 28.9863 7.40539C28.6767 7.21922 28.2693 7.12616 27.7641 7.12616C27.4871 7.12616 27.1937 7.16003 26.8841 7.2277C26.5908 7.27847 26.2567 7.37153 25.8819 7.50693L26.8597 6.82155L26.493 8.75078C26.4278 9.32614 26.2648 9.74926 26.0041 10.02C25.7434 10.2739 25.4337 10.4008 25.0752 10.4008C24.733 10.4008 24.4641 10.3077 24.2686 10.1215C24.073 9.91847 23.9426 9.64772 23.8774 9.30924C24.0078 8.37849 24.4967 7.63386 25.3441 7.07539C26.2078 6.50003 27.2997 6.21232 28.6197 6.21232C29.5159 6.21232 30.2412 6.36462 30.7952 6.66924C31.3493 6.97386 31.7567 7.44768 32.0174 8.09078C32.2945 8.71691 32.433 9.54618 32.433 10.5785V16.2139C32.433 16.6031 32.4901 16.8823 32.6041 17.0515C32.7345 17.2208 32.9056 17.3054 33.1174 17.3054C33.2967 17.3054 33.4515 17.2631 33.5819 17.1785C33.7286 17.0769 33.8834 16.9246 34.0463 16.7215L34.4374 17.0515C34.2093 17.5761 33.9078 17.9739 33.533 18.2446C33.1582 18.4985 32.7019 18.6254 32.1641 18.6254ZM39.3315 18.7015C38.6144 18.7015 37.9708 18.6169 37.4004 18.4477C36.83 18.2785 36.2515 18.0246 35.6648 17.6862L35.7382 14.6146H36.6426L37.5471 17.9146H36.5937V17.0515C37.0174 17.3223 37.433 17.5254 37.8404 17.6608C38.2641 17.7962 38.7611 17.8639 39.3315 17.8639C39.853 17.8639 40.2848 17.7877 40.6271 17.6354C40.9856 17.4662 41.2544 17.2292 41.4337 16.9246C41.613 16.62 41.7026 16.2815 41.7026 15.9092C41.7026 15.3169 41.4989 14.8685 41.0915 14.5639C40.7004 14.2423 40.1708 13.9461 39.5026 13.6754L38.5982 13.32C38.0767 13.1169 37.5959 12.8716 37.1559 12.5839C36.7322 12.2792 36.39 11.907 36.1293 11.4669C35.8686 11.0269 35.7382 10.4854 35.7382 9.84232C35.7382 9.16541 35.893 8.55618 36.2026 8.01462C36.5286 7.45616 37.0011 7.01614 37.6204 6.69462C38.2559 6.37311 39.0382 6.21232 39.9671 6.21232C40.6189 6.21232 41.2056 6.29695 41.7271 6.46616C42.2486 6.61847 42.7619 6.84693 43.2671 7.15155L43.1693 9.99462H42.2893L41.3848 6.99924H42.3871V7.91309C41.9959 7.60847 41.613 7.38849 41.2382 7.25309C40.8633 7.11768 40.4315 7.05001 39.9426 7.05001C39.2744 7.05001 38.753 7.2108 38.3782 7.53232C38.0197 7.85384 37.8404 8.28537 37.8404 8.82693C37.8404 9.4023 38.0278 9.8508 38.4026 10.1723C38.7937 10.4769 39.3315 10.7646 40.0159 11.0354L40.7982 11.34C41.4174 11.577 41.9552 11.8562 42.4115 12.1777C42.8841 12.4823 43.2426 12.8631 43.4871 13.32C43.7478 13.76 43.8782 14.3015 43.8782 14.9446C43.8782 15.6893 43.6989 16.3408 43.3404 16.8992C42.9982 17.4577 42.4848 17.8977 41.8004 18.2192C41.1322 18.5408 40.3093 18.7015 39.3315 18.7015ZM45.1093 18.3462V17.6354L47.456 17.2292H48.5804L50.9271 17.6354V18.3462H45.1093ZM46.6738 18.3462C46.6901 18.0246 46.7064 17.6439 46.7227 17.2039C46.739 16.7638 46.7471 16.2985 46.7471 15.8077C46.7634 15.3169 46.7716 14.8346 46.7716 14.3608C46.7716 13.87 46.7716 13.4215 46.7716 13.0154V1.74462L45.036 1.38924V0.754624L49.1671 -0.336914L49.4604 -0.108453L49.3627 4.38462V12.9646C49.3627 13.3877 49.3627 13.8446 49.3627 14.3354C49.3627 14.8262 49.3627 15.3169 49.3627 15.8077C49.379 16.2985 49.3953 16.7638 49.4116 17.2039C49.4279 17.6439 49.4442 18.0246 49.4604 18.3462H46.6738ZM48.0427 14.9446V13.7008H48.1649L51.416 10.1215L54.6671 6.5677H55.865L48.0427 14.9446ZM53.6893 18.3462L50.3649 11.8731L52.2471 10.02L56.1583 17.3815L57.5272 17.6354V18.3462H53.6893ZM51.7093 7.25309V6.5677H56.9406V7.25309L54.5938 7.63385L54.0316 7.68462L51.7093 7.25309ZM61.5611 18.7015C60.6972 18.7015 59.9722 18.4477 59.3856 17.94C58.815 17.4154 58.53 16.6623 58.53 15.6808C58.53 15.1562 58.6356 14.6654 58.8478 14.2085C59.0756 13.7346 59.4833 13.3031 60.07 12.9139C60.6728 12.5077 61.52 12.1354 62.6122 11.7969C62.9378 11.6954 63.2967 11.5854 63.6878 11.4669C64.0789 11.3485 64.4861 11.23 64.91 11.1115C65.35 10.9931 65.8061 10.8662 66.2789 10.7308V11.4162C65.6267 11.6192 65.04 11.8054 64.5189 11.9746C64.0133 12.1438 63.5978 12.2961 63.2722 12.4315C62.6856 12.6515 62.2289 12.9054 61.9033 13.1931C61.5933 13.4808 61.3733 13.7938 61.2433 14.1323C61.1289 14.4538 61.0722 14.7923 61.0722 15.1477C61.0722 15.8246 61.235 16.3154 61.5611 16.62C61.8867 16.9246 62.2944 17.0769 62.7833 17.0769C63.0767 17.0769 63.3456 17.0346 63.59 16.95C63.8506 16.8654 64.1439 16.7131 64.47 16.4931C64.7956 16.2731 65.195 15.9515 65.6678 15.5285L65.8878 16.62H65.1056C64.7306 17.0938 64.3639 17.4916 64.0056 17.8131C63.6467 18.1177 63.2639 18.3377 62.8567 18.4731C62.4656 18.6254 62.0333 18.7015 61.5611 18.7015ZM67.2078 18.6254C66.4744 18.6254 65.9122 18.4308 65.5211 18.0415C65.1461 17.6354 64.9344 17.0938 64.8856 16.4169V16.3154V10.2739C64.8856 9.46155 64.82 8.82693 64.69 8.37001C64.5594 7.91309 64.3394 7.59157 64.03 7.40539C63.72 7.21922 63.3128 7.12616 62.8078 7.12616C62.5306 7.12616 62.2372 7.16003 61.9278 7.2277C61.6344 7.27847 61.3 7.37153 60.9256 7.50693L61.9033 6.82155L61.5367 8.75078C61.4711 9.32614 61.3083 9.74926 61.0478 10.02C60.7867 10.2739 60.4772 10.4008 60.1189 10.4008C59.7767 10.4008 59.5078 10.3077 59.3122 10.1215C59.1167 9.91847 58.9861 9.64772 58.9211 9.30924C59.0511 8.37849 59.54 7.63386 60.3878 7.07539C61.2511 6.50003 62.3433 6.21232 63.6633 6.21232C64.5594 6.21232 65.2844 6.36462 65.8389 6.66924C66.3928 6.97386 66.8 7.44768 67.0611 8.09078C67.3378 8.71691 67.4767 9.54618 67.4767 10.5785V16.2139C67.4767 16.6031 67.5333 16.8823 67.6478 17.0515C67.7778 17.2208 67.9489 17.3054 68.1611 17.3054C68.34 17.3054 68.495 17.2631 68.6256 17.1785C68.7722 17.0769 68.9267 16.9246 69.09 16.7215L69.4811 17.0515C69.2528 17.5761 68.9511 17.9739 68.5767 18.2446C68.2017 18.4985 67.7456 18.6254 67.2078 18.6254Z" fill="white"/>
</g>
<defs>
<clipPath id="clip0_52_2870">
<rect width="70" height="38" fill="white"/>
</clipPath>
</defs>
</svg>
